G04*
G04 #@! TF.GenerationSoftware,Altium Limited,Altium Designer,19.0.13 (425)*
G04*
G04 Layer_Color=128*
%FSLAX43Y43*%
%MOMM*%
G71*
G01*
G75*
%ADD10C,0.250*%
%ADD88R,0.500X2.000*%
%ADD89R,0.350X2.300*%
%ADD90R,1.300X0.350*%
%ADD91R,0.400X0.950*%
G36*
X263936Y-109572D02*
X263966D01*
X264036Y-109579D01*
X264114Y-109590D01*
X264195Y-109609D01*
X264284Y-109631D01*
X264369Y-109660D01*
X264373D01*
X264380Y-109664D01*
X264391Y-109668D01*
X264406Y-109675D01*
X264447Y-109697D01*
X264499Y-109723D01*
X264554Y-109760D01*
X264614Y-109805D01*
X264669Y-109853D01*
X264721Y-109912D01*
X264728Y-109920D01*
X264743Y-109942D01*
X264765Y-109975D01*
X264795Y-110023D01*
X264825Y-110083D01*
X264858Y-110157D01*
X264891Y-110238D01*
X264917Y-110331D01*
X264610Y-110412D01*
Y-110409D01*
X264606Y-110405D01*
X264602Y-110394D01*
X264599Y-110379D01*
X264588Y-110346D01*
X264573Y-110301D01*
X264551Y-110249D01*
X264525Y-110201D01*
X264499Y-110149D01*
X264465Y-110105D01*
X264462Y-110101D01*
X264451Y-110086D01*
X264428Y-110068D01*
X264402Y-110042D01*
X264369Y-110012D01*
X264325Y-109983D01*
X264277Y-109953D01*
X264221Y-109927D01*
X264214Y-109923D01*
X264195Y-109916D01*
X264162Y-109905D01*
X264117Y-109890D01*
X264065Y-109879D01*
X264006Y-109868D01*
X263940Y-109860D01*
X263869Y-109857D01*
X263828D01*
X263810Y-109860D01*
X263788D01*
X263732Y-109864D01*
X263669Y-109875D01*
X263599Y-109886D01*
X263532Y-109905D01*
X263466Y-109931D01*
X263458Y-109934D01*
X263436Y-109942D01*
X263406Y-109960D01*
X263369Y-109979D01*
X263325Y-110009D01*
X263277Y-110038D01*
X263232Y-110075D01*
X263192Y-110116D01*
X263188Y-110120D01*
X263173Y-110134D01*
X263154Y-110160D01*
X263132Y-110190D01*
X263106Y-110227D01*
X263080Y-110271D01*
X263055Y-110320D01*
X263029Y-110371D01*
Y-110375D01*
X263025Y-110383D01*
X263021Y-110394D01*
X263014Y-110412D01*
X263006Y-110434D01*
X262999Y-110460D01*
X262988Y-110490D01*
X262980Y-110523D01*
X262962Y-110601D01*
X262947Y-110690D01*
X262936Y-110783D01*
X262932Y-110886D01*
Y-110890D01*
Y-110901D01*
Y-110920D01*
X262936Y-110942D01*
Y-110971D01*
X262940Y-111008D01*
X262943Y-111045D01*
X262947Y-111086D01*
X262962Y-111179D01*
X262980Y-111275D01*
X263010Y-111371D01*
X263047Y-111464D01*
Y-111468D01*
X263055Y-111475D01*
X263058Y-111486D01*
X263069Y-111501D01*
X263095Y-111542D01*
X263136Y-111594D01*
X263184Y-111649D01*
X263243Y-111705D01*
X263314Y-111757D01*
X263392Y-111805D01*
X263395D01*
X263403Y-111808D01*
X263414Y-111816D01*
X263432Y-111823D01*
X263451Y-111831D01*
X263477Y-111838D01*
X263536Y-111860D01*
X263610Y-111879D01*
X263691Y-111897D01*
X263780Y-111912D01*
X263873Y-111916D01*
X263910D01*
X263932Y-111912D01*
X263954D01*
X264010Y-111905D01*
X264077Y-111897D01*
X264147Y-111882D01*
X264225Y-111860D01*
X264303Y-111834D01*
X264306D01*
X264314Y-111831D01*
X264321Y-111827D01*
X264336Y-111819D01*
X264377Y-111801D01*
X264421Y-111779D01*
X264473Y-111753D01*
X264528Y-111723D01*
X264580Y-111690D01*
X264625Y-111653D01*
Y-111171D01*
X263869D01*
Y-110868D01*
X264958D01*
Y-111819D01*
X264954Y-111823D01*
X264947Y-111827D01*
X264932Y-111838D01*
X264914Y-111853D01*
X264891Y-111868D01*
X264865Y-111886D01*
X264832Y-111908D01*
X264799Y-111931D01*
X264721Y-111979D01*
X264632Y-112031D01*
X264540Y-112079D01*
X264440Y-112119D01*
X264436D01*
X264428Y-112123D01*
X264414Y-112127D01*
X264395Y-112134D01*
X264369Y-112142D01*
X264340Y-112153D01*
X264306Y-112160D01*
X264273Y-112168D01*
X264191Y-112186D01*
X264099Y-112205D01*
X263999Y-112216D01*
X263895Y-112219D01*
X263858D01*
X263832Y-112216D01*
X263799D01*
X263758Y-112212D01*
X263714Y-112205D01*
X263666Y-112201D01*
X263558Y-112179D01*
X263443Y-112153D01*
X263325Y-112112D01*
X263266Y-112090D01*
X263206Y-112060D01*
X263203Y-112056D01*
X263192Y-112053D01*
X263177Y-112042D01*
X263154Y-112031D01*
X263129Y-112012D01*
X263103Y-111994D01*
X263032Y-111942D01*
X262958Y-111875D01*
X262880Y-111794D01*
X262806Y-111701D01*
X262740Y-111594D01*
Y-111590D01*
X262732Y-111579D01*
X262725Y-111564D01*
X262714Y-111538D01*
X262703Y-111512D01*
X262692Y-111475D01*
X262677Y-111438D01*
X262662Y-111394D01*
X262647Y-111345D01*
X262632Y-111290D01*
X262621Y-111234D01*
X262610Y-111175D01*
X262592Y-111045D01*
X262584Y-110908D01*
Y-110905D01*
Y-110890D01*
Y-110871D01*
X262588Y-110846D01*
Y-110812D01*
X262592Y-110771D01*
X262599Y-110731D01*
X262603Y-110683D01*
X262614Y-110631D01*
X262621Y-110575D01*
X262651Y-110457D01*
X262688Y-110334D01*
X262740Y-110212D01*
X262743Y-110209D01*
X262747Y-110197D01*
X262755Y-110183D01*
X262769Y-110160D01*
X262784Y-110131D01*
X262803Y-110101D01*
X262855Y-110031D01*
X262917Y-109949D01*
X262995Y-109872D01*
X263084Y-109794D01*
X263136Y-109760D01*
X263188Y-109727D01*
X263192Y-109723D01*
X263203Y-109720D01*
X263217Y-109712D01*
X263240Y-109701D01*
X263269Y-109690D01*
X263303Y-109675D01*
X263340Y-109660D01*
X263384Y-109646D01*
X263432Y-109631D01*
X263484Y-109620D01*
X263540Y-109605D01*
X263599Y-109594D01*
X263728Y-109575D01*
X263795Y-109568D01*
X263914D01*
X263936Y-109572D01*
D02*
G37*
G36*
X268758Y-110764D02*
X269454D01*
Y-111057D01*
X268758D01*
Y-111760D01*
X268461D01*
Y-111057D01*
X267765D01*
Y-110764D01*
X268461D01*
Y-110068D01*
X268758D01*
Y-110764D01*
D02*
G37*
G36*
X271046Y-109616D02*
X271109Y-109620D01*
X271176Y-109623D01*
X271239Y-109631D01*
X271294Y-109638D01*
X271302D01*
X271328Y-109646D01*
X271361Y-109653D01*
X271405Y-109664D01*
X271454Y-109683D01*
X271505Y-109705D01*
X271561Y-109731D01*
X271609Y-109760D01*
X271617Y-109764D01*
X271631Y-109775D01*
X271654Y-109797D01*
X271683Y-109823D01*
X271717Y-109857D01*
X271750Y-109901D01*
X271787Y-109949D01*
X271817Y-110005D01*
X271820Y-110012D01*
X271828Y-110031D01*
X271842Y-110064D01*
X271857Y-110109D01*
X271868Y-110160D01*
X271883Y-110220D01*
X271891Y-110286D01*
X271894Y-110357D01*
Y-110360D01*
Y-110371D01*
Y-110386D01*
X271891Y-110412D01*
X271887Y-110438D01*
X271883Y-110471D01*
X271876Y-110509D01*
X271868Y-110549D01*
X271842Y-110634D01*
X271828Y-110679D01*
X271805Y-110727D01*
X271780Y-110775D01*
X271754Y-110820D01*
X271720Y-110864D01*
X271683Y-110908D01*
X271680Y-110912D01*
X271672Y-110920D01*
X271661Y-110931D01*
X271642Y-110942D01*
X271620Y-110960D01*
X271591Y-110979D01*
X271554Y-111001D01*
X271513Y-111020D01*
X271465Y-111042D01*
X271409Y-111064D01*
X271350Y-111083D01*
X271280Y-111097D01*
X271206Y-111112D01*
X271124Y-111123D01*
X271031Y-111131D01*
X270935Y-111134D01*
X270280D01*
Y-112175D01*
X269939D01*
Y-109612D01*
X270991D01*
X271046Y-109616D01*
D02*
G37*
G36*
X266476D02*
X266506D01*
X266573Y-109623D01*
X266647Y-109631D01*
X266724Y-109646D01*
X266802Y-109664D01*
X266873Y-109690D01*
X266876D01*
X266880Y-109694D01*
X266902Y-109705D01*
X266936Y-109723D01*
X266973Y-109749D01*
X267017Y-109783D01*
X267065Y-109823D01*
X267110Y-109875D01*
X267150Y-109931D01*
X267154Y-109938D01*
X267165Y-109960D01*
X267184Y-109990D01*
X267202Y-110034D01*
X267221Y-110086D01*
X267239Y-110142D01*
X267250Y-110205D01*
X267254Y-110268D01*
Y-110275D01*
Y-110294D01*
X267250Y-110327D01*
X267243Y-110368D01*
X267232Y-110416D01*
X267213Y-110468D01*
X267191Y-110520D01*
X267161Y-110575D01*
X267158Y-110583D01*
X267147Y-110597D01*
X267124Y-110627D01*
X267095Y-110657D01*
X267058Y-110694D01*
X267013Y-110734D01*
X266958Y-110771D01*
X266895Y-110808D01*
X266899D01*
X266906Y-110812D01*
X266917Y-110816D01*
X266932Y-110823D01*
X266976Y-110838D01*
X267028Y-110864D01*
X267084Y-110897D01*
X267147Y-110938D01*
X267202Y-110986D01*
X267254Y-111045D01*
X267258Y-111053D01*
X267273Y-111075D01*
X267295Y-111108D01*
X267317Y-111153D01*
X267339Y-111212D01*
X267361Y-111275D01*
X267376Y-111349D01*
X267380Y-111431D01*
Y-111434D01*
Y-111438D01*
Y-111460D01*
X267376Y-111497D01*
X267369Y-111542D01*
X267361Y-111594D01*
X267347Y-111649D01*
X267328Y-111708D01*
X267302Y-111768D01*
X267298Y-111775D01*
X267287Y-111794D01*
X267273Y-111819D01*
X267250Y-111857D01*
X267221Y-111894D01*
X267191Y-111934D01*
X267154Y-111975D01*
X267113Y-112008D01*
X267110Y-112012D01*
X267095Y-112023D01*
X267069Y-112038D01*
X267036Y-112053D01*
X266995Y-112075D01*
X266947Y-112097D01*
X266895Y-112116D01*
X266832Y-112134D01*
X266824D01*
X266802Y-112142D01*
X266765Y-112145D01*
X266717Y-112153D01*
X266658Y-112160D01*
X266587Y-112168D01*
X266510Y-112171D01*
X266421Y-112175D01*
X265443D01*
Y-109612D01*
X266450D01*
X266476Y-109616D01*
D02*
G37*
G36*
X262084Y-112175D02*
X261725D01*
Y-111816D01*
X262084D01*
Y-112175D01*
D02*
G37*
G36*
X208104Y-110236D02*
X208130D01*
X208156Y-110239D01*
X208218Y-110250D01*
X208285Y-110269D01*
X208355Y-110299D01*
X208426Y-110336D01*
X208485Y-110387D01*
X208493Y-110395D01*
X208507Y-110417D01*
X208533Y-110450D01*
X208544Y-110476D01*
X208559Y-110502D01*
X208574Y-110536D01*
X208585Y-110569D01*
X208600Y-110606D01*
X208611Y-110650D01*
X208618Y-110695D01*
X208626Y-110747D01*
X208633Y-110798D01*
Y-110858D01*
Y-112132D01*
X208318D01*
Y-110965D01*
Y-110961D01*
Y-110958D01*
Y-110936D01*
Y-110902D01*
X208315Y-110861D01*
X208311Y-110817D01*
X208307Y-110773D01*
X208300Y-110728D01*
X208289Y-110695D01*
Y-110691D01*
X208281Y-110680D01*
X208274Y-110665D01*
X208263Y-110647D01*
X208248Y-110624D01*
X208230Y-110602D01*
X208207Y-110580D01*
X208178Y-110558D01*
X208174Y-110554D01*
X208163Y-110550D01*
X208148Y-110543D01*
X208122Y-110532D01*
X208096Y-110521D01*
X208063Y-110513D01*
X208030Y-110510D01*
X207989Y-110506D01*
X207970D01*
X207956Y-110510D01*
X207919Y-110513D01*
X207874Y-110521D01*
X207822Y-110539D01*
X207767Y-110561D01*
X207711Y-110595D01*
X207659Y-110639D01*
X207656Y-110647D01*
X207641Y-110665D01*
X207619Y-110695D01*
X207596Y-110739D01*
X207570Y-110798D01*
X207552Y-110869D01*
X207537Y-110954D01*
X207530Y-111054D01*
Y-112132D01*
X207215D01*
Y-110928D01*
Y-110924D01*
Y-110917D01*
Y-110910D01*
Y-110895D01*
X207211Y-110854D01*
X207204Y-110810D01*
X207196Y-110758D01*
X207182Y-110706D01*
X207163Y-110658D01*
X207137Y-110613D01*
X207133Y-110610D01*
X207122Y-110595D01*
X207104Y-110580D01*
X207078Y-110558D01*
X207045Y-110539D01*
X207000Y-110521D01*
X206948Y-110510D01*
X206885Y-110506D01*
X206863D01*
X206837Y-110510D01*
X206808Y-110513D01*
X206770Y-110524D01*
X206726Y-110536D01*
X206685Y-110554D01*
X206641Y-110576D01*
X206637Y-110580D01*
X206622Y-110591D01*
X206604Y-110606D01*
X206578Y-110628D01*
X206552Y-110658D01*
X206526Y-110695D01*
X206500Y-110736D01*
X206478Y-110784D01*
X206474Y-110791D01*
X206471Y-110810D01*
X206463Y-110839D01*
X206452Y-110880D01*
X206441Y-110936D01*
X206433Y-111002D01*
X206430Y-111080D01*
X206426Y-111169D01*
Y-112132D01*
X206111D01*
Y-110273D01*
X206393D01*
Y-110539D01*
X206396Y-110532D01*
X206408Y-110517D01*
X206430Y-110491D01*
X206456Y-110461D01*
X206489Y-110424D01*
X206530Y-110387D01*
X206574Y-110350D01*
X206626Y-110317D01*
X206633Y-110313D01*
X206652Y-110302D01*
X206682Y-110291D01*
X206722Y-110273D01*
X206770Y-110258D01*
X206826Y-110247D01*
X206889Y-110236D01*
X206956Y-110232D01*
X206989D01*
X207030Y-110236D01*
X207074Y-110243D01*
X207130Y-110254D01*
X207185Y-110269D01*
X207241Y-110291D01*
X207293Y-110321D01*
X207300Y-110324D01*
X207315Y-110336D01*
X207337Y-110354D01*
X207367Y-110384D01*
X207396Y-110417D01*
X207430Y-110458D01*
X207459Y-110506D01*
X207482Y-110561D01*
X207485Y-110558D01*
X207493Y-110547D01*
X207504Y-110532D01*
X207522Y-110510D01*
X207544Y-110484D01*
X207570Y-110458D01*
X207600Y-110428D01*
X207637Y-110395D01*
X207678Y-110365D01*
X207719Y-110336D01*
X207767Y-110310D01*
X207819Y-110284D01*
X207874Y-110261D01*
X207933Y-110247D01*
X207993Y-110236D01*
X208059Y-110232D01*
X208085D01*
X208104Y-110236D01*
D02*
G37*
G36*
X215162D02*
X215218Y-110239D01*
X215277Y-110247D01*
X215340Y-110261D01*
X215407Y-110276D01*
X215470Y-110299D01*
X215473D01*
X215477Y-110302D01*
X215495Y-110310D01*
X215525Y-110324D01*
X215562Y-110343D01*
X215603Y-110369D01*
X215644Y-110399D01*
X215681Y-110432D01*
X215714Y-110469D01*
X215718Y-110473D01*
X215725Y-110487D01*
X215740Y-110513D01*
X215758Y-110543D01*
X215777Y-110587D01*
X215795Y-110636D01*
X215810Y-110691D01*
X215825Y-110754D01*
X215518Y-110795D01*
Y-110787D01*
X215514Y-110773D01*
X215507Y-110747D01*
X215495Y-110713D01*
X215477Y-110680D01*
X215455Y-110643D01*
X215429Y-110606D01*
X215392Y-110573D01*
X215388Y-110569D01*
X215373Y-110561D01*
X215351Y-110547D01*
X215318Y-110532D01*
X215281Y-110517D01*
X215233Y-110502D01*
X215173Y-110495D01*
X215110Y-110491D01*
X215073D01*
X215036Y-110495D01*
X214988Y-110499D01*
X214940Y-110510D01*
X214888Y-110521D01*
X214840Y-110539D01*
X214799Y-110565D01*
X214796Y-110569D01*
X214784Y-110576D01*
X214770Y-110591D01*
X214755Y-110613D01*
X214736Y-110636D01*
X214721Y-110665D01*
X214710Y-110698D01*
X214707Y-110732D01*
Y-110736D01*
Y-110743D01*
X214710Y-110754D01*
Y-110769D01*
X214721Y-110806D01*
X214744Y-110843D01*
X214747Y-110847D01*
X214751Y-110850D01*
X214759Y-110861D01*
X214773Y-110873D01*
X214788Y-110884D01*
X214810Y-110898D01*
X214836Y-110910D01*
X214866Y-110924D01*
X214870D01*
X214877Y-110928D01*
X214892Y-110932D01*
X214918Y-110943D01*
X214955Y-110954D01*
X215003Y-110965D01*
X215033Y-110976D01*
X215066Y-110984D01*
X215103Y-110995D01*
X215144Y-111006D01*
X215147D01*
X215158Y-111010D01*
X215177Y-111013D01*
X215199Y-111021D01*
X215225Y-111028D01*
X215258Y-111035D01*
X215329Y-111058D01*
X215407Y-111080D01*
X215484Y-111106D01*
X215555Y-111132D01*
X215584Y-111143D01*
X215610Y-111154D01*
X215618Y-111158D01*
X215633Y-111165D01*
X215655Y-111176D01*
X215688Y-111195D01*
X215721Y-111217D01*
X215755Y-111247D01*
X215788Y-111280D01*
X215818Y-111317D01*
X215821Y-111321D01*
X215829Y-111335D01*
X215844Y-111358D01*
X215858Y-111391D01*
X215870Y-111432D01*
X215884Y-111476D01*
X215892Y-111528D01*
X215895Y-111587D01*
Y-111595D01*
Y-111613D01*
X215892Y-111643D01*
X215884Y-111684D01*
X215873Y-111728D01*
X215855Y-111776D01*
X215833Y-111832D01*
X215803Y-111884D01*
X215799Y-111891D01*
X215784Y-111906D01*
X215766Y-111932D01*
X215736Y-111961D01*
X215695Y-111995D01*
X215651Y-112032D01*
X215599Y-112065D01*
X215536Y-112098D01*
X215533D01*
X215529Y-112102D01*
X215507Y-112109D01*
X215470Y-112121D01*
X215421Y-112135D01*
X215362Y-112150D01*
X215296Y-112161D01*
X215225Y-112169D01*
X215144Y-112172D01*
X215110D01*
X215084Y-112169D01*
X215055D01*
X215018Y-112165D01*
X214981Y-112161D01*
X214940Y-112154D01*
X214851Y-112135D01*
X214759Y-112109D01*
X214670Y-112072D01*
X214629Y-112050D01*
X214592Y-112024D01*
X214588Y-112021D01*
X214584Y-112017D01*
X214562Y-111995D01*
X214529Y-111961D01*
X214492Y-111909D01*
X214451Y-111847D01*
X214410Y-111772D01*
X214377Y-111680D01*
X214351Y-111576D01*
X214662Y-111528D01*
Y-111532D01*
Y-111535D01*
X214670Y-111558D01*
X214677Y-111595D01*
X214692Y-111635D01*
X214710Y-111680D01*
X214733Y-111728D01*
X214766Y-111776D01*
X214807Y-111817D01*
X214814Y-111821D01*
X214829Y-111832D01*
X214859Y-111847D01*
X214896Y-111865D01*
X214944Y-111884D01*
X214999Y-111898D01*
X215066Y-111909D01*
X215144Y-111913D01*
X215181D01*
X215218Y-111909D01*
X215266Y-111902D01*
X215318Y-111891D01*
X215373Y-111876D01*
X215421Y-111858D01*
X215466Y-111828D01*
X215470Y-111824D01*
X215484Y-111813D01*
X215499Y-111795D01*
X215521Y-111769D01*
X215540Y-111739D01*
X215558Y-111702D01*
X215570Y-111665D01*
X215573Y-111621D01*
Y-111617D01*
Y-111602D01*
X215570Y-111584D01*
X215562Y-111558D01*
X215551Y-111532D01*
X215533Y-111506D01*
X215510Y-111476D01*
X215477Y-111454D01*
X215473Y-111450D01*
X215462Y-111447D01*
X215444Y-111435D01*
X215414Y-111424D01*
X215370Y-111410D01*
X215344Y-111398D01*
X215314Y-111391D01*
X215281Y-111380D01*
X215244Y-111369D01*
X215203Y-111358D01*
X215155Y-111347D01*
X215151D01*
X215140Y-111343D01*
X215121Y-111339D01*
X215099Y-111332D01*
X215070Y-111324D01*
X215036Y-111313D01*
X214966Y-111295D01*
X214884Y-111269D01*
X214807Y-111247D01*
X214733Y-111221D01*
X214699Y-111206D01*
X214673Y-111195D01*
X214666Y-111191D01*
X214651Y-111184D01*
X214629Y-111169D01*
X214599Y-111150D01*
X214566Y-111124D01*
X214533Y-111095D01*
X214499Y-111061D01*
X214470Y-111021D01*
X214466Y-111017D01*
X214459Y-111002D01*
X214447Y-110976D01*
X214436Y-110947D01*
X214425Y-110910D01*
X214414Y-110865D01*
X214407Y-110821D01*
X214403Y-110769D01*
Y-110761D01*
Y-110747D01*
X214407Y-110724D01*
X214410Y-110691D01*
X214418Y-110658D01*
X214425Y-110617D01*
X214440Y-110580D01*
X214459Y-110539D01*
X214462Y-110536D01*
X214470Y-110521D01*
X214481Y-110502D01*
X214499Y-110476D01*
X214522Y-110450D01*
X214547Y-110417D01*
X214577Y-110387D01*
X214614Y-110361D01*
X214618Y-110358D01*
X214629Y-110354D01*
X214644Y-110343D01*
X214666Y-110332D01*
X214696Y-110317D01*
X214729Y-110302D01*
X214770Y-110287D01*
X214814Y-110273D01*
X214821Y-110269D01*
X214836Y-110265D01*
X214862Y-110258D01*
X214896Y-110250D01*
X214936Y-110243D01*
X214981Y-110239D01*
X215033Y-110232D01*
X215121D01*
X215162Y-110236D01*
D02*
G37*
G36*
X213351D02*
X213407Y-110239D01*
X213470Y-110247D01*
X213533Y-110258D01*
X213596Y-110273D01*
X213655Y-110291D01*
X213662Y-110295D01*
X213681Y-110302D01*
X213707Y-110313D01*
X213740Y-110328D01*
X213777Y-110350D01*
X213814Y-110373D01*
X213848Y-110402D01*
X213877Y-110432D01*
X213881Y-110436D01*
X213888Y-110447D01*
X213899Y-110465D01*
X213914Y-110487D01*
X213933Y-110521D01*
X213948Y-110554D01*
X213962Y-110595D01*
X213973Y-110643D01*
Y-110647D01*
X213977Y-110658D01*
X213981Y-110680D01*
X213985Y-110710D01*
Y-110750D01*
X213988Y-110798D01*
X213992Y-110861D01*
Y-110932D01*
Y-111354D01*
Y-111358D01*
Y-111372D01*
Y-111395D01*
Y-111424D01*
Y-111458D01*
Y-111498D01*
X213996Y-111587D01*
Y-111680D01*
X213999Y-111772D01*
X214003Y-111813D01*
Y-111850D01*
X214007Y-111884D01*
X214010Y-111909D01*
Y-111913D01*
X214014Y-111928D01*
X214018Y-111950D01*
X214029Y-111980D01*
X214036Y-112013D01*
X214051Y-112050D01*
X214070Y-112091D01*
X214088Y-112132D01*
X213759D01*
X213755Y-112128D01*
X213751Y-112113D01*
X213744Y-112095D01*
X213733Y-112065D01*
X213722Y-112032D01*
X213714Y-111991D01*
X213707Y-111947D01*
X213699Y-111898D01*
X213696D01*
X213692Y-111906D01*
X213670Y-111924D01*
X213636Y-111950D01*
X213592Y-111984D01*
X213536Y-112017D01*
X213481Y-112054D01*
X213422Y-112087D01*
X213359Y-112113D01*
X213351Y-112117D01*
X213329Y-112121D01*
X213296Y-112132D01*
X213255Y-112143D01*
X213203Y-112154D01*
X213144Y-112161D01*
X213077Y-112169D01*
X213011Y-112172D01*
X212981D01*
X212959Y-112169D01*
X212933D01*
X212903Y-112165D01*
X212837Y-112154D01*
X212762Y-112135D01*
X212681Y-112109D01*
X212607Y-112072D01*
X212540Y-112024D01*
X212533Y-112017D01*
X212514Y-111998D01*
X212488Y-111965D01*
X212459Y-111921D01*
X212429Y-111865D01*
X212403Y-111802D01*
X212385Y-111724D01*
X212381Y-111687D01*
X212377Y-111643D01*
Y-111635D01*
Y-111621D01*
X212381Y-111595D01*
X212385Y-111561D01*
X212392Y-111521D01*
X212403Y-111480D01*
X212418Y-111435D01*
X212437Y-111395D01*
X212440Y-111391D01*
X212448Y-111376D01*
X212462Y-111354D01*
X212481Y-111328D01*
X212503Y-111298D01*
X212533Y-111269D01*
X212562Y-111239D01*
X212600Y-111213D01*
X212603Y-111210D01*
X212618Y-111202D01*
X212637Y-111187D01*
X212666Y-111173D01*
X212699Y-111158D01*
X212740Y-111139D01*
X212781Y-111124D01*
X212829Y-111110D01*
X212833D01*
X212848Y-111106D01*
X212870Y-111098D01*
X212899Y-111095D01*
X212936Y-111087D01*
X212985Y-111080D01*
X213040Y-111069D01*
X213107Y-111061D01*
X213111D01*
X213125Y-111058D01*
X213144D01*
X213170Y-111054D01*
X213199Y-111050D01*
X213236Y-111043D01*
X213277Y-111039D01*
X213322Y-111032D01*
X213411Y-111013D01*
X213507Y-110995D01*
X213592Y-110973D01*
X213633Y-110961D01*
X213670Y-110950D01*
Y-110947D01*
Y-110939D01*
X213673Y-110917D01*
Y-110891D01*
Y-110876D01*
Y-110869D01*
Y-110865D01*
Y-110861D01*
Y-110839D01*
X213670Y-110802D01*
X213662Y-110761D01*
X213651Y-110717D01*
X213633Y-110673D01*
X213611Y-110632D01*
X213581Y-110599D01*
X213577Y-110595D01*
X213559Y-110580D01*
X213529Y-110565D01*
X213492Y-110543D01*
X213440Y-110524D01*
X213381Y-110506D01*
X213307Y-110495D01*
X213222Y-110491D01*
X213185D01*
X213148Y-110495D01*
X213096Y-110502D01*
X213044Y-110510D01*
X212988Y-110524D01*
X212936Y-110543D01*
X212892Y-110569D01*
X212888Y-110573D01*
X212874Y-110584D01*
X212855Y-110602D01*
X212833Y-110632D01*
X212811Y-110669D01*
X212785Y-110717D01*
X212762Y-110776D01*
X212740Y-110843D01*
X212433Y-110802D01*
Y-110798D01*
X212437Y-110795D01*
Y-110784D01*
X212440Y-110769D01*
X212451Y-110736D01*
X212466Y-110687D01*
X212485Y-110639D01*
X212507Y-110587D01*
X212537Y-110536D01*
X212570Y-110487D01*
X212574Y-110484D01*
X212588Y-110469D01*
X212611Y-110447D01*
X212640Y-110417D01*
X212681Y-110387D01*
X212729Y-110358D01*
X212785Y-110324D01*
X212848Y-110299D01*
X212851D01*
X212855Y-110295D01*
X212866Y-110291D01*
X212881Y-110287D01*
X212918Y-110276D01*
X212970Y-110265D01*
X213029Y-110254D01*
X213103Y-110243D01*
X213181Y-110236D01*
X213270Y-110232D01*
X213311D01*
X213351Y-110236D01*
D02*
G37*
G36*
X211244Y-109573D02*
X211307Y-109576D01*
X211374Y-109580D01*
X211437Y-109588D01*
X211492Y-109595D01*
X211500D01*
X211526Y-109602D01*
X211559Y-109610D01*
X211603Y-109621D01*
X211651Y-109639D01*
X211703Y-109662D01*
X211759Y-109687D01*
X211807Y-109717D01*
X211814Y-109721D01*
X211829Y-109732D01*
X211851Y-109754D01*
X211881Y-109780D01*
X211914Y-109813D01*
X211948Y-109858D01*
X211985Y-109906D01*
X212014Y-109962D01*
X212018Y-109969D01*
X212025Y-109987D01*
X212040Y-110021D01*
X212055Y-110065D01*
X212066Y-110117D01*
X212081Y-110176D01*
X212088Y-110243D01*
X212092Y-110313D01*
Y-110317D01*
Y-110328D01*
Y-110343D01*
X212088Y-110369D01*
X212085Y-110395D01*
X212081Y-110428D01*
X212074Y-110465D01*
X212066Y-110506D01*
X212040Y-110591D01*
X212025Y-110636D01*
X212003Y-110684D01*
X211977Y-110732D01*
X211951Y-110776D01*
X211918Y-110821D01*
X211881Y-110865D01*
X211877Y-110869D01*
X211870Y-110876D01*
X211859Y-110887D01*
X211840Y-110898D01*
X211818Y-110917D01*
X211788Y-110936D01*
X211751Y-110958D01*
X211711Y-110976D01*
X211663Y-110998D01*
X211607Y-111021D01*
X211548Y-111039D01*
X211477Y-111054D01*
X211403Y-111069D01*
X211322Y-111080D01*
X211229Y-111087D01*
X211133Y-111091D01*
X210477D01*
Y-112132D01*
X210137D01*
Y-109569D01*
X211189D01*
X211244Y-109573D01*
D02*
G37*
G36*
X198808D02*
X198838D01*
X198905Y-109580D01*
X198979Y-109588D01*
X199056Y-109602D01*
X199134Y-109621D01*
X199205Y-109647D01*
X199208D01*
X199212Y-109650D01*
X199234Y-109662D01*
X199268Y-109680D01*
X199305Y-109706D01*
X199349Y-109739D01*
X199397Y-109780D01*
X199442Y-109832D01*
X199482Y-109887D01*
X199486Y-109895D01*
X199497Y-109917D01*
X199516Y-109947D01*
X199534Y-109991D01*
X199553Y-110043D01*
X199571Y-110099D01*
X199582Y-110162D01*
X199586Y-110224D01*
Y-110232D01*
Y-110250D01*
X199582Y-110284D01*
X199575Y-110324D01*
X199564Y-110373D01*
X199545Y-110424D01*
X199523Y-110476D01*
X199493Y-110532D01*
X199490Y-110539D01*
X199479Y-110554D01*
X199456Y-110584D01*
X199427Y-110613D01*
X199390Y-110650D01*
X199345Y-110691D01*
X199290Y-110728D01*
X199227Y-110765D01*
X199231D01*
X199238Y-110769D01*
X199249Y-110773D01*
X199264Y-110780D01*
X199308Y-110795D01*
X199360Y-110821D01*
X199416Y-110854D01*
X199479Y-110895D01*
X199534Y-110943D01*
X199586Y-111002D01*
X199590Y-111010D01*
X199605Y-111032D01*
X199627Y-111065D01*
X199649Y-111110D01*
X199671Y-111169D01*
X199693Y-111232D01*
X199708Y-111306D01*
X199712Y-111387D01*
Y-111391D01*
Y-111395D01*
Y-111417D01*
X199708Y-111454D01*
X199701Y-111498D01*
X199693Y-111550D01*
X199679Y-111606D01*
X199660Y-111665D01*
X199634Y-111724D01*
X199630Y-111732D01*
X199619Y-111750D01*
X199605Y-111776D01*
X199582Y-111813D01*
X199553Y-111850D01*
X199523Y-111891D01*
X199486Y-111932D01*
X199445Y-111965D01*
X199442Y-111969D01*
X199427Y-111980D01*
X199401Y-111995D01*
X199368Y-112009D01*
X199327Y-112032D01*
X199279Y-112054D01*
X199227Y-112072D01*
X199164Y-112091D01*
X199156D01*
X199134Y-112098D01*
X199097Y-112102D01*
X199049Y-112109D01*
X198990Y-112117D01*
X198919Y-112124D01*
X198842Y-112128D01*
X198753Y-112132D01*
X197775D01*
Y-109569D01*
X198782D01*
X198808Y-109573D01*
D02*
G37*
G36*
X216636Y-110273D02*
X216955D01*
Y-110517D01*
X216636D01*
Y-111610D01*
Y-111617D01*
Y-111632D01*
Y-111654D01*
X216640Y-111680D01*
X216644Y-111739D01*
X216647Y-111765D01*
X216651Y-111784D01*
X216655Y-111791D01*
X216666Y-111806D01*
X216681Y-111824D01*
X216706Y-111843D01*
X216714Y-111847D01*
X216732Y-111854D01*
X216766Y-111861D01*
X216814Y-111865D01*
X216851D01*
X216869Y-111861D01*
X216895D01*
X216925Y-111858D01*
X216955Y-111854D01*
X216995Y-112132D01*
X216988D01*
X216973Y-112135D01*
X216947Y-112139D01*
X216914Y-112143D01*
X216877Y-112150D01*
X216836Y-112154D01*
X216755Y-112158D01*
X216725D01*
X216695Y-112154D01*
X216658Y-112150D01*
X216614Y-112146D01*
X216569Y-112135D01*
X216529Y-112124D01*
X216488Y-112106D01*
X216484Y-112102D01*
X216473Y-112095D01*
X216458Y-112084D01*
X216436Y-112065D01*
X216418Y-112047D01*
X216395Y-112021D01*
X216373Y-111995D01*
X216358Y-111961D01*
Y-111958D01*
X216351Y-111943D01*
X216347Y-111917D01*
X216340Y-111880D01*
X216332Y-111832D01*
X216329Y-111802D01*
Y-111769D01*
X216325Y-111728D01*
X216321Y-111687D01*
Y-111643D01*
Y-111591D01*
Y-110517D01*
X216088D01*
Y-110273D01*
X216321D01*
Y-109813D01*
X216636Y-109625D01*
Y-110273D01*
D02*
G37*
G36*
X203493D02*
X203812D01*
Y-110517D01*
X203493D01*
Y-111610D01*
Y-111617D01*
Y-111632D01*
Y-111654D01*
X203497Y-111680D01*
X203500Y-111739D01*
X203504Y-111765D01*
X203508Y-111784D01*
X203512Y-111791D01*
X203523Y-111806D01*
X203537Y-111824D01*
X203563Y-111843D01*
X203571Y-111847D01*
X203589Y-111854D01*
X203623Y-111861D01*
X203671Y-111865D01*
X203708D01*
X203726Y-111861D01*
X203752D01*
X203782Y-111858D01*
X203812Y-111854D01*
X203852Y-112132D01*
X203845D01*
X203830Y-112135D01*
X203804Y-112139D01*
X203771Y-112143D01*
X203734Y-112150D01*
X203693Y-112154D01*
X203612Y-112158D01*
X203582D01*
X203552Y-112154D01*
X203515Y-112150D01*
X203471Y-112146D01*
X203426Y-112135D01*
X203386Y-112124D01*
X203345Y-112106D01*
X203341Y-112102D01*
X203330Y-112095D01*
X203315Y-112084D01*
X203293Y-112065D01*
X203275Y-112047D01*
X203252Y-112021D01*
X203230Y-111995D01*
X203215Y-111961D01*
Y-111958D01*
X203208Y-111943D01*
X203204Y-111917D01*
X203197Y-111880D01*
X203189Y-111832D01*
X203186Y-111802D01*
Y-111769D01*
X203182Y-111728D01*
X203178Y-111687D01*
Y-111643D01*
Y-111591D01*
Y-110517D01*
X202945D01*
Y-110273D01*
X203178D01*
Y-109813D01*
X203493Y-109625D01*
Y-110273D01*
D02*
G37*
G36*
X202497D02*
X202815D01*
Y-110517D01*
X202497D01*
Y-111610D01*
Y-111617D01*
Y-111632D01*
Y-111654D01*
X202501Y-111680D01*
X202504Y-111739D01*
X202508Y-111765D01*
X202512Y-111784D01*
X202515Y-111791D01*
X202526Y-111806D01*
X202541Y-111824D01*
X202567Y-111843D01*
X202575Y-111847D01*
X202593Y-111854D01*
X202626Y-111861D01*
X202675Y-111865D01*
X202712D01*
X202730Y-111861D01*
X202756D01*
X202786Y-111858D01*
X202815Y-111854D01*
X202856Y-112132D01*
X202849D01*
X202834Y-112135D01*
X202808Y-112139D01*
X202775Y-112143D01*
X202738Y-112150D01*
X202697Y-112154D01*
X202615Y-112158D01*
X202586D01*
X202556Y-112154D01*
X202519Y-112150D01*
X202475Y-112146D01*
X202430Y-112135D01*
X202389Y-112124D01*
X202349Y-112106D01*
X202345Y-112102D01*
X202334Y-112095D01*
X202319Y-112084D01*
X202297Y-112065D01*
X202278Y-112047D01*
X202256Y-112021D01*
X202234Y-111995D01*
X202219Y-111961D01*
Y-111958D01*
X202212Y-111943D01*
X202208Y-111917D01*
X202201Y-111880D01*
X202193Y-111832D01*
X202189Y-111802D01*
Y-111769D01*
X202186Y-111728D01*
X202182Y-111687D01*
Y-111643D01*
Y-111591D01*
Y-110517D01*
X201949D01*
Y-110273D01*
X202182D01*
Y-109813D01*
X202497Y-109625D01*
Y-110273D01*
D02*
G37*
G36*
X218088Y-110236D02*
X218117Y-110239D01*
X218154Y-110247D01*
X218195Y-110254D01*
X218243Y-110265D01*
X218288Y-110276D01*
X218340Y-110295D01*
X218388Y-110313D01*
X218440Y-110339D01*
X218491Y-110369D01*
X218543Y-110402D01*
X218591Y-110443D01*
X218636Y-110487D01*
X218640Y-110491D01*
X218647Y-110499D01*
X218658Y-110513D01*
X218673Y-110536D01*
X218691Y-110561D01*
X218710Y-110591D01*
X218732Y-110628D01*
X218754Y-110673D01*
X218777Y-110721D01*
X218799Y-110773D01*
X218817Y-110832D01*
X218836Y-110895D01*
X218851Y-110965D01*
X218862Y-111039D01*
X218869Y-111117D01*
X218873Y-111202D01*
Y-111206D01*
Y-111221D01*
Y-111247D01*
X218869Y-111284D01*
X217480D01*
Y-111287D01*
Y-111298D01*
X217484Y-111313D01*
Y-111335D01*
X217488Y-111361D01*
X217495Y-111391D01*
X217506Y-111458D01*
X217529Y-111532D01*
X217558Y-111613D01*
X217599Y-111687D01*
X217651Y-111754D01*
X217655D01*
X217658Y-111761D01*
X217680Y-111780D01*
X217714Y-111806D01*
X217758Y-111832D01*
X217817Y-111861D01*
X217884Y-111887D01*
X217958Y-111906D01*
X217999Y-111909D01*
X218043Y-111913D01*
X218073D01*
X218106Y-111909D01*
X218147Y-111902D01*
X218192Y-111891D01*
X218243Y-111876D01*
X218292Y-111854D01*
X218340Y-111824D01*
X218343Y-111821D01*
X218362Y-111806D01*
X218384Y-111784D01*
X218410Y-111754D01*
X218440Y-111713D01*
X218473Y-111661D01*
X218506Y-111602D01*
X218536Y-111532D01*
X218862Y-111572D01*
Y-111576D01*
X218858Y-111584D01*
X218854Y-111598D01*
X218847Y-111621D01*
X218836Y-111643D01*
X218825Y-111672D01*
X218795Y-111735D01*
X218758Y-111806D01*
X218706Y-111880D01*
X218647Y-111950D01*
X218573Y-112017D01*
X218569D01*
X218562Y-112024D01*
X218551Y-112032D01*
X218536Y-112043D01*
X218514Y-112054D01*
X218491Y-112065D01*
X218462Y-112080D01*
X218429Y-112095D01*
X218391Y-112109D01*
X218354Y-112124D01*
X218262Y-112146D01*
X218158Y-112165D01*
X218043Y-112172D01*
X218003D01*
X217977Y-112169D01*
X217943Y-112165D01*
X217903Y-112158D01*
X217858Y-112150D01*
X217810Y-112143D01*
X217706Y-112113D01*
X217651Y-112091D01*
X217599Y-112069D01*
X217543Y-112039D01*
X217492Y-112006D01*
X217443Y-111969D01*
X217395Y-111924D01*
X217392Y-111921D01*
X217384Y-111913D01*
X217373Y-111898D01*
X217358Y-111876D01*
X217340Y-111850D01*
X217321Y-111821D01*
X217299Y-111784D01*
X217277Y-111743D01*
X217255Y-111695D01*
X217232Y-111643D01*
X217214Y-111584D01*
X217195Y-111521D01*
X217181Y-111454D01*
X217169Y-111380D01*
X217162Y-111302D01*
X217158Y-111221D01*
Y-111217D01*
Y-111198D01*
Y-111176D01*
X217162Y-111143D01*
X217166Y-111102D01*
X217169Y-111058D01*
X217177Y-111006D01*
X217188Y-110954D01*
X217218Y-110836D01*
X217236Y-110776D01*
X217258Y-110713D01*
X217288Y-110654D01*
X217321Y-110599D01*
X217358Y-110543D01*
X217399Y-110491D01*
X217403Y-110487D01*
X217410Y-110480D01*
X217425Y-110469D01*
X217443Y-110450D01*
X217466Y-110432D01*
X217495Y-110410D01*
X217529Y-110384D01*
X217569Y-110361D01*
X217610Y-110336D01*
X217658Y-110313D01*
X217710Y-110291D01*
X217766Y-110273D01*
X217825Y-110254D01*
X217888Y-110243D01*
X217954Y-110236D01*
X218025Y-110232D01*
X218062D01*
X218088Y-110236D01*
D02*
G37*
G36*
X204937D02*
X204971Y-110239D01*
X205008Y-110247D01*
X205048Y-110254D01*
X205097Y-110261D01*
X205197Y-110295D01*
X205248Y-110313D01*
X205300Y-110339D01*
X205352Y-110365D01*
X205404Y-110402D01*
X205452Y-110439D01*
X205500Y-110484D01*
X205504Y-110487D01*
X205511Y-110495D01*
X205522Y-110510D01*
X205537Y-110528D01*
X205556Y-110554D01*
X205578Y-110587D01*
X205600Y-110624D01*
X205622Y-110665D01*
X205645Y-110710D01*
X205667Y-110765D01*
X205689Y-110821D01*
X205708Y-110884D01*
X205722Y-110950D01*
X205734Y-111021D01*
X205741Y-111095D01*
X205745Y-111176D01*
Y-111180D01*
Y-111191D01*
Y-111210D01*
Y-111235D01*
X205741Y-111265D01*
X205737Y-111302D01*
Y-111339D01*
X205730Y-111380D01*
X205719Y-111472D01*
X205697Y-111565D01*
X205671Y-111658D01*
X205634Y-111743D01*
Y-111747D01*
X205630Y-111750D01*
X205622Y-111761D01*
X205615Y-111776D01*
X205589Y-111813D01*
X205556Y-111858D01*
X205511Y-111909D01*
X205456Y-111961D01*
X205393Y-112013D01*
X205319Y-112061D01*
X205315D01*
X205311Y-112065D01*
X205300Y-112072D01*
X205282Y-112080D01*
X205263Y-112087D01*
X205241Y-112095D01*
X205185Y-112117D01*
X205122Y-112135D01*
X205045Y-112154D01*
X204963Y-112169D01*
X204874Y-112172D01*
X204837D01*
X204808Y-112169D01*
X204774Y-112165D01*
X204737Y-112158D01*
X204693Y-112150D01*
X204648Y-112143D01*
X204548Y-112113D01*
X204493Y-112091D01*
X204441Y-112069D01*
X204389Y-112039D01*
X204337Y-112006D01*
X204289Y-111969D01*
X204241Y-111924D01*
X204237Y-111921D01*
X204230Y-111913D01*
X204219Y-111898D01*
X204204Y-111876D01*
X204186Y-111850D01*
X204167Y-111821D01*
X204145Y-111784D01*
X204123Y-111739D01*
X204100Y-111691D01*
X204078Y-111635D01*
X204060Y-111576D01*
X204041Y-111513D01*
X204026Y-111443D01*
X204015Y-111369D01*
X204008Y-111287D01*
X204004Y-111202D01*
Y-111195D01*
Y-111180D01*
X204008Y-111154D01*
Y-111117D01*
X204012Y-111076D01*
X204019Y-111024D01*
X204026Y-110973D01*
X204041Y-110913D01*
X204056Y-110854D01*
X204074Y-110791D01*
X204097Y-110724D01*
X204126Y-110661D01*
X204156Y-110602D01*
X204197Y-110543D01*
X204237Y-110487D01*
X204289Y-110439D01*
X204293Y-110436D01*
X204300Y-110432D01*
X204315Y-110421D01*
X204334Y-110406D01*
X204356Y-110391D01*
X204386Y-110373D01*
X204415Y-110354D01*
X204452Y-110336D01*
X204493Y-110317D01*
X204537Y-110299D01*
X204637Y-110265D01*
X204752Y-110239D01*
X204811Y-110236D01*
X204874Y-110232D01*
X204911D01*
X204937Y-110236D01*
D02*
G37*
G36*
X200953D02*
X200986Y-110239D01*
X201023Y-110247D01*
X201064Y-110254D01*
X201112Y-110261D01*
X201212Y-110295D01*
X201264Y-110313D01*
X201315Y-110339D01*
X201367Y-110365D01*
X201419Y-110402D01*
X201467Y-110439D01*
X201515Y-110484D01*
X201519Y-110487D01*
X201527Y-110495D01*
X201538Y-110510D01*
X201553Y-110528D01*
X201571Y-110554D01*
X201593Y-110587D01*
X201615Y-110624D01*
X201638Y-110665D01*
X201660Y-110710D01*
X201682Y-110765D01*
X201704Y-110821D01*
X201723Y-110884D01*
X201738Y-110950D01*
X201749Y-111021D01*
X201756Y-111095D01*
X201760Y-111176D01*
Y-111180D01*
Y-111191D01*
Y-111210D01*
Y-111235D01*
X201756Y-111265D01*
X201752Y-111302D01*
Y-111339D01*
X201745Y-111380D01*
X201734Y-111472D01*
X201712Y-111565D01*
X201686Y-111658D01*
X201649Y-111743D01*
Y-111747D01*
X201645Y-111750D01*
X201638Y-111761D01*
X201630Y-111776D01*
X201604Y-111813D01*
X201571Y-111858D01*
X201527Y-111909D01*
X201471Y-111961D01*
X201408Y-112013D01*
X201334Y-112061D01*
X201330D01*
X201327Y-112065D01*
X201315Y-112072D01*
X201297Y-112080D01*
X201278Y-112087D01*
X201256Y-112095D01*
X201201Y-112117D01*
X201138Y-112135D01*
X201060Y-112154D01*
X200978Y-112169D01*
X200890Y-112172D01*
X200853D01*
X200823Y-112169D01*
X200790Y-112165D01*
X200753Y-112158D01*
X200708Y-112150D01*
X200664Y-112143D01*
X200564Y-112113D01*
X200508Y-112091D01*
X200456Y-112069D01*
X200404Y-112039D01*
X200353Y-112006D01*
X200304Y-111969D01*
X200256Y-111924D01*
X200253Y-111921D01*
X200245Y-111913D01*
X200234Y-111898D01*
X200219Y-111876D01*
X200201Y-111850D01*
X200182Y-111821D01*
X200160Y-111784D01*
X200138Y-111739D01*
X200116Y-111691D01*
X200093Y-111635D01*
X200075Y-111576D01*
X200056Y-111513D01*
X200042Y-111443D01*
X200030Y-111369D01*
X200023Y-111287D01*
X200019Y-111202D01*
Y-111195D01*
Y-111180D01*
X200023Y-111154D01*
Y-111117D01*
X200027Y-111076D01*
X200034Y-111024D01*
X200042Y-110973D01*
X200056Y-110913D01*
X200071Y-110854D01*
X200090Y-110791D01*
X200112Y-110724D01*
X200142Y-110661D01*
X200171Y-110602D01*
X200212Y-110543D01*
X200253Y-110487D01*
X200304Y-110439D01*
X200308Y-110436D01*
X200316Y-110432D01*
X200330Y-110421D01*
X200349Y-110406D01*
X200371Y-110391D01*
X200401Y-110373D01*
X200430Y-110354D01*
X200467Y-110336D01*
X200508Y-110317D01*
X200553Y-110299D01*
X200653Y-110265D01*
X200767Y-110239D01*
X200827Y-110236D01*
X200890Y-110232D01*
X200927D01*
X200953Y-110236D01*
D02*
G37*
%LPC*%
G36*
X271013Y-109916D02*
X270280D01*
Y-110831D01*
X270968D01*
X270994Y-110827D01*
X271020D01*
X271050Y-110823D01*
X271120Y-110816D01*
X271198Y-110801D01*
X271276Y-110779D01*
X271346Y-110749D01*
X271380Y-110731D01*
X271405Y-110708D01*
X271413Y-110701D01*
X271428Y-110686D01*
X271450Y-110657D01*
X271476Y-110620D01*
X271502Y-110571D01*
X271524Y-110512D01*
X271539Y-110446D01*
X271546Y-110368D01*
Y-110364D01*
Y-110360D01*
Y-110342D01*
X271543Y-110309D01*
X271535Y-110271D01*
X271528Y-110231D01*
X271513Y-110183D01*
X271491Y-110138D01*
X271465Y-110094D01*
X271461Y-110090D01*
X271450Y-110075D01*
X271431Y-110057D01*
X271409Y-110031D01*
X271376Y-110005D01*
X271339Y-109983D01*
X271298Y-109960D01*
X271250Y-109942D01*
X271246D01*
X271231Y-109938D01*
X271209Y-109934D01*
X271180Y-109927D01*
X271135Y-109923D01*
X271080Y-109920D01*
X271013Y-109916D01*
D02*
G37*
G36*
X266391D02*
X265784D01*
Y-110686D01*
X266413D01*
X266462Y-110683D01*
X266513Y-110679D01*
X266565Y-110675D01*
X266617Y-110668D01*
X266658Y-110660D01*
X266665Y-110657D01*
X266680Y-110653D01*
X266702Y-110642D01*
X266732Y-110627D01*
X266762Y-110612D01*
X266795Y-110590D01*
X266828Y-110560D01*
X266854Y-110531D01*
X266858Y-110527D01*
X266865Y-110516D01*
X266876Y-110494D01*
X266887Y-110468D01*
X266899Y-110438D01*
X266910Y-110401D01*
X266917Y-110357D01*
X266921Y-110309D01*
Y-110301D01*
Y-110286D01*
X266917Y-110264D01*
X266913Y-110234D01*
X266906Y-110197D01*
X266895Y-110160D01*
X266880Y-110123D01*
X266858Y-110086D01*
X266854Y-110083D01*
X266847Y-110072D01*
X266832Y-110053D01*
X266813Y-110034D01*
X266787Y-110012D01*
X266758Y-109990D01*
X266721Y-109968D01*
X266680Y-109953D01*
X266676D01*
X266658Y-109946D01*
X266632Y-109942D01*
X266591Y-109934D01*
X266536Y-109927D01*
X266473Y-109923D01*
X266391Y-109916D01*
D02*
G37*
G36*
X266458Y-110990D02*
X265784D01*
Y-111871D01*
X266513D01*
X266591Y-111868D01*
X266624Y-111864D01*
X266654Y-111860D01*
X266658D01*
X266673Y-111857D01*
X266695Y-111853D01*
X266721Y-111845D01*
X266784Y-111823D01*
X266847Y-111794D01*
X266850Y-111790D01*
X266862Y-111782D01*
X266876Y-111771D01*
X266895Y-111757D01*
X266913Y-111734D01*
X266939Y-111712D01*
X266958Y-111682D01*
X266980Y-111649D01*
X266984Y-111645D01*
X266987Y-111634D01*
X266995Y-111612D01*
X267006Y-111586D01*
X267017Y-111557D01*
X267024Y-111520D01*
X267028Y-111475D01*
X267032Y-111431D01*
Y-111423D01*
Y-111408D01*
X267028Y-111379D01*
X267021Y-111345D01*
X267013Y-111308D01*
X266999Y-111268D01*
X266980Y-111227D01*
X266954Y-111186D01*
X266950Y-111183D01*
X266939Y-111168D01*
X266924Y-111149D01*
X266902Y-111127D01*
X266873Y-111101D01*
X266836Y-111075D01*
X266795Y-111053D01*
X266747Y-111034D01*
X266739Y-111031D01*
X266724Y-111027D01*
X266691Y-111020D01*
X266650Y-111012D01*
X266599Y-111005D01*
X266536Y-110997D01*
X266458Y-110990D01*
D02*
G37*
G36*
X213673Y-111198D02*
X213670D01*
X213666Y-111202D01*
X213655Y-111206D01*
X213640Y-111210D01*
X213622Y-111217D01*
X213599Y-111224D01*
X213573Y-111232D01*
X213544Y-111239D01*
X213511Y-111250D01*
X213470Y-111258D01*
X213429Y-111269D01*
X213381Y-111280D01*
X213329Y-111291D01*
X213277Y-111302D01*
X213218Y-111310D01*
X213155Y-111321D01*
X213148D01*
X213125Y-111324D01*
X213088Y-111332D01*
X213048Y-111339D01*
X213003Y-111347D01*
X212959Y-111358D01*
X212918Y-111369D01*
X212881Y-111384D01*
X212877D01*
X212866Y-111391D01*
X212851Y-111398D01*
X212837Y-111410D01*
X212792Y-111439D01*
X212755Y-111484D01*
Y-111487D01*
X212748Y-111495D01*
X212744Y-111510D01*
X212737Y-111528D01*
X212729Y-111550D01*
X212722Y-111572D01*
X212718Y-111602D01*
X212714Y-111632D01*
Y-111635D01*
Y-111654D01*
X212718Y-111676D01*
X212725Y-111706D01*
X212737Y-111739D01*
X212755Y-111772D01*
X212777Y-111809D01*
X212807Y-111843D01*
X212811Y-111847D01*
X212825Y-111854D01*
X212848Y-111869D01*
X212877Y-111884D01*
X212918Y-111898D01*
X212966Y-111913D01*
X213022Y-111921D01*
X213088Y-111924D01*
X213118D01*
X213155Y-111921D01*
X213196Y-111913D01*
X213248Y-111906D01*
X213299Y-111891D01*
X213355Y-111872D01*
X213411Y-111847D01*
X213418Y-111843D01*
X213433Y-111832D01*
X213459Y-111813D01*
X213488Y-111787D01*
X213522Y-111758D01*
X213559Y-111721D01*
X213588Y-111676D01*
X213618Y-111628D01*
X213622Y-111624D01*
X213625Y-111610D01*
X213633Y-111584D01*
X213644Y-111550D01*
X213655Y-111506D01*
X213662Y-111454D01*
X213666Y-111391D01*
X213670Y-111317D01*
X213673Y-111198D01*
D02*
G37*
G36*
X211211Y-109873D02*
X210477D01*
Y-110787D01*
X211166D01*
X211192Y-110784D01*
X211218D01*
X211248Y-110780D01*
X211318Y-110773D01*
X211396Y-110758D01*
X211474Y-110736D01*
X211544Y-110706D01*
X211577Y-110687D01*
X211603Y-110665D01*
X211611Y-110658D01*
X211626Y-110643D01*
X211648Y-110613D01*
X211674Y-110576D01*
X211700Y-110528D01*
X211722Y-110469D01*
X211737Y-110402D01*
X211744Y-110324D01*
Y-110321D01*
Y-110317D01*
Y-110299D01*
X211740Y-110265D01*
X211733Y-110228D01*
X211726Y-110187D01*
X211711Y-110139D01*
X211688Y-110095D01*
X211663Y-110050D01*
X211659Y-110047D01*
X211648Y-110032D01*
X211629Y-110013D01*
X211607Y-109987D01*
X211574Y-109962D01*
X211537Y-109939D01*
X211496Y-109917D01*
X211448Y-109899D01*
X211444D01*
X211429Y-109895D01*
X211407Y-109891D01*
X211377Y-109884D01*
X211333Y-109880D01*
X211277Y-109876D01*
X211211Y-109873D01*
D02*
G37*
G36*
X198723D02*
X198116D01*
Y-110643D01*
X198745D01*
X198794Y-110639D01*
X198845Y-110636D01*
X198897Y-110632D01*
X198949Y-110624D01*
X198990Y-110617D01*
X198997Y-110613D01*
X199012Y-110610D01*
X199034Y-110599D01*
X199064Y-110584D01*
X199093Y-110569D01*
X199127Y-110547D01*
X199160Y-110517D01*
X199186Y-110487D01*
X199190Y-110484D01*
X199197Y-110473D01*
X199208Y-110450D01*
X199219Y-110424D01*
X199231Y-110395D01*
X199242Y-110358D01*
X199249Y-110313D01*
X199253Y-110265D01*
Y-110258D01*
Y-110243D01*
X199249Y-110221D01*
X199245Y-110191D01*
X199238Y-110154D01*
X199227Y-110117D01*
X199212Y-110080D01*
X199190Y-110043D01*
X199186Y-110039D01*
X199179Y-110028D01*
X199164Y-110010D01*
X199145Y-109991D01*
X199119Y-109969D01*
X199090Y-109947D01*
X199053Y-109924D01*
X199012Y-109910D01*
X199008D01*
X198990Y-109902D01*
X198964Y-109899D01*
X198923Y-109891D01*
X198868Y-109884D01*
X198805Y-109880D01*
X198723Y-109873D01*
D02*
G37*
G36*
X198790Y-110947D02*
X198116D01*
Y-111828D01*
X198845D01*
X198923Y-111824D01*
X198956Y-111821D01*
X198986Y-111817D01*
X198990D01*
X199005Y-111813D01*
X199027Y-111809D01*
X199053Y-111802D01*
X199116Y-111780D01*
X199179Y-111750D01*
X199182Y-111747D01*
X199193Y-111739D01*
X199208Y-111728D01*
X199227Y-111713D01*
X199245Y-111691D01*
X199271Y-111669D01*
X199290Y-111639D01*
X199312Y-111606D01*
X199316Y-111602D01*
X199319Y-111591D01*
X199327Y-111569D01*
X199338Y-111543D01*
X199349Y-111513D01*
X199356Y-111476D01*
X199360Y-111432D01*
X199364Y-111387D01*
Y-111380D01*
Y-111365D01*
X199360Y-111335D01*
X199353Y-111302D01*
X199345Y-111265D01*
X199331Y-111224D01*
X199312Y-111184D01*
X199286Y-111143D01*
X199282Y-111139D01*
X199271Y-111124D01*
X199256Y-111106D01*
X199234Y-111084D01*
X199205Y-111058D01*
X199168Y-111032D01*
X199127Y-111010D01*
X199079Y-110991D01*
X199071Y-110987D01*
X199056Y-110984D01*
X199023Y-110976D01*
X198982Y-110969D01*
X198931Y-110961D01*
X198868Y-110954D01*
X198790Y-110947D01*
D02*
G37*
G36*
X218029Y-110491D02*
X218006D01*
X217992Y-110495D01*
X217951Y-110499D01*
X217903Y-110510D01*
X217843Y-110528D01*
X217780Y-110554D01*
X217721Y-110591D01*
X217662Y-110639D01*
X217655Y-110647D01*
X217640Y-110665D01*
X217614Y-110698D01*
X217588Y-110743D01*
X217558Y-110795D01*
X217532Y-110861D01*
X217510Y-110939D01*
X217499Y-111024D01*
X218540D01*
Y-111021D01*
Y-111013D01*
X218536Y-111002D01*
Y-110987D01*
X218529Y-110943D01*
X218517Y-110895D01*
X218499Y-110836D01*
X218480Y-110780D01*
X218451Y-110724D01*
X218417Y-110676D01*
Y-110673D01*
X218410Y-110669D01*
X218391Y-110647D01*
X218358Y-110617D01*
X218314Y-110584D01*
X218258Y-110550D01*
X218192Y-110521D01*
X218114Y-110499D01*
X218073Y-110495D01*
X218029Y-110491D01*
D02*
G37*
G36*
X204874D02*
X204852D01*
X204834Y-110495D01*
X204793Y-110499D01*
X204737Y-110513D01*
X204674Y-110536D01*
X204608Y-110565D01*
X204545Y-110610D01*
X204511Y-110639D01*
X204482Y-110669D01*
Y-110673D01*
X204474Y-110676D01*
X204467Y-110687D01*
X204456Y-110702D01*
X204445Y-110721D01*
X204434Y-110743D01*
X204419Y-110773D01*
X204404Y-110802D01*
X204389Y-110839D01*
X204374Y-110876D01*
X204363Y-110921D01*
X204352Y-110969D01*
X204341Y-111021D01*
X204334Y-111076D01*
X204330Y-111139D01*
X204326Y-111202D01*
Y-111206D01*
Y-111217D01*
Y-111235D01*
X204330Y-111261D01*
Y-111291D01*
X204334Y-111324D01*
X204345Y-111402D01*
X204363Y-111491D01*
X204393Y-111580D01*
X204430Y-111665D01*
X204456Y-111702D01*
X204482Y-111739D01*
X204486D01*
X204489Y-111747D01*
X204511Y-111765D01*
X204545Y-111795D01*
X204589Y-111824D01*
X204645Y-111858D01*
X204711Y-111887D01*
X204789Y-111906D01*
X204830Y-111909D01*
X204874Y-111913D01*
X204897D01*
X204915Y-111909D01*
X204956Y-111902D01*
X205011Y-111891D01*
X205071Y-111869D01*
X205137Y-111839D01*
X205200Y-111795D01*
X205234Y-111765D01*
X205263Y-111735D01*
X205267Y-111732D01*
X205271Y-111728D01*
X205278Y-111717D01*
X205289Y-111702D01*
X205300Y-111684D01*
X205315Y-111661D01*
X205330Y-111632D01*
X205345Y-111602D01*
X205360Y-111565D01*
X205371Y-111524D01*
X205385Y-111480D01*
X205397Y-111432D01*
X205408Y-111376D01*
X205415Y-111321D01*
X205422Y-111258D01*
Y-111191D01*
Y-111187D01*
Y-111176D01*
Y-111158D01*
X205419Y-111135D01*
Y-111106D01*
X205415Y-111073D01*
X205404Y-110995D01*
X205385Y-110913D01*
X205356Y-110824D01*
X205315Y-110743D01*
X205293Y-110702D01*
X205263Y-110669D01*
Y-110665D01*
X205256Y-110661D01*
X205234Y-110639D01*
X205200Y-110613D01*
X205156Y-110580D01*
X205100Y-110547D01*
X205034Y-110517D01*
X204960Y-110499D01*
X204919Y-110495D01*
X204874Y-110491D01*
D02*
G37*
G36*
X200890D02*
X200867D01*
X200849Y-110495D01*
X200808Y-110499D01*
X200753Y-110513D01*
X200690Y-110536D01*
X200623Y-110565D01*
X200560Y-110610D01*
X200527Y-110639D01*
X200497Y-110669D01*
Y-110673D01*
X200490Y-110676D01*
X200482Y-110687D01*
X200471Y-110702D01*
X200460Y-110721D01*
X200449Y-110743D01*
X200434Y-110773D01*
X200419Y-110802D01*
X200404Y-110839D01*
X200390Y-110876D01*
X200379Y-110921D01*
X200367Y-110969D01*
X200356Y-111021D01*
X200349Y-111076D01*
X200345Y-111139D01*
X200342Y-111202D01*
Y-111206D01*
Y-111217D01*
Y-111235D01*
X200345Y-111261D01*
Y-111291D01*
X200349Y-111324D01*
X200360Y-111402D01*
X200379Y-111491D01*
X200408Y-111580D01*
X200445Y-111665D01*
X200471Y-111702D01*
X200497Y-111739D01*
X200501D01*
X200504Y-111747D01*
X200527Y-111765D01*
X200560Y-111795D01*
X200604Y-111824D01*
X200660Y-111858D01*
X200727Y-111887D01*
X200804Y-111906D01*
X200845Y-111909D01*
X200890Y-111913D01*
X200912D01*
X200930Y-111909D01*
X200971Y-111902D01*
X201027Y-111891D01*
X201086Y-111869D01*
X201153Y-111839D01*
X201215Y-111795D01*
X201249Y-111765D01*
X201278Y-111735D01*
X201282Y-111732D01*
X201286Y-111728D01*
X201293Y-111717D01*
X201304Y-111702D01*
X201315Y-111684D01*
X201330Y-111661D01*
X201345Y-111632D01*
X201360Y-111602D01*
X201375Y-111565D01*
X201386Y-111524D01*
X201401Y-111480D01*
X201412Y-111432D01*
X201423Y-111376D01*
X201430Y-111321D01*
X201438Y-111258D01*
Y-111191D01*
Y-111187D01*
Y-111176D01*
Y-111158D01*
X201434Y-111135D01*
Y-111106D01*
X201430Y-111073D01*
X201419Y-110995D01*
X201401Y-110913D01*
X201371Y-110824D01*
X201330Y-110743D01*
X201308Y-110702D01*
X201278Y-110669D01*
Y-110665D01*
X201271Y-110661D01*
X201249Y-110639D01*
X201215Y-110613D01*
X201171Y-110580D01*
X201116Y-110547D01*
X201049Y-110517D01*
X200975Y-110499D01*
X200934Y-110495D01*
X200890Y-110491D01*
D02*
G37*
%LPD*%
D10*
X1000Y67250D02*
G03*
X-3000Y63250I-0J-4000D01*
G01*
X127000D02*
G03*
X123000Y67250I-4000J0D01*
G01*
Y-12750D02*
G03*
X127000Y-8750I0J4000D01*
G01*
X-3000D02*
G03*
X1000Y-12750I4000J-0D01*
G01*
X-3000Y-8750D02*
Y63250D01*
X1000Y67250D02*
X123000D01*
X127000Y-8750D02*
Y63250D01*
X1000Y-12750D02*
X123000D01*
D88*
X77400Y25270D02*
D03*
X76600D02*
D03*
X75800D02*
D03*
X75000D02*
D03*
X74200D02*
D03*
X70200D02*
D03*
X71000D02*
D03*
X71800D02*
D03*
X72600D02*
D03*
X73400D02*
D03*
X66200D02*
D03*
X67000D02*
D03*
X67800D02*
D03*
X68600D02*
D03*
X69400D02*
D03*
X62200D02*
D03*
X63000D02*
D03*
X63800D02*
D03*
X64600D02*
D03*
X65400D02*
D03*
X58200D02*
D03*
X59000D02*
D03*
X59800D02*
D03*
X60600D02*
D03*
X61400D02*
D03*
X54200D02*
D03*
X55000D02*
D03*
X55800D02*
D03*
X56600D02*
D03*
X57400D02*
D03*
X50200D02*
D03*
X51000D02*
D03*
X51800D02*
D03*
X52600D02*
D03*
X53400D02*
D03*
X46200D02*
D03*
X47000D02*
D03*
X47800D02*
D03*
X48600D02*
D03*
X49400D02*
D03*
D89*
X350Y37750D02*
D03*
X2800D02*
D03*
X350Y16800D02*
D03*
X2800D02*
D03*
D90*
X1575Y36025D02*
D03*
Y39475D02*
D03*
X1575Y15075D02*
D03*
Y18525D02*
D03*
D91*
X1125Y37075D02*
D03*
X2025D02*
D03*
X1125Y38425D02*
D03*
X2025D02*
D03*
X1125Y16125D02*
D03*
X2025D02*
D03*
X1125Y17475D02*
D03*
X2025D02*
D03*
M02*
