G04*
G04 #@! TF.GenerationSoftware,Altium Limited,Altium Designer,19.0.13 (425)*
G04*
G04 Layer_Color=8421504*
%FSLAX43Y43*%
%MOMM*%
G71*
G01*
G75*
%ADD10C,0.250*%
%ADD11R,0.300X0.600*%
%ADD12C,0.250*%
%ADD13R,1.800X2.800*%
%ADD14R,1.000X1.800*%
%ADD15R,4.000X5.000*%
%ADD16R,1.350X0.800*%
%ADD17R,6.200X1.200*%
%ADD18R,2.000X3.500*%
%ADD19R,0.500X2.300*%
%ADD20R,2.800X2.000*%
%ADD21R,0.400X1.350*%
%ADD22R,3.150X1.270*%
%ADD23R,3.680X1.270*%
%ADD24R,1.270X1.524*%
%ADD25R,3.400X1.200*%
%ADD26R,0.600X0.420*%
%ADD27R,1.450X0.550*%
%ADD28R,1.200X0.600*%
%ADD29R,2.700X1.000*%
%ADD30R,2.700X3.300*%
%ADD31R,0.600X0.450*%
%ADD32R,0.610X1.524*%
%ADD33C,0.991*%
%ADD34R,2.500X3.900*%
%ADD35R,0.800X4.600*%
%ADD36R,0.600X4.600*%
%ADD37R,2.200X7.100*%
%ADD38R,2.600X2.200*%
%ADD39O,1.803X0.257*%
%ADD40O,1.803X0.254*%
%ADD41O,0.257X1.803*%
%ADD42O,0.254X1.803*%
%ADD43R,1.900X2.640*%
%ADD44R,0.700X0.400*%
%ADD45R,0.600X0.300*%
%ADD46R,3.400X3.400*%
%ADD47O,0.690X0.280*%
%ADD48O,0.280X0.690*%
%ADD49R,2.500X2.500*%
%ADD50R,0.800X1.600*%
%ADD51R,1.200X3.100*%
%ADD52R,1.600X3.500*%
%ADD53R,1.400X3.500*%
%ADD54R,1.500X3.500*%
%ADD55R,1.950X1.400*%
%ADD56R,2.500X1.500*%
%ADD57R,2.500X2.000*%
%ADD58R,2.000X2.500*%
%ADD59R,1.000X1.000*%
%ADD60R,1.100X1.500*%
%ADD61R,0.300X1.250*%
%ADD62C,0.320*%
%ADD63P,0.379X8X22.5*%
%ADD64R,3.000X1.020*%
%ADD65R,2.030X1.820*%
%ADD66R,0.750X1.380*%
%ADD67R,2.500X1.750*%
%ADD68R,0.500X0.800*%
%ADD69R,2.160X1.520*%
%ADD70C,0.220*%
%ADD71P,0.379X8X292.5*%
%ADD72R,1.600X3.200*%
%ADD73R,1.270X1.829*%
%ADD74R,1.016X1.270*%
%ADD75R,1.270X1.016*%
%ADD76R,1.250X1.200*%
%ADD77R,1.100X1.200*%
%ADD78R,1.200X1.100*%
%ADD79R,0.962X0.762*%
%ADD80R,0.762X0.962*%
%ADD81R,1.829X1.270*%
%ADD82R,0.600X1.200*%
%ADD83R,1.000X1.000*%
%ADD84R,1.524X1.270*%
%ADD85R,0.550X1.450*%
%ADD86R,1.000X2.700*%
%ADD87R,3.300X2.700*%
G36*
X47772Y20739D02*
X46772D01*
Y21739D01*
X47772D01*
Y20739D01*
D02*
G37*
G36*
X46372D02*
X45372D01*
Y21739D01*
X46372D01*
Y20739D01*
D02*
G37*
G36*
X47772Y19339D02*
X46772D01*
Y20339D01*
X47772D01*
Y19339D01*
D02*
G37*
G36*
X46372D02*
X45372D01*
Y20339D01*
X46372D01*
Y19339D01*
D02*
G37*
G36*
X68300Y3450D02*
X67500D01*
Y4250D01*
X68300D01*
Y3450D01*
D02*
G37*
G36*
Y2350D02*
X67500D01*
Y3150D01*
X68300D01*
Y2350D01*
D02*
G37*
G36*
Y1150D02*
X67500D01*
Y2050D01*
X68300D01*
Y1150D01*
D02*
G37*
G36*
X68600Y2050D02*
Y1250D01*
X69400D01*
Y2050D01*
X68600D01*
D02*
G37*
G36*
Y3150D02*
Y2350D01*
X69400D01*
Y3150D01*
X68600D01*
D02*
G37*
G36*
X69700Y2050D02*
Y1250D01*
X70500D01*
Y2050D01*
X69700D01*
D02*
G37*
G36*
Y3150D02*
Y2350D01*
X70500D01*
Y3150D01*
X69700D01*
D02*
G37*
G36*
X68600Y4250D02*
Y3450D01*
X69400D01*
Y4250D01*
X68600D01*
D02*
G37*
G36*
X69700D02*
Y3450D01*
X70500D01*
Y4250D01*
X69700D01*
D02*
G37*
G36*
X70500Y18050D02*
X70950D01*
Y16850D01*
X69050D01*
Y18050D01*
X69500D01*
Y19450D01*
X70500D01*
Y18050D01*
D02*
G37*
G36*
X77400Y18725D02*
X76850D01*
Y18425D01*
X76700D01*
Y18725D01*
X76300D01*
Y18425D01*
X76150D01*
Y18725D01*
X75600D01*
Y21275D01*
X76150D01*
Y21575D01*
X76300D01*
Y21275D01*
X76700D01*
Y21575D01*
X76850D01*
Y21275D01*
X77400D01*
Y18725D01*
D02*
G37*
G36*
X202864Y-110136D02*
X202890Y-110139D01*
X202946Y-110147D01*
X203013Y-110162D01*
X203083Y-110184D01*
X203153Y-110217D01*
X203224Y-110258D01*
X203227D01*
X203231Y-110265D01*
X203253Y-110280D01*
X203287Y-110310D01*
X203327Y-110347D01*
X203372Y-110395D01*
X203416Y-110454D01*
X203461Y-110524D01*
X203498Y-110602D01*
Y-110606D01*
X203501Y-110613D01*
X203505Y-110624D01*
X203512Y-110639D01*
X203520Y-110661D01*
X203527Y-110687D01*
X203546Y-110747D01*
X203564Y-110821D01*
X203579Y-110902D01*
X203590Y-110995D01*
X203594Y-111091D01*
Y-111095D01*
Y-111102D01*
Y-111117D01*
Y-111139D01*
X203590Y-111165D01*
Y-111195D01*
X203583Y-111261D01*
X203568Y-111343D01*
X203550Y-111428D01*
X203524Y-111517D01*
X203490Y-111606D01*
Y-111610D01*
X203487Y-111617D01*
X203479Y-111628D01*
X203472Y-111643D01*
X203446Y-111684D01*
X203412Y-111735D01*
X203372Y-111791D01*
X203320Y-111847D01*
X203261Y-111902D01*
X203190Y-111954D01*
X203187D01*
X203183Y-111958D01*
X203172Y-111965D01*
X203157Y-111972D01*
X203120Y-111991D01*
X203068Y-112013D01*
X203005Y-112035D01*
X202938Y-112054D01*
X202861Y-112069D01*
X202783Y-112072D01*
X202757D01*
X202727Y-112069D01*
X202690Y-112065D01*
X202646Y-112058D01*
X202598Y-112047D01*
X202550Y-112032D01*
X202501Y-112009D01*
X202498Y-112006D01*
X202479Y-111998D01*
X202457Y-111984D01*
X202427Y-111961D01*
X202398Y-111939D01*
X202361Y-111909D01*
X202327Y-111876D01*
X202298Y-111839D01*
Y-112743D01*
X201983D01*
Y-110173D01*
X202268D01*
Y-110417D01*
X202272Y-110410D01*
X202287Y-110395D01*
X202305Y-110369D01*
X202335Y-110339D01*
X202368Y-110302D01*
X202405Y-110269D01*
X202450Y-110236D01*
X202494Y-110206D01*
X202501Y-110202D01*
X202516Y-110195D01*
X202546Y-110184D01*
X202583Y-110169D01*
X202627Y-110154D01*
X202679Y-110143D01*
X202738Y-110136D01*
X202805Y-110132D01*
X202846D01*
X202864Y-110136D01*
D02*
G37*
G36*
X210038D02*
X210093Y-110139D01*
X210153Y-110147D01*
X210215Y-110162D01*
X210282Y-110176D01*
X210345Y-110199D01*
X210349D01*
X210353Y-110202D01*
X210371Y-110210D01*
X210401Y-110224D01*
X210438Y-110243D01*
X210478Y-110269D01*
X210519Y-110299D01*
X210556Y-110332D01*
X210590Y-110369D01*
X210593Y-110373D01*
X210601Y-110387D01*
X210615Y-110413D01*
X210634Y-110443D01*
X210652Y-110487D01*
X210671Y-110536D01*
X210686Y-110591D01*
X210701Y-110654D01*
X210393Y-110695D01*
Y-110687D01*
X210390Y-110673D01*
X210382Y-110647D01*
X210371Y-110613D01*
X210353Y-110580D01*
X210330Y-110543D01*
X210304Y-110506D01*
X210267Y-110473D01*
X210264Y-110469D01*
X210249Y-110461D01*
X210227Y-110447D01*
X210193Y-110432D01*
X210156Y-110417D01*
X210108Y-110402D01*
X210049Y-110395D01*
X209986Y-110391D01*
X209949D01*
X209912Y-110395D01*
X209864Y-110399D01*
X209816Y-110410D01*
X209764Y-110421D01*
X209716Y-110439D01*
X209675Y-110465D01*
X209671Y-110469D01*
X209660Y-110476D01*
X209645Y-110491D01*
X209630Y-110513D01*
X209612Y-110536D01*
X209597Y-110565D01*
X209586Y-110599D01*
X209582Y-110632D01*
Y-110636D01*
Y-110643D01*
X209586Y-110654D01*
Y-110669D01*
X209597Y-110706D01*
X209619Y-110743D01*
X209623Y-110747D01*
X209627Y-110750D01*
X209634Y-110761D01*
X209649Y-110773D01*
X209664Y-110784D01*
X209686Y-110798D01*
X209712Y-110810D01*
X209741Y-110824D01*
X209745D01*
X209753Y-110828D01*
X209767Y-110832D01*
X209793Y-110843D01*
X209830Y-110854D01*
X209878Y-110865D01*
X209908Y-110876D01*
X209941Y-110884D01*
X209978Y-110895D01*
X210019Y-110906D01*
X210023D01*
X210034Y-110910D01*
X210053Y-110913D01*
X210075Y-110921D01*
X210101Y-110928D01*
X210134Y-110936D01*
X210204Y-110958D01*
X210282Y-110980D01*
X210360Y-111006D01*
X210430Y-111032D01*
X210460Y-111043D01*
X210486Y-111054D01*
X210493Y-111058D01*
X210508Y-111065D01*
X210530Y-111076D01*
X210564Y-111095D01*
X210597Y-111117D01*
X210630Y-111147D01*
X210664Y-111180D01*
X210693Y-111217D01*
X210697Y-111221D01*
X210704Y-111235D01*
X210719Y-111258D01*
X210734Y-111291D01*
X210745Y-111332D01*
X210760Y-111376D01*
X210767Y-111428D01*
X210771Y-111487D01*
Y-111495D01*
Y-111513D01*
X210767Y-111543D01*
X210760Y-111584D01*
X210749Y-111628D01*
X210730Y-111676D01*
X210708Y-111732D01*
X210678Y-111784D01*
X210675Y-111791D01*
X210660Y-111806D01*
X210641Y-111832D01*
X210612Y-111861D01*
X210571Y-111895D01*
X210527Y-111932D01*
X210475Y-111965D01*
X210412Y-111998D01*
X210408D01*
X210404Y-112002D01*
X210382Y-112009D01*
X210345Y-112021D01*
X210297Y-112035D01*
X210238Y-112050D01*
X210171Y-112061D01*
X210101Y-112069D01*
X210019Y-112072D01*
X209986D01*
X209960Y-112069D01*
X209930D01*
X209893Y-112065D01*
X209856Y-112061D01*
X209816Y-112054D01*
X209727Y-112035D01*
X209634Y-112009D01*
X209545Y-111972D01*
X209504Y-111950D01*
X209467Y-111924D01*
X209464Y-111921D01*
X209460Y-111917D01*
X209438Y-111895D01*
X209404Y-111861D01*
X209367Y-111810D01*
X209327Y-111747D01*
X209286Y-111672D01*
X209253Y-111580D01*
X209227Y-111476D01*
X209538Y-111428D01*
Y-111432D01*
Y-111435D01*
X209545Y-111458D01*
X209553Y-111495D01*
X209567Y-111535D01*
X209586Y-111580D01*
X209608Y-111628D01*
X209641Y-111676D01*
X209682Y-111717D01*
X209690Y-111721D01*
X209704Y-111732D01*
X209734Y-111747D01*
X209771Y-111765D01*
X209819Y-111784D01*
X209875Y-111798D01*
X209941Y-111810D01*
X210019Y-111813D01*
X210056D01*
X210093Y-111810D01*
X210141Y-111802D01*
X210193Y-111791D01*
X210249Y-111776D01*
X210297Y-111758D01*
X210341Y-111728D01*
X210345Y-111724D01*
X210360Y-111713D01*
X210375Y-111695D01*
X210397Y-111669D01*
X210415Y-111639D01*
X210434Y-111602D01*
X210445Y-111565D01*
X210449Y-111521D01*
Y-111517D01*
Y-111502D01*
X210445Y-111484D01*
X210438Y-111458D01*
X210427Y-111432D01*
X210408Y-111406D01*
X210386Y-111376D01*
X210353Y-111354D01*
X210349Y-111350D01*
X210338Y-111347D01*
X210319Y-111335D01*
X210290Y-111324D01*
X210245Y-111310D01*
X210219Y-111298D01*
X210190Y-111291D01*
X210156Y-111280D01*
X210119Y-111269D01*
X210078Y-111258D01*
X210030Y-111247D01*
X210027D01*
X210016Y-111243D01*
X209997Y-111239D01*
X209975Y-111232D01*
X209945Y-111224D01*
X209912Y-111213D01*
X209841Y-111195D01*
X209760Y-111169D01*
X209682Y-111147D01*
X209608Y-111121D01*
X209575Y-111106D01*
X209549Y-111095D01*
X209541Y-111091D01*
X209527Y-111084D01*
X209504Y-111069D01*
X209475Y-111050D01*
X209441Y-111024D01*
X209408Y-110995D01*
X209375Y-110961D01*
X209345Y-110921D01*
X209342Y-110917D01*
X209334Y-110902D01*
X209323Y-110876D01*
X209312Y-110847D01*
X209301Y-110810D01*
X209290Y-110765D01*
X209282Y-110721D01*
X209279Y-110669D01*
Y-110661D01*
Y-110647D01*
X209282Y-110624D01*
X209286Y-110591D01*
X209293Y-110558D01*
X209301Y-110517D01*
X209316Y-110480D01*
X209334Y-110439D01*
X209338Y-110436D01*
X209345Y-110421D01*
X209356Y-110402D01*
X209375Y-110376D01*
X209397Y-110350D01*
X209423Y-110317D01*
X209453Y-110287D01*
X209490Y-110262D01*
X209493Y-110258D01*
X209504Y-110254D01*
X209519Y-110243D01*
X209541Y-110232D01*
X209571Y-110217D01*
X209604Y-110202D01*
X209645Y-110187D01*
X209690Y-110173D01*
X209697Y-110169D01*
X209712Y-110165D01*
X209738Y-110158D01*
X209771Y-110150D01*
X209812Y-110143D01*
X209856Y-110139D01*
X209908Y-110132D01*
X209997D01*
X210038Y-110136D01*
D02*
G37*
G36*
X208227D02*
X208282Y-110139D01*
X208345Y-110147D01*
X208408Y-110158D01*
X208471Y-110173D01*
X208530Y-110191D01*
X208538Y-110195D01*
X208556Y-110202D01*
X208582Y-110213D01*
X208616Y-110228D01*
X208653Y-110250D01*
X208690Y-110273D01*
X208723Y-110302D01*
X208753Y-110332D01*
X208756Y-110336D01*
X208764Y-110347D01*
X208775Y-110365D01*
X208790Y-110387D01*
X208808Y-110421D01*
X208823Y-110454D01*
X208838Y-110495D01*
X208849Y-110543D01*
Y-110547D01*
X208853Y-110558D01*
X208856Y-110580D01*
X208860Y-110610D01*
Y-110650D01*
X208864Y-110699D01*
X208867Y-110761D01*
Y-110832D01*
Y-111254D01*
Y-111258D01*
Y-111273D01*
Y-111295D01*
Y-111324D01*
Y-111358D01*
Y-111398D01*
X208871Y-111487D01*
Y-111580D01*
X208875Y-111672D01*
X208879Y-111713D01*
Y-111750D01*
X208882Y-111784D01*
X208886Y-111810D01*
Y-111813D01*
X208890Y-111828D01*
X208893Y-111850D01*
X208905Y-111880D01*
X208912Y-111913D01*
X208927Y-111950D01*
X208945Y-111991D01*
X208964Y-112032D01*
X208634D01*
X208630Y-112028D01*
X208627Y-112013D01*
X208619Y-111995D01*
X208608Y-111965D01*
X208597Y-111932D01*
X208590Y-111891D01*
X208582Y-111847D01*
X208575Y-111798D01*
X208571D01*
X208568Y-111806D01*
X208545Y-111824D01*
X208512Y-111850D01*
X208468Y-111884D01*
X208412Y-111917D01*
X208356Y-111954D01*
X208297Y-111987D01*
X208234Y-112013D01*
X208227Y-112017D01*
X208205Y-112021D01*
X208171Y-112032D01*
X208131Y-112043D01*
X208079Y-112054D01*
X208019Y-112061D01*
X207953Y-112069D01*
X207886Y-112072D01*
X207856D01*
X207834Y-112069D01*
X207808D01*
X207779Y-112065D01*
X207712Y-112054D01*
X207638Y-112035D01*
X207557Y-112009D01*
X207482Y-111972D01*
X207416Y-111924D01*
X207408Y-111917D01*
X207390Y-111898D01*
X207364Y-111865D01*
X207334Y-111821D01*
X207305Y-111765D01*
X207279Y-111702D01*
X207260Y-111624D01*
X207257Y-111587D01*
X207253Y-111543D01*
Y-111535D01*
Y-111521D01*
X207257Y-111495D01*
X207260Y-111461D01*
X207268Y-111421D01*
X207279Y-111380D01*
X207294Y-111335D01*
X207312Y-111295D01*
X207316Y-111291D01*
X207323Y-111276D01*
X207338Y-111254D01*
X207357Y-111228D01*
X207379Y-111198D01*
X207408Y-111169D01*
X207438Y-111139D01*
X207475Y-111113D01*
X207479Y-111110D01*
X207494Y-111102D01*
X207512Y-111087D01*
X207542Y-111073D01*
X207575Y-111058D01*
X207616Y-111039D01*
X207656Y-111024D01*
X207705Y-111010D01*
X207708D01*
X207723Y-111006D01*
X207745Y-110998D01*
X207775Y-110995D01*
X207812Y-110987D01*
X207860Y-110980D01*
X207916Y-110969D01*
X207982Y-110961D01*
X207986D01*
X208001Y-110958D01*
X208019D01*
X208045Y-110954D01*
X208075Y-110950D01*
X208112Y-110943D01*
X208153Y-110939D01*
X208197Y-110932D01*
X208286Y-110913D01*
X208382Y-110895D01*
X208468Y-110873D01*
X208508Y-110861D01*
X208545Y-110850D01*
Y-110847D01*
Y-110839D01*
X208549Y-110817D01*
Y-110791D01*
Y-110776D01*
Y-110769D01*
Y-110765D01*
Y-110761D01*
Y-110739D01*
X208545Y-110702D01*
X208538Y-110661D01*
X208527Y-110617D01*
X208508Y-110573D01*
X208486Y-110532D01*
X208456Y-110499D01*
X208453Y-110495D01*
X208434Y-110480D01*
X208405Y-110465D01*
X208368Y-110443D01*
X208316Y-110424D01*
X208256Y-110406D01*
X208182Y-110395D01*
X208097Y-110391D01*
X208060D01*
X208023Y-110395D01*
X207971Y-110402D01*
X207919Y-110410D01*
X207864Y-110424D01*
X207812Y-110443D01*
X207768Y-110469D01*
X207764Y-110473D01*
X207749Y-110484D01*
X207731Y-110502D01*
X207708Y-110532D01*
X207686Y-110569D01*
X207660Y-110617D01*
X207638Y-110676D01*
X207616Y-110743D01*
X207308Y-110702D01*
Y-110699D01*
X207312Y-110695D01*
Y-110684D01*
X207316Y-110669D01*
X207327Y-110636D01*
X207342Y-110587D01*
X207360Y-110539D01*
X207382Y-110487D01*
X207412Y-110436D01*
X207445Y-110387D01*
X207449Y-110384D01*
X207464Y-110369D01*
X207486Y-110347D01*
X207516Y-110317D01*
X207557Y-110287D01*
X207605Y-110258D01*
X207660Y-110224D01*
X207723Y-110199D01*
X207727D01*
X207731Y-110195D01*
X207742Y-110191D01*
X207756Y-110187D01*
X207794Y-110176D01*
X207845Y-110165D01*
X207905Y-110154D01*
X207979Y-110143D01*
X208056Y-110136D01*
X208145Y-110132D01*
X208186D01*
X208227Y-110136D01*
D02*
G37*
G36*
X206120Y-109473D02*
X206183Y-109476D01*
X206249Y-109480D01*
X206312Y-109488D01*
X206368Y-109495D01*
X206375D01*
X206401Y-109502D01*
X206434Y-109510D01*
X206479Y-109521D01*
X206527Y-109539D01*
X206579Y-109562D01*
X206634Y-109588D01*
X206683Y-109617D01*
X206690Y-109621D01*
X206705Y-109632D01*
X206727Y-109654D01*
X206757Y-109680D01*
X206790Y-109713D01*
X206823Y-109758D01*
X206860Y-109806D01*
X206890Y-109862D01*
X206894Y-109869D01*
X206901Y-109887D01*
X206916Y-109921D01*
X206931Y-109965D01*
X206942Y-110017D01*
X206957Y-110076D01*
X206964Y-110143D01*
X206968Y-110213D01*
Y-110217D01*
Y-110228D01*
Y-110243D01*
X206964Y-110269D01*
X206960Y-110295D01*
X206957Y-110328D01*
X206949Y-110365D01*
X206942Y-110406D01*
X206916Y-110491D01*
X206901Y-110536D01*
X206879Y-110584D01*
X206853Y-110632D01*
X206827Y-110676D01*
X206794Y-110721D01*
X206757Y-110765D01*
X206753Y-110769D01*
X206745Y-110776D01*
X206734Y-110787D01*
X206716Y-110798D01*
X206694Y-110817D01*
X206664Y-110836D01*
X206627Y-110858D01*
X206586Y-110876D01*
X206538Y-110898D01*
X206483Y-110921D01*
X206423Y-110939D01*
X206353Y-110954D01*
X206279Y-110969D01*
X206197Y-110980D01*
X206105Y-110987D01*
X206009Y-110991D01*
X205353D01*
Y-112032D01*
X205012D01*
Y-109469D01*
X206064D01*
X206120Y-109473D01*
D02*
G37*
G36*
X199680Y-109773D02*
X198835D01*
Y-112032D01*
X198494D01*
Y-109773D01*
X197650D01*
Y-109469D01*
X199680D01*
Y-109773D01*
D02*
G37*
G36*
X211512Y-110173D02*
X211830D01*
Y-110417D01*
X211512D01*
Y-111510D01*
Y-111517D01*
Y-111532D01*
Y-111554D01*
X211515Y-111580D01*
X211519Y-111639D01*
X211523Y-111665D01*
X211526Y-111684D01*
X211530Y-111691D01*
X211541Y-111706D01*
X211556Y-111724D01*
X211582Y-111743D01*
X211589Y-111747D01*
X211608Y-111754D01*
X211641Y-111761D01*
X211689Y-111765D01*
X211726D01*
X211745Y-111761D01*
X211771D01*
X211801Y-111758D01*
X211830Y-111754D01*
X211871Y-112032D01*
X211863D01*
X211849Y-112035D01*
X211823Y-112039D01*
X211789Y-112043D01*
X211752Y-112050D01*
X211712Y-112054D01*
X211630Y-112058D01*
X211601D01*
X211571Y-112054D01*
X211534Y-112050D01*
X211489Y-112047D01*
X211445Y-112035D01*
X211404Y-112024D01*
X211364Y-112006D01*
X211360Y-112002D01*
X211349Y-111995D01*
X211334Y-111984D01*
X211312Y-111965D01*
X211293Y-111947D01*
X211271Y-111921D01*
X211249Y-111895D01*
X211234Y-111861D01*
Y-111858D01*
X211226Y-111843D01*
X211223Y-111817D01*
X211215Y-111780D01*
X211208Y-111732D01*
X211204Y-111702D01*
Y-111669D01*
X211201Y-111628D01*
X211197Y-111587D01*
Y-111543D01*
Y-111491D01*
Y-110417D01*
X210964D01*
Y-110173D01*
X211197D01*
Y-109713D01*
X211512Y-109525D01*
Y-110173D01*
D02*
G37*
G36*
X212963Y-110136D02*
X212993Y-110139D01*
X213030Y-110147D01*
X213071Y-110154D01*
X213119Y-110165D01*
X213163Y-110176D01*
X213215Y-110195D01*
X213263Y-110213D01*
X213315Y-110239D01*
X213367Y-110269D01*
X213419Y-110302D01*
X213467Y-110343D01*
X213511Y-110387D01*
X213515Y-110391D01*
X213523Y-110399D01*
X213534Y-110413D01*
X213548Y-110436D01*
X213567Y-110461D01*
X213585Y-110491D01*
X213608Y-110528D01*
X213630Y-110573D01*
X213652Y-110621D01*
X213674Y-110673D01*
X213693Y-110732D01*
X213711Y-110795D01*
X213726Y-110865D01*
X213737Y-110939D01*
X213745Y-111017D01*
X213748Y-111102D01*
Y-111106D01*
Y-111121D01*
Y-111147D01*
X213745Y-111184D01*
X212356D01*
Y-111187D01*
Y-111198D01*
X212360Y-111213D01*
Y-111235D01*
X212363Y-111261D01*
X212371Y-111291D01*
X212382Y-111358D01*
X212404Y-111432D01*
X212434Y-111513D01*
X212475Y-111587D01*
X212526Y-111654D01*
X212530D01*
X212534Y-111661D01*
X212556Y-111680D01*
X212589Y-111706D01*
X212634Y-111732D01*
X212693Y-111761D01*
X212760Y-111787D01*
X212834Y-111806D01*
X212874Y-111810D01*
X212919Y-111813D01*
X212949D01*
X212982Y-111810D01*
X213023Y-111802D01*
X213067Y-111791D01*
X213119Y-111776D01*
X213167Y-111754D01*
X213215Y-111724D01*
X213219Y-111721D01*
X213237Y-111706D01*
X213260Y-111684D01*
X213286Y-111654D01*
X213315Y-111613D01*
X213348Y-111561D01*
X213382Y-111502D01*
X213411Y-111432D01*
X213737Y-111472D01*
Y-111476D01*
X213734Y-111484D01*
X213730Y-111498D01*
X213723Y-111521D01*
X213711Y-111543D01*
X213700Y-111572D01*
X213671Y-111635D01*
X213634Y-111706D01*
X213582Y-111780D01*
X213523Y-111850D01*
X213448Y-111917D01*
X213445D01*
X213437Y-111924D01*
X213426Y-111932D01*
X213411Y-111943D01*
X213389Y-111954D01*
X213367Y-111965D01*
X213337Y-111980D01*
X213304Y-111995D01*
X213267Y-112009D01*
X213230Y-112024D01*
X213137Y-112047D01*
X213034Y-112065D01*
X212919Y-112072D01*
X212878D01*
X212852Y-112069D01*
X212819Y-112065D01*
X212778Y-112058D01*
X212734Y-112050D01*
X212686Y-112043D01*
X212582Y-112013D01*
X212526Y-111991D01*
X212475Y-111969D01*
X212419Y-111939D01*
X212367Y-111906D01*
X212319Y-111869D01*
X212271Y-111824D01*
X212267Y-111821D01*
X212260Y-111813D01*
X212249Y-111798D01*
X212234Y-111776D01*
X212215Y-111750D01*
X212197Y-111721D01*
X212175Y-111684D01*
X212152Y-111643D01*
X212130Y-111595D01*
X212108Y-111543D01*
X212089Y-111484D01*
X212071Y-111421D01*
X212056Y-111354D01*
X212045Y-111280D01*
X212038Y-111202D01*
X212034Y-111121D01*
Y-111117D01*
Y-111098D01*
Y-111076D01*
X212038Y-111043D01*
X212041Y-111002D01*
X212045Y-110958D01*
X212052Y-110906D01*
X212063Y-110854D01*
X212093Y-110736D01*
X212112Y-110676D01*
X212134Y-110613D01*
X212163Y-110554D01*
X212197Y-110499D01*
X212234Y-110443D01*
X212275Y-110391D01*
X212278Y-110387D01*
X212286Y-110380D01*
X212300Y-110369D01*
X212319Y-110350D01*
X212341Y-110332D01*
X212371Y-110310D01*
X212404Y-110284D01*
X212445Y-110262D01*
X212486Y-110236D01*
X212534Y-110213D01*
X212586Y-110191D01*
X212641Y-110173D01*
X212700Y-110154D01*
X212763Y-110143D01*
X212830Y-110136D01*
X212900Y-110132D01*
X212937D01*
X212963Y-110136D01*
D02*
G37*
G36*
X200805D02*
X200839Y-110139D01*
X200876Y-110147D01*
X200916Y-110154D01*
X200965Y-110162D01*
X201065Y-110195D01*
X201116Y-110213D01*
X201168Y-110239D01*
X201220Y-110265D01*
X201272Y-110302D01*
X201320Y-110339D01*
X201368Y-110384D01*
X201372Y-110387D01*
X201379Y-110395D01*
X201390Y-110410D01*
X201405Y-110428D01*
X201424Y-110454D01*
X201446Y-110487D01*
X201468Y-110524D01*
X201490Y-110565D01*
X201513Y-110610D01*
X201535Y-110665D01*
X201557Y-110721D01*
X201576Y-110784D01*
X201590Y-110850D01*
X201602Y-110921D01*
X201609Y-110995D01*
X201613Y-111076D01*
Y-111080D01*
Y-111091D01*
Y-111110D01*
Y-111135D01*
X201609Y-111165D01*
X201605Y-111202D01*
Y-111239D01*
X201598Y-111280D01*
X201587Y-111373D01*
X201565Y-111465D01*
X201539Y-111558D01*
X201502Y-111643D01*
Y-111647D01*
X201498Y-111650D01*
X201490Y-111661D01*
X201483Y-111676D01*
X201457Y-111713D01*
X201424Y-111758D01*
X201379Y-111810D01*
X201324Y-111861D01*
X201261Y-111913D01*
X201187Y-111961D01*
X201183D01*
X201179Y-111965D01*
X201168Y-111972D01*
X201150Y-111980D01*
X201131Y-111987D01*
X201109Y-111995D01*
X201053Y-112017D01*
X200991Y-112035D01*
X200913Y-112054D01*
X200831Y-112069D01*
X200742Y-112072D01*
X200705D01*
X200676Y-112069D01*
X200642Y-112065D01*
X200605Y-112058D01*
X200561Y-112050D01*
X200516Y-112043D01*
X200417Y-112013D01*
X200361Y-111991D01*
X200309Y-111969D01*
X200257Y-111939D01*
X200205Y-111906D01*
X200157Y-111869D01*
X200109Y-111824D01*
X200105Y-111821D01*
X200098Y-111813D01*
X200087Y-111798D01*
X200072Y-111776D01*
X200054Y-111750D01*
X200035Y-111721D01*
X200013Y-111684D01*
X199991Y-111639D01*
X199968Y-111591D01*
X199946Y-111535D01*
X199928Y-111476D01*
X199909Y-111413D01*
X199894Y-111343D01*
X199883Y-111269D01*
X199876Y-111187D01*
X199872Y-111102D01*
Y-111095D01*
Y-111080D01*
X199876Y-111054D01*
Y-111017D01*
X199880Y-110976D01*
X199887Y-110924D01*
X199894Y-110873D01*
X199909Y-110813D01*
X199924Y-110754D01*
X199942Y-110691D01*
X199965Y-110624D01*
X199994Y-110561D01*
X200024Y-110502D01*
X200065Y-110443D01*
X200105Y-110387D01*
X200157Y-110339D01*
X200161Y-110336D01*
X200168Y-110332D01*
X200183Y-110321D01*
X200202Y-110306D01*
X200224Y-110291D01*
X200254Y-110273D01*
X200283Y-110254D01*
X200320Y-110236D01*
X200361Y-110217D01*
X200405Y-110199D01*
X200505Y-110165D01*
X200620Y-110139D01*
X200679Y-110136D01*
X200742Y-110132D01*
X200779D01*
X200805Y-110136D01*
D02*
G37*
G36*
X263811Y-109472D02*
X263841D01*
X263911Y-109479D01*
X263989Y-109490D01*
X264070Y-109509D01*
X264159Y-109531D01*
X264244Y-109560D01*
X264248D01*
X264255Y-109564D01*
X264266Y-109568D01*
X264281Y-109575D01*
X264322Y-109598D01*
X264374Y-109623D01*
X264429Y-109660D01*
X264489Y-109705D01*
X264544Y-109753D01*
X264596Y-109812D01*
X264603Y-109820D01*
X264618Y-109842D01*
X264640Y-109875D01*
X264670Y-109923D01*
X264700Y-109983D01*
X264733Y-110057D01*
X264766Y-110138D01*
X264792Y-110231D01*
X264485Y-110312D01*
Y-110309D01*
X264481Y-110305D01*
X264477Y-110294D01*
X264474Y-110279D01*
X264463Y-110246D01*
X264448Y-110201D01*
X264426Y-110149D01*
X264400Y-110101D01*
X264374Y-110049D01*
X264340Y-110005D01*
X264337Y-110001D01*
X264326Y-109986D01*
X264303Y-109968D01*
X264277Y-109942D01*
X264244Y-109912D01*
X264200Y-109883D01*
X264152Y-109853D01*
X264096Y-109827D01*
X264089Y-109823D01*
X264070Y-109816D01*
X264037Y-109805D01*
X263992Y-109790D01*
X263941Y-109779D01*
X263881Y-109768D01*
X263815Y-109760D01*
X263744Y-109757D01*
X263703D01*
X263685Y-109760D01*
X263663D01*
X263607Y-109764D01*
X263544Y-109775D01*
X263474Y-109786D01*
X263407Y-109805D01*
X263341Y-109831D01*
X263333Y-109835D01*
X263311Y-109842D01*
X263281Y-109860D01*
X263244Y-109879D01*
X263200Y-109909D01*
X263152Y-109938D01*
X263107Y-109975D01*
X263067Y-110016D01*
X263063Y-110020D01*
X263048Y-110034D01*
X263029Y-110060D01*
X263007Y-110090D01*
X262981Y-110127D01*
X262955Y-110172D01*
X262930Y-110220D01*
X262904Y-110271D01*
Y-110275D01*
X262900Y-110283D01*
X262896Y-110294D01*
X262889Y-110312D01*
X262881Y-110334D01*
X262874Y-110360D01*
X262863Y-110390D01*
X262855Y-110423D01*
X262837Y-110501D01*
X262822Y-110590D01*
X262811Y-110683D01*
X262807Y-110786D01*
Y-110790D01*
Y-110801D01*
Y-110820D01*
X262811Y-110842D01*
Y-110871D01*
X262815Y-110908D01*
X262818Y-110946D01*
X262822Y-110986D01*
X262837Y-111079D01*
X262855Y-111175D01*
X262885Y-111271D01*
X262922Y-111364D01*
Y-111368D01*
X262930Y-111375D01*
X262933Y-111386D01*
X262944Y-111401D01*
X262970Y-111442D01*
X263011Y-111494D01*
X263059Y-111549D01*
X263118Y-111605D01*
X263189Y-111657D01*
X263267Y-111705D01*
X263270D01*
X263278Y-111708D01*
X263289Y-111716D01*
X263307Y-111723D01*
X263326Y-111731D01*
X263352Y-111738D01*
X263411Y-111760D01*
X263485Y-111779D01*
X263566Y-111797D01*
X263655Y-111812D01*
X263748Y-111816D01*
X263785D01*
X263807Y-111812D01*
X263829D01*
X263885Y-111805D01*
X263952Y-111797D01*
X264022Y-111782D01*
X264100Y-111760D01*
X264178Y-111734D01*
X264181D01*
X264189Y-111731D01*
X264196Y-111727D01*
X264211Y-111719D01*
X264252Y-111701D01*
X264296Y-111679D01*
X264348Y-111653D01*
X264403Y-111623D01*
X264455Y-111590D01*
X264500Y-111553D01*
Y-111071D01*
X263744D01*
Y-110768D01*
X264833D01*
Y-111719D01*
X264829Y-111723D01*
X264822Y-111727D01*
X264807Y-111738D01*
X264789Y-111753D01*
X264766Y-111768D01*
X264740Y-111786D01*
X264707Y-111808D01*
X264674Y-111831D01*
X264596Y-111879D01*
X264507Y-111931D01*
X264415Y-111979D01*
X264315Y-112019D01*
X264311D01*
X264303Y-112023D01*
X264289Y-112027D01*
X264270Y-112034D01*
X264244Y-112042D01*
X264215Y-112053D01*
X264181Y-112060D01*
X264148Y-112068D01*
X264066Y-112086D01*
X263974Y-112105D01*
X263874Y-112116D01*
X263770Y-112119D01*
X263733D01*
X263707Y-112116D01*
X263674D01*
X263633Y-112112D01*
X263589Y-112105D01*
X263541Y-112101D01*
X263433Y-112079D01*
X263318Y-112053D01*
X263200Y-112012D01*
X263141Y-111990D01*
X263081Y-111960D01*
X263078Y-111957D01*
X263067Y-111953D01*
X263052Y-111942D01*
X263029Y-111931D01*
X263004Y-111912D01*
X262978Y-111894D01*
X262907Y-111842D01*
X262833Y-111775D01*
X262755Y-111694D01*
X262681Y-111601D01*
X262615Y-111494D01*
Y-111490D01*
X262607Y-111479D01*
X262600Y-111464D01*
X262589Y-111438D01*
X262578Y-111412D01*
X262567Y-111375D01*
X262552Y-111338D01*
X262537Y-111294D01*
X262522Y-111245D01*
X262507Y-111190D01*
X262496Y-111134D01*
X262485Y-111075D01*
X262467Y-110946D01*
X262459Y-110808D01*
Y-110805D01*
Y-110790D01*
Y-110771D01*
X262463Y-110746D01*
Y-110712D01*
X262467Y-110671D01*
X262474Y-110631D01*
X262478Y-110583D01*
X262489Y-110531D01*
X262496Y-110475D01*
X262526Y-110357D01*
X262563Y-110234D01*
X262615Y-110112D01*
X262618Y-110109D01*
X262622Y-110097D01*
X262630Y-110083D01*
X262644Y-110060D01*
X262659Y-110031D01*
X262678Y-110001D01*
X262730Y-109931D01*
X262792Y-109849D01*
X262870Y-109772D01*
X262959Y-109694D01*
X263011Y-109660D01*
X263063Y-109627D01*
X263067Y-109623D01*
X263078Y-109620D01*
X263092Y-109612D01*
X263115Y-109601D01*
X263144Y-109590D01*
X263178Y-109575D01*
X263215Y-109560D01*
X263259Y-109546D01*
X263307Y-109531D01*
X263359Y-109520D01*
X263415Y-109505D01*
X263474Y-109494D01*
X263603Y-109475D01*
X263670Y-109468D01*
X263789D01*
X263811Y-109472D01*
D02*
G37*
G36*
X268629Y-109516D02*
X268692Y-109520D01*
X268759Y-109523D01*
X268821Y-109531D01*
X268877Y-109538D01*
X268884D01*
X268910Y-109546D01*
X268944Y-109553D01*
X268988Y-109564D01*
X269036Y-109583D01*
X269088Y-109605D01*
X269144Y-109631D01*
X269192Y-109660D01*
X269199Y-109664D01*
X269214Y-109675D01*
X269236Y-109697D01*
X269266Y-109723D01*
X269299Y-109757D01*
X269333Y-109801D01*
X269370Y-109849D01*
X269399Y-109905D01*
X269403Y-109912D01*
X269410Y-109931D01*
X269425Y-109964D01*
X269440Y-110009D01*
X269451Y-110060D01*
X269466Y-110120D01*
X269473Y-110186D01*
X269477Y-110257D01*
Y-110260D01*
Y-110271D01*
Y-110286D01*
X269473Y-110312D01*
X269470Y-110338D01*
X269466Y-110371D01*
X269458Y-110409D01*
X269451Y-110449D01*
X269425Y-110534D01*
X269410Y-110579D01*
X269388Y-110627D01*
X269362Y-110675D01*
X269336Y-110720D01*
X269303Y-110764D01*
X269266Y-110808D01*
X269262Y-110812D01*
X269255Y-110820D01*
X269244Y-110831D01*
X269225Y-110842D01*
X269203Y-110860D01*
X269173Y-110879D01*
X269136Y-110901D01*
X269096Y-110920D01*
X269047Y-110942D01*
X268992Y-110964D01*
X268933Y-110983D01*
X268862Y-110997D01*
X268788Y-111012D01*
X268707Y-111023D01*
X268614Y-111031D01*
X268518Y-111034D01*
X267862D01*
Y-112075D01*
X267522D01*
Y-109512D01*
X268573D01*
X268629Y-109516D01*
D02*
G37*
G36*
X267170Y-109816D02*
X266325D01*
Y-112075D01*
X265985D01*
Y-109816D01*
X265140D01*
Y-109512D01*
X267170D01*
Y-109816D01*
D02*
G37*
G36*
X261959Y-112075D02*
X261600D01*
Y-111716D01*
X261959D01*
Y-112075D01*
D02*
G37*
%LPC*%
G36*
X202776Y-110380D02*
X202757D01*
X202742Y-110384D01*
X202705Y-110391D01*
X202657Y-110402D01*
X202601Y-110424D01*
X202542Y-110458D01*
X202509Y-110480D01*
X202479Y-110506D01*
X202450Y-110536D01*
X202420Y-110569D01*
Y-110573D01*
X202413Y-110576D01*
X202405Y-110587D01*
X202398Y-110602D01*
X202387Y-110624D01*
X202372Y-110647D01*
X202357Y-110676D01*
X202346Y-110706D01*
X202331Y-110743D01*
X202316Y-110784D01*
X202305Y-110828D01*
X202290Y-110876D01*
X202283Y-110932D01*
X202276Y-110987D01*
X202268Y-111047D01*
Y-111113D01*
Y-111117D01*
Y-111128D01*
Y-111147D01*
X202272Y-111173D01*
Y-111202D01*
X202276Y-111235D01*
X202287Y-111313D01*
X202305Y-111402D01*
X202327Y-111487D01*
X202364Y-111572D01*
X202387Y-111610D01*
X202413Y-111643D01*
X202420Y-111650D01*
X202439Y-111669D01*
X202468Y-111698D01*
X202509Y-111728D01*
X202561Y-111758D01*
X202620Y-111787D01*
X202687Y-111806D01*
X202724Y-111810D01*
X202761Y-111813D01*
X202783D01*
X202798Y-111810D01*
X202835Y-111802D01*
X202887Y-111791D01*
X202942Y-111769D01*
X203001Y-111739D01*
X203061Y-111695D01*
X203090Y-111669D01*
X203120Y-111639D01*
Y-111635D01*
X203127Y-111632D01*
X203135Y-111621D01*
X203142Y-111606D01*
X203157Y-111587D01*
X203168Y-111561D01*
X203183Y-111535D01*
X203198Y-111502D01*
X203209Y-111469D01*
X203224Y-111424D01*
X203238Y-111380D01*
X203250Y-111332D01*
X203257Y-111276D01*
X203264Y-111217D01*
X203272Y-111154D01*
Y-111087D01*
Y-111084D01*
Y-111073D01*
Y-111054D01*
X203268Y-111028D01*
Y-110998D01*
X203264Y-110965D01*
X203253Y-110887D01*
X203235Y-110802D01*
X203209Y-110717D01*
X203172Y-110632D01*
X203150Y-110591D01*
X203124Y-110558D01*
Y-110554D01*
X203116Y-110550D01*
X203098Y-110528D01*
X203068Y-110502D01*
X203027Y-110469D01*
X202975Y-110436D01*
X202916Y-110406D01*
X202850Y-110387D01*
X202813Y-110384D01*
X202776Y-110380D01*
D02*
G37*
G36*
X208549Y-111098D02*
X208545D01*
X208542Y-111102D01*
X208530Y-111106D01*
X208516Y-111110D01*
X208497Y-111117D01*
X208475Y-111124D01*
X208449Y-111132D01*
X208419Y-111139D01*
X208386Y-111150D01*
X208345Y-111158D01*
X208305Y-111169D01*
X208256Y-111180D01*
X208205Y-111191D01*
X208153Y-111202D01*
X208093Y-111210D01*
X208031Y-111221D01*
X208023D01*
X208001Y-111224D01*
X207964Y-111232D01*
X207923Y-111239D01*
X207879Y-111247D01*
X207834Y-111258D01*
X207794Y-111269D01*
X207756Y-111284D01*
X207753D01*
X207742Y-111291D01*
X207727Y-111298D01*
X207712Y-111310D01*
X207668Y-111339D01*
X207631Y-111384D01*
Y-111387D01*
X207623Y-111395D01*
X207619Y-111410D01*
X207612Y-111428D01*
X207605Y-111450D01*
X207597Y-111472D01*
X207594Y-111502D01*
X207590Y-111532D01*
Y-111535D01*
Y-111554D01*
X207594Y-111576D01*
X207601Y-111606D01*
X207612Y-111639D01*
X207631Y-111672D01*
X207653Y-111710D01*
X207682Y-111743D01*
X207686Y-111747D01*
X207701Y-111754D01*
X207723Y-111769D01*
X207753Y-111784D01*
X207794Y-111798D01*
X207842Y-111813D01*
X207897Y-111821D01*
X207964Y-111824D01*
X207993D01*
X208031Y-111821D01*
X208071Y-111813D01*
X208123Y-111806D01*
X208175Y-111791D01*
X208230Y-111772D01*
X208286Y-111747D01*
X208293Y-111743D01*
X208308Y-111732D01*
X208334Y-111713D01*
X208364Y-111687D01*
X208397Y-111658D01*
X208434Y-111621D01*
X208464Y-111576D01*
X208493Y-111528D01*
X208497Y-111524D01*
X208501Y-111510D01*
X208508Y-111484D01*
X208519Y-111450D01*
X208530Y-111406D01*
X208538Y-111354D01*
X208542Y-111291D01*
X208545Y-111217D01*
X208549Y-111098D01*
D02*
G37*
G36*
X206086Y-109773D02*
X205353D01*
Y-110687D01*
X206042D01*
X206068Y-110684D01*
X206094D01*
X206123Y-110680D01*
X206194Y-110673D01*
X206271Y-110658D01*
X206349Y-110636D01*
X206420Y-110606D01*
X206453Y-110587D01*
X206479Y-110565D01*
X206486Y-110558D01*
X206501Y-110543D01*
X206523Y-110513D01*
X206549Y-110476D01*
X206575Y-110428D01*
X206597Y-110369D01*
X206612Y-110302D01*
X206620Y-110224D01*
Y-110221D01*
Y-110217D01*
Y-110199D01*
X206616Y-110165D01*
X206608Y-110128D01*
X206601Y-110087D01*
X206586Y-110039D01*
X206564Y-109995D01*
X206538Y-109950D01*
X206534Y-109947D01*
X206523Y-109932D01*
X206505Y-109913D01*
X206483Y-109887D01*
X206449Y-109862D01*
X206412Y-109839D01*
X206371Y-109817D01*
X206323Y-109799D01*
X206320D01*
X206305Y-109795D01*
X206283Y-109791D01*
X206253Y-109784D01*
X206208Y-109780D01*
X206153Y-109776D01*
X206086Y-109773D01*
D02*
G37*
G36*
X212904Y-110391D02*
X212882D01*
X212867Y-110395D01*
X212826Y-110399D01*
X212778Y-110410D01*
X212719Y-110428D01*
X212656Y-110454D01*
X212597Y-110491D01*
X212537Y-110539D01*
X212530Y-110547D01*
X212515Y-110565D01*
X212489Y-110599D01*
X212463Y-110643D01*
X212434Y-110695D01*
X212408Y-110761D01*
X212386Y-110839D01*
X212375Y-110924D01*
X213415D01*
Y-110921D01*
Y-110913D01*
X213411Y-110902D01*
Y-110887D01*
X213404Y-110843D01*
X213393Y-110795D01*
X213374Y-110736D01*
X213356Y-110680D01*
X213326Y-110624D01*
X213293Y-110576D01*
Y-110573D01*
X213286Y-110569D01*
X213267Y-110547D01*
X213234Y-110517D01*
X213189Y-110484D01*
X213134Y-110450D01*
X213067Y-110421D01*
X212989Y-110399D01*
X212949Y-110395D01*
X212904Y-110391D01*
D02*
G37*
G36*
X200742D02*
X200720D01*
X200702Y-110395D01*
X200661Y-110399D01*
X200605Y-110413D01*
X200542Y-110436D01*
X200476Y-110465D01*
X200413Y-110510D01*
X200379Y-110539D01*
X200350Y-110569D01*
Y-110573D01*
X200342Y-110576D01*
X200335Y-110587D01*
X200324Y-110602D01*
X200313Y-110621D01*
X200302Y-110643D01*
X200287Y-110673D01*
X200272Y-110702D01*
X200257Y-110739D01*
X200242Y-110776D01*
X200231Y-110821D01*
X200220Y-110869D01*
X200209Y-110921D01*
X200202Y-110976D01*
X200198Y-111039D01*
X200194Y-111102D01*
Y-111106D01*
Y-111117D01*
Y-111135D01*
X200198Y-111161D01*
Y-111191D01*
X200202Y-111224D01*
X200213Y-111302D01*
X200231Y-111391D01*
X200261Y-111480D01*
X200298Y-111565D01*
X200324Y-111602D01*
X200350Y-111639D01*
X200354D01*
X200357Y-111647D01*
X200379Y-111665D01*
X200413Y-111695D01*
X200457Y-111724D01*
X200513Y-111758D01*
X200579Y-111787D01*
X200657Y-111806D01*
X200698Y-111810D01*
X200742Y-111813D01*
X200765D01*
X200783Y-111810D01*
X200824Y-111802D01*
X200879Y-111791D01*
X200939Y-111769D01*
X201005Y-111739D01*
X201068Y-111695D01*
X201102Y-111665D01*
X201131Y-111635D01*
X201135Y-111632D01*
X201139Y-111628D01*
X201146Y-111617D01*
X201157Y-111602D01*
X201168Y-111584D01*
X201183Y-111561D01*
X201198Y-111532D01*
X201213Y-111502D01*
X201228Y-111465D01*
X201239Y-111424D01*
X201253Y-111380D01*
X201265Y-111332D01*
X201276Y-111276D01*
X201283Y-111221D01*
X201290Y-111158D01*
Y-111091D01*
Y-111087D01*
Y-111076D01*
Y-111058D01*
X201287Y-111035D01*
Y-111006D01*
X201283Y-110973D01*
X201272Y-110895D01*
X201253Y-110813D01*
X201224Y-110724D01*
X201183Y-110643D01*
X201161Y-110602D01*
X201131Y-110569D01*
Y-110565D01*
X201124Y-110561D01*
X201102Y-110539D01*
X201068Y-110513D01*
X201024Y-110480D01*
X200968Y-110447D01*
X200902Y-110417D01*
X200828Y-110399D01*
X200787Y-110395D01*
X200742Y-110391D01*
D02*
G37*
G36*
X268596Y-109816D02*
X267862D01*
Y-110731D01*
X268551D01*
X268577Y-110727D01*
X268603D01*
X268633Y-110723D01*
X268703Y-110716D01*
X268781Y-110701D01*
X268859Y-110679D01*
X268929Y-110649D01*
X268962Y-110631D01*
X268988Y-110608D01*
X268996Y-110601D01*
X269010Y-110586D01*
X269033Y-110557D01*
X269059Y-110520D01*
X269084Y-110471D01*
X269107Y-110412D01*
X269121Y-110346D01*
X269129Y-110268D01*
Y-110264D01*
Y-110260D01*
Y-110242D01*
X269125Y-110209D01*
X269118Y-110172D01*
X269110Y-110131D01*
X269096Y-110083D01*
X269073Y-110038D01*
X269047Y-109994D01*
X269044Y-109990D01*
X269033Y-109975D01*
X269014Y-109957D01*
X268992Y-109931D01*
X268958Y-109905D01*
X268921Y-109883D01*
X268881Y-109860D01*
X268833Y-109842D01*
X268829D01*
X268814Y-109838D01*
X268792Y-109835D01*
X268762Y-109827D01*
X268718Y-109823D01*
X268662Y-109820D01*
X268596Y-109816D01*
D02*
G37*
%LPD*%
D10*
X1000Y67250D02*
G03*
X-3000Y63250I-0J-4000D01*
G01*
X127000D02*
G03*
X123000Y67250I-4000J0D01*
G01*
Y-12750D02*
G03*
X127000Y-8750I0J4000D01*
G01*
X-3000D02*
G03*
X1000Y-12750I4000J-0D01*
G01*
X-3000Y-8750D02*
Y63250D01*
X1000Y67250D02*
X123000D01*
X127000Y-8750D02*
Y63250D01*
X1000Y-12750D02*
X123000D01*
D11*
X67750Y400D02*
D03*
X68250D02*
D03*
X70750Y5100D02*
D03*
X70250D02*
D03*
X69750D02*
D03*
X69250D02*
D03*
X68750D02*
D03*
X68250D02*
D03*
X67750D02*
D03*
X67250D02*
D03*
Y400D02*
D03*
X68750D02*
D03*
X69250D02*
D03*
X69750D02*
D03*
X70250D02*
D03*
X70750D02*
D03*
D12*
X67900Y-5850D02*
D03*
Y-5450D02*
D03*
X68300D02*
D03*
Y-5850D02*
D03*
X17250Y13250D02*
D03*
Y13750D02*
D03*
Y14250D02*
D03*
Y14750D02*
D03*
Y15250D02*
D03*
Y15750D02*
D03*
Y16250D02*
D03*
Y16750D02*
D03*
Y17250D02*
D03*
X17750Y13250D02*
D03*
Y13750D02*
D03*
Y14250D02*
D03*
Y14750D02*
D03*
Y15250D02*
D03*
Y15750D02*
D03*
Y16250D02*
D03*
Y16750D02*
D03*
Y17250D02*
D03*
X18250Y13250D02*
D03*
Y13750D02*
D03*
Y14250D02*
D03*
Y14750D02*
D03*
Y15250D02*
D03*
Y15750D02*
D03*
Y16250D02*
D03*
Y16750D02*
D03*
Y17250D02*
D03*
X18750Y13250D02*
D03*
Y13750D02*
D03*
Y14250D02*
D03*
Y14750D02*
D03*
Y15250D02*
D03*
Y15750D02*
D03*
Y16250D02*
D03*
Y16750D02*
D03*
Y17250D02*
D03*
X19250Y13250D02*
D03*
Y13750D02*
D03*
Y14250D02*
D03*
Y14750D02*
D03*
Y15250D02*
D03*
Y15750D02*
D03*
Y16250D02*
D03*
Y16750D02*
D03*
Y17250D02*
D03*
X19750Y13250D02*
D03*
Y13750D02*
D03*
Y14250D02*
D03*
Y14750D02*
D03*
Y15250D02*
D03*
Y15750D02*
D03*
Y16250D02*
D03*
Y16750D02*
D03*
Y17250D02*
D03*
X20250Y13250D02*
D03*
Y13750D02*
D03*
Y14250D02*
D03*
Y14750D02*
D03*
Y15250D02*
D03*
Y15750D02*
D03*
Y16250D02*
D03*
Y16750D02*
D03*
Y17250D02*
D03*
X20750Y13250D02*
D03*
Y13750D02*
D03*
Y14250D02*
D03*
Y14750D02*
D03*
Y15250D02*
D03*
Y15750D02*
D03*
Y16250D02*
D03*
Y16750D02*
D03*
Y17250D02*
D03*
D13*
X104650Y15500D02*
D03*
X106850D02*
D03*
D14*
X38450Y48000D02*
D03*
X40950D02*
D03*
D15*
X73175Y39130D02*
D03*
D16*
X76750Y41035D02*
D03*
Y39765D02*
D03*
Y38495D02*
D03*
Y37225D02*
D03*
X69600Y41035D02*
D03*
Y39765D02*
D03*
Y38495D02*
D03*
Y37225D02*
D03*
D17*
X106500Y-11850D02*
D03*
D18*
X101653Y-10700D02*
D03*
Y-5700D02*
D03*
X111353Y-10700D02*
D03*
Y-5700D02*
D03*
D19*
X108103Y-5750D02*
D03*
X107303D02*
D03*
X106503D02*
D03*
X105703D02*
D03*
X104903D02*
D03*
D20*
X67757Y-11517D02*
D03*
X85250Y-11450D02*
D03*
D21*
X66457Y-8318D02*
D03*
X67107D02*
D03*
X67757D02*
D03*
X68407D02*
D03*
X69057D02*
D03*
X86550Y-8250D02*
D03*
X85900D02*
D03*
X85250D02*
D03*
X84600D02*
D03*
X83950D02*
D03*
D22*
X117520Y28810D02*
D03*
X122980D02*
D03*
X117520Y26270D02*
D03*
X122980D02*
D03*
X117520Y23730D02*
D03*
X122980D02*
D03*
X117519Y21190D02*
D03*
X122981D02*
D03*
D23*
X114300Y11385D02*
D03*
Y13925D02*
D03*
D24*
X75103Y29750D02*
D03*
X77897D02*
D03*
X47647Y45500D02*
D03*
X44853D02*
D03*
X38824Y23290D02*
D03*
X36030D02*
D03*
X39647Y19250D02*
D03*
X36853D02*
D03*
X28897Y48250D02*
D03*
X26103D02*
D03*
D25*
X26500Y62310D02*
D03*
X16500D02*
D03*
X26500Y59770D02*
D03*
X16500D02*
D03*
X26500Y57230D02*
D03*
X16500Y57230D02*
D03*
X26500Y54690D02*
D03*
X16500D02*
D03*
D26*
X55950Y49150D02*
D03*
Y47850D02*
D03*
X54050D02*
D03*
Y48500D02*
D03*
Y49150D02*
D03*
X48200Y51400D02*
D03*
Y50100D02*
D03*
X46300D02*
D03*
Y50750D02*
D03*
Y51400D02*
D03*
D27*
X90425Y16450D02*
D03*
Y15500D02*
D03*
Y14550D02*
D03*
X92575D02*
D03*
Y16450D02*
D03*
X64825Y-1300D02*
D03*
Y-3200D02*
D03*
X62675D02*
D03*
Y-2250D02*
D03*
Y-1300D02*
D03*
D28*
X116900Y-2750D02*
D03*
X115100Y-3700D02*
D03*
Y-1800D02*
D03*
X78900Y-3750D02*
D03*
X77100Y-4700D02*
D03*
Y-2800D02*
D03*
D29*
X100450Y33450D02*
D03*
Y35750D02*
D03*
Y38050D02*
D03*
D30*
X94550Y35750D02*
D03*
D31*
X97607Y21250D02*
D03*
X99893D02*
D03*
X103893Y31500D02*
D03*
X101607D02*
D03*
X117893Y5000D02*
D03*
X115607D02*
D03*
X103893Y18750D02*
D03*
X101607D02*
D03*
X103893Y21250D02*
D03*
X101607D02*
D03*
D32*
X94405Y22270D02*
D03*
X93135D02*
D03*
X91865D02*
D03*
X90595D02*
D03*
Y27730D02*
D03*
X91865D02*
D03*
X93135D02*
D03*
X94405D02*
D03*
D33*
X32000Y48250D02*
D03*
X43000Y48000D02*
D03*
D34*
X37499Y-8814D02*
D03*
X54873D02*
D03*
D35*
X39607Y11099D02*
D03*
X41436D02*
D03*
X50936D02*
D03*
X52764D02*
D03*
D36*
X42630D02*
D03*
X43646D02*
D03*
X44662D02*
D03*
X45678D02*
D03*
X46694D02*
D03*
X47710D02*
D03*
X48726D02*
D03*
X49742D02*
D03*
D37*
X34875Y56725D02*
D03*
X47275D02*
D03*
D38*
X41075Y53675D02*
D03*
D39*
X109650Y7250D02*
D03*
Y1750D02*
D03*
X100850D02*
D03*
Y7250D02*
D03*
D40*
X109650Y6750D02*
D03*
Y6250D02*
D03*
Y5750D02*
D03*
Y5250D02*
D03*
Y4750D02*
D03*
Y4250D02*
D03*
Y3750D02*
D03*
Y3250D02*
D03*
Y2750D02*
D03*
Y2250D02*
D03*
X100850D02*
D03*
Y2750D02*
D03*
Y3250D02*
D03*
Y3750D02*
D03*
Y4250D02*
D03*
Y4750D02*
D03*
Y5250D02*
D03*
Y5750D02*
D03*
Y6250D02*
D03*
Y6750D02*
D03*
D41*
X108000Y100D02*
D03*
X102500Y100D02*
D03*
X102500Y8900D02*
D03*
X108000Y8900D02*
D03*
D42*
X107500Y100D02*
D03*
X107000D02*
D03*
X106500D02*
D03*
X106000D02*
D03*
X105500D02*
D03*
X105000D02*
D03*
X104500D02*
D03*
X104000D02*
D03*
X103500D02*
D03*
X103000D02*
D03*
Y8900D02*
D03*
X103500D02*
D03*
X104000D02*
D03*
X104500D02*
D03*
X105000D02*
D03*
X105500D02*
D03*
X106000D02*
D03*
X106500D02*
D03*
X107000D02*
D03*
X107500D02*
D03*
D43*
X76500Y20000D02*
D03*
D44*
X75075Y19025D02*
D03*
Y19675D02*
D03*
Y20325D02*
D03*
Y20975D02*
D03*
X77925D02*
D03*
Y20325D02*
D03*
Y19675D02*
D03*
Y19025D02*
D03*
D45*
X66650Y4500D02*
D03*
Y4000D02*
D03*
Y3500D02*
D03*
Y3000D02*
D03*
Y2500D02*
D03*
Y2000D02*
D03*
Y1500D02*
D03*
Y1000D02*
D03*
X71350D02*
D03*
Y1500D02*
D03*
Y2000D02*
D03*
Y2500D02*
D03*
Y3000D02*
D03*
Y3500D02*
D03*
Y4000D02*
D03*
Y4500D02*
D03*
D46*
X69000Y2750D02*
D03*
D47*
X48472Y19289D02*
D03*
Y19789D02*
D03*
Y20289D02*
D03*
Y20789D02*
D03*
Y21289D02*
D03*
Y21789D02*
D03*
X44672D02*
D03*
Y21289D02*
D03*
Y20789D02*
D03*
Y20289D02*
D03*
Y19789D02*
D03*
Y19289D02*
D03*
D48*
X47822Y22439D02*
D03*
X47322D02*
D03*
X46822D02*
D03*
X46322D02*
D03*
X45822D02*
D03*
X45322D02*
D03*
Y18639D02*
D03*
X45822D02*
D03*
X46322D02*
D03*
X46822D02*
D03*
X47322D02*
D03*
X47822D02*
D03*
D49*
X46572Y20539D02*
D03*
D50*
X91550Y51725D02*
D03*
X90450D02*
D03*
X89350D02*
D03*
X88250D02*
D03*
X87150D02*
D03*
X86050D02*
D03*
X84950D02*
D03*
X83850D02*
D03*
X82700D02*
D03*
D51*
X81425Y53375D02*
D03*
D52*
X96425Y53875D02*
D03*
D53*
X96525Y64875D02*
D03*
D54*
X81575D02*
D03*
D55*
X81800Y61925D02*
D03*
D56*
X14250Y-11500D02*
D03*
X7350Y-9900D02*
D03*
X18550D02*
D03*
X25450Y-11500D02*
D03*
D57*
X14250Y-8750D02*
D03*
X7350Y-6950D02*
D03*
X14250Y450D02*
D03*
X25450D02*
D03*
X18550Y-6950D02*
D03*
X25450Y-8750D02*
D03*
D58*
X10050Y4500D02*
D03*
X70940Y64750D02*
D03*
X53060D02*
D03*
X21250Y4500D02*
D03*
D59*
X34675Y48075D02*
D03*
Y46425D02*
D03*
X35925D02*
D03*
Y48075D02*
D03*
D60*
X115250Y-11250D02*
D03*
Y-8250D02*
D03*
X116750D02*
D03*
Y-11250D02*
D03*
D61*
X54750Y62175D02*
D03*
X55250D02*
D03*
X55750D02*
D03*
X56250D02*
D03*
X56750D02*
D03*
X57250D02*
D03*
X57750D02*
D03*
X58250D02*
D03*
X58750D02*
D03*
X59250D02*
D03*
X59750D02*
D03*
X60250D02*
D03*
X60750D02*
D03*
X61250D02*
D03*
X61750D02*
D03*
X62250D02*
D03*
X62750D02*
D03*
X63250D02*
D03*
X63750D02*
D03*
X64250D02*
D03*
X64750D02*
D03*
X65250D02*
D03*
X65750D02*
D03*
X66250D02*
D03*
X66750D02*
D03*
X67250D02*
D03*
X67750D02*
D03*
X68250D02*
D03*
X68750D02*
D03*
X69250D02*
D03*
D62*
X85000Y-3000D02*
D03*
X84500D02*
D03*
X84000D02*
D03*
X85000Y-2500D02*
D03*
X84500D02*
D03*
X84000D02*
D03*
X85000Y-2000D02*
D03*
X84500D02*
D03*
X84000D02*
D03*
X85000Y-1500D02*
D03*
X84500D02*
D03*
D63*
X17900Y29650D02*
D03*
X17100D02*
D03*
X16300D02*
D03*
X13100D02*
D03*
X12300D02*
D03*
X11500D02*
D03*
X17900Y30450D02*
D03*
X17100D02*
D03*
X16300D02*
D03*
X13100D02*
D03*
X12300D02*
D03*
X11500D02*
D03*
X17900Y31250D02*
D03*
X17100D02*
D03*
X16300D02*
D03*
X13100D02*
D03*
X12300D02*
D03*
X11500D02*
D03*
X17900Y33650D02*
D03*
X17100D02*
D03*
X16300D02*
D03*
X13100D02*
D03*
X12300D02*
D03*
X11500D02*
D03*
X17900Y34450D02*
D03*
X17100D02*
D03*
X16300D02*
D03*
X13100D02*
D03*
X12300D02*
D03*
X11500D02*
D03*
X17900Y35250D02*
D03*
X17100D02*
D03*
X16300D02*
D03*
X13100D02*
D03*
X12300D02*
D03*
X11500D02*
D03*
X17900Y36050D02*
D03*
X17100D02*
D03*
X16300D02*
D03*
X13100D02*
D03*
X12300D02*
D03*
X11500D02*
D03*
X17900Y36850D02*
D03*
X17100D02*
D03*
X16300D02*
D03*
X13100D02*
D03*
X12300D02*
D03*
X11500D02*
D03*
X17900Y37650D02*
D03*
X17100D02*
D03*
X16300D02*
D03*
X13100D02*
D03*
X12300D02*
D03*
X11500D02*
D03*
X17900Y40850D02*
D03*
X17100D02*
D03*
X16300D02*
D03*
X13100D02*
D03*
X12300D02*
D03*
X11500D02*
D03*
Y40050D02*
D03*
X12300D02*
D03*
X13100D02*
D03*
X16300D02*
D03*
X17100D02*
D03*
X17900D02*
D03*
X11500Y39250D02*
D03*
X12300D02*
D03*
X13100D02*
D03*
X16300D02*
D03*
X17100D02*
D03*
X17900D02*
D03*
X11500Y38450D02*
D03*
X12300D02*
D03*
X13100D02*
D03*
X16300D02*
D03*
X17100D02*
D03*
X17900D02*
D03*
X11500Y32850D02*
D03*
X12300D02*
D03*
X13100D02*
D03*
X16300D02*
D03*
X17100D02*
D03*
X17900D02*
D03*
X11500Y32050D02*
D03*
X12300D02*
D03*
X13100D02*
D03*
X16300D02*
D03*
X17100D02*
D03*
X17900D02*
D03*
D64*
X63240Y9896D02*
D03*
X60240Y12436D02*
D03*
X63240Y14976D02*
D03*
X60240Y17516D02*
D03*
X63240Y20056D02*
D03*
X60240Y22596D02*
D03*
X63240Y25136D02*
D03*
X60240Y27676D02*
D03*
X63240Y30216D02*
D03*
X60240Y32756D02*
D03*
X108500Y36820D02*
D03*
X111500Y34280D02*
D03*
X108500Y31740D02*
D03*
X111500Y29200D02*
D03*
X108500Y26660D02*
D03*
X111500Y24120D02*
D03*
X108500Y21580D02*
D03*
X111500Y19040D02*
D03*
Y41900D02*
D03*
X108500Y44440D02*
D03*
X111500Y46980D02*
D03*
X108500Y49520D02*
D03*
X111500Y52060D02*
D03*
X108500Y54600D02*
D03*
X63240Y36820D02*
D03*
X60240Y39360D02*
D03*
X63240Y41900D02*
D03*
X60240Y44440D02*
D03*
X63240Y46980D02*
D03*
X60240Y49520D02*
D03*
X63240Y52060D02*
D03*
X60240Y54600D02*
D03*
D65*
X70000Y18050D02*
D03*
D66*
Y15740D02*
D03*
D67*
X84500Y25000D02*
D03*
D68*
X85450Y23600D02*
D03*
X84500D02*
D03*
X83550D02*
D03*
Y26400D02*
D03*
X84500D02*
D03*
X85450D02*
D03*
D69*
X115450Y55500D02*
D03*
Y51000D02*
D03*
X124550D02*
D03*
Y55500D02*
D03*
Y39500D02*
D03*
Y35000D02*
D03*
X115450D02*
D03*
Y39500D02*
D03*
D70*
X66200Y-6200D02*
D03*
X65800D02*
D03*
X66200Y-5800D02*
D03*
X65800D02*
D03*
D71*
X41600Y29650D02*
D03*
Y30450D02*
D03*
Y31250D02*
D03*
Y32050D02*
D03*
Y32850D02*
D03*
Y33650D02*
D03*
Y34450D02*
D03*
Y35250D02*
D03*
Y36050D02*
D03*
Y36850D02*
D03*
Y37650D02*
D03*
Y38450D02*
D03*
Y39250D02*
D03*
Y40050D02*
D03*
Y40850D02*
D03*
X40800D02*
D03*
Y40050D02*
D03*
Y39250D02*
D03*
Y38450D02*
D03*
Y37650D02*
D03*
Y36850D02*
D03*
Y36050D02*
D03*
Y35250D02*
D03*
Y34450D02*
D03*
Y33650D02*
D03*
Y32850D02*
D03*
Y32050D02*
D03*
Y31250D02*
D03*
Y30450D02*
D03*
Y29650D02*
D03*
X40000Y40850D02*
D03*
Y40050D02*
D03*
Y39250D02*
D03*
Y38450D02*
D03*
Y37650D02*
D03*
Y36850D02*
D03*
Y36050D02*
D03*
Y35250D02*
D03*
Y34450D02*
D03*
Y33650D02*
D03*
Y32850D02*
D03*
Y32050D02*
D03*
Y31250D02*
D03*
Y30450D02*
D03*
Y29650D02*
D03*
X39200Y40850D02*
D03*
Y40050D02*
D03*
Y39250D02*
D03*
Y38450D02*
D03*
Y37650D02*
D03*
Y36850D02*
D03*
Y36050D02*
D03*
Y35250D02*
D03*
Y34450D02*
D03*
Y33650D02*
D03*
Y32850D02*
D03*
Y32050D02*
D03*
Y31250D02*
D03*
Y30450D02*
D03*
Y29650D02*
D03*
X38400Y40850D02*
D03*
Y40050D02*
D03*
Y39250D02*
D03*
Y38450D02*
D03*
Y37650D02*
D03*
Y36850D02*
D03*
Y36050D02*
D03*
Y35250D02*
D03*
Y34450D02*
D03*
Y33650D02*
D03*
Y32850D02*
D03*
Y32050D02*
D03*
Y31250D02*
D03*
Y30450D02*
D03*
Y29650D02*
D03*
X37600Y40850D02*
D03*
Y40050D02*
D03*
Y39250D02*
D03*
Y38450D02*
D03*
Y37650D02*
D03*
Y36850D02*
D03*
Y36050D02*
D03*
Y35250D02*
D03*
Y34450D02*
D03*
Y33650D02*
D03*
Y32850D02*
D03*
Y32050D02*
D03*
Y31250D02*
D03*
Y30450D02*
D03*
Y29650D02*
D03*
X36800Y40850D02*
D03*
Y40050D02*
D03*
Y39250D02*
D03*
Y38450D02*
D03*
Y37650D02*
D03*
Y36850D02*
D03*
Y33650D02*
D03*
Y32850D02*
D03*
Y32050D02*
D03*
Y31250D02*
D03*
Y30450D02*
D03*
Y29650D02*
D03*
X36000Y40850D02*
D03*
Y40050D02*
D03*
Y39250D02*
D03*
Y38450D02*
D03*
Y37650D02*
D03*
Y36850D02*
D03*
Y33650D02*
D03*
Y32850D02*
D03*
Y32050D02*
D03*
Y31250D02*
D03*
Y30450D02*
D03*
Y29650D02*
D03*
X35200Y40850D02*
D03*
Y40050D02*
D03*
Y39250D02*
D03*
Y38450D02*
D03*
Y37650D02*
D03*
Y36850D02*
D03*
Y33650D02*
D03*
Y32850D02*
D03*
Y32050D02*
D03*
Y31250D02*
D03*
Y30450D02*
D03*
Y29650D02*
D03*
X34400Y40850D02*
D03*
Y40050D02*
D03*
Y39250D02*
D03*
Y38450D02*
D03*
Y37650D02*
D03*
Y36850D02*
D03*
Y36050D02*
D03*
Y35250D02*
D03*
Y34450D02*
D03*
Y33650D02*
D03*
Y32850D02*
D03*
Y32050D02*
D03*
Y31250D02*
D03*
Y30450D02*
D03*
Y29650D02*
D03*
X33600Y40850D02*
D03*
Y40050D02*
D03*
Y39250D02*
D03*
Y38450D02*
D03*
Y37650D02*
D03*
Y36850D02*
D03*
Y36050D02*
D03*
Y35250D02*
D03*
Y34450D02*
D03*
Y33650D02*
D03*
Y32850D02*
D03*
Y32050D02*
D03*
Y31250D02*
D03*
Y30450D02*
D03*
Y29650D02*
D03*
X32800Y40850D02*
D03*
Y40050D02*
D03*
Y39250D02*
D03*
Y38450D02*
D03*
Y37650D02*
D03*
Y36850D02*
D03*
Y36050D02*
D03*
Y35250D02*
D03*
Y34450D02*
D03*
Y33650D02*
D03*
Y32850D02*
D03*
Y32050D02*
D03*
Y31250D02*
D03*
Y30450D02*
D03*
Y29650D02*
D03*
X32000Y40850D02*
D03*
Y40050D02*
D03*
Y39250D02*
D03*
Y38450D02*
D03*
Y37650D02*
D03*
Y36850D02*
D03*
Y36050D02*
D03*
Y35250D02*
D03*
Y34450D02*
D03*
Y33650D02*
D03*
Y32850D02*
D03*
Y32050D02*
D03*
Y31250D02*
D03*
Y30450D02*
D03*
Y29650D02*
D03*
X31200Y40850D02*
D03*
Y40050D02*
D03*
Y39250D02*
D03*
Y38450D02*
D03*
Y37650D02*
D03*
Y36850D02*
D03*
Y36050D02*
D03*
Y35250D02*
D03*
Y34450D02*
D03*
Y33650D02*
D03*
Y32850D02*
D03*
Y32050D02*
D03*
Y31250D02*
D03*
Y30450D02*
D03*
Y29650D02*
D03*
X30400Y40850D02*
D03*
Y40050D02*
D03*
Y39250D02*
D03*
Y38450D02*
D03*
Y37650D02*
D03*
Y36850D02*
D03*
Y36050D02*
D03*
Y35250D02*
D03*
Y34450D02*
D03*
Y33650D02*
D03*
Y32850D02*
D03*
Y32050D02*
D03*
Y31250D02*
D03*
Y30450D02*
D03*
Y29650D02*
D03*
D72*
X74976Y15750D02*
D03*
X78024D02*
D03*
D73*
X27897Y31000D02*
D03*
X25103D02*
D03*
X44603Y30000D02*
D03*
X47397D02*
D03*
D74*
X71984Y-1750D02*
D03*
X74016D02*
D03*
X79766Y23000D02*
D03*
X77734D02*
D03*
X72016Y-4250D02*
D03*
X69984D02*
D03*
D75*
X104000Y35766D02*
D03*
Y33734D02*
D03*
Y37984D02*
D03*
Y40016D02*
D03*
D76*
X49975Y44750D02*
D03*
X51525D02*
D03*
X28275Y43000D02*
D03*
X26725D02*
D03*
D77*
X90650Y-5750D02*
D03*
X92350D02*
D03*
X70650Y-6250D02*
D03*
X72350D02*
D03*
X122100Y17750D02*
D03*
X120400D02*
D03*
X33100Y7500D02*
D03*
X31400D02*
D03*
X54000Y22000D02*
D03*
X55700D02*
D03*
X26650Y45000D02*
D03*
X28350D02*
D03*
X15100Y13750D02*
D03*
X13400D02*
D03*
X52350Y18250D02*
D03*
X50650D02*
D03*
X83650Y20250D02*
D03*
X85350D02*
D03*
X13400Y17000D02*
D03*
X15100D02*
D03*
X13400Y15250D02*
D03*
X15100D02*
D03*
X37650Y21000D02*
D03*
X39350D02*
D03*
X22900Y15000D02*
D03*
X24600D02*
D03*
X72650Y10000D02*
D03*
X74350D02*
D03*
X121850Y31750D02*
D03*
X120150D02*
D03*
X74350Y12000D02*
D03*
X72650D02*
D03*
X75600Y-9250D02*
D03*
X73900D02*
D03*
X24600Y13250D02*
D03*
X22900D02*
D03*
X24600Y18000D02*
D03*
X22900D02*
D03*
X96600Y-5750D02*
D03*
X94900D02*
D03*
X28350Y15000D02*
D03*
X26650D02*
D03*
X92600Y12500D02*
D03*
X90900D02*
D03*
X88100Y14500D02*
D03*
X86400D02*
D03*
X58650Y-250D02*
D03*
X60350D02*
D03*
D78*
X88750Y24150D02*
D03*
Y25850D02*
D03*
X18260Y19640D02*
D03*
Y21340D02*
D03*
X76250Y12100D02*
D03*
Y10400D02*
D03*
X23250Y9400D02*
D03*
Y11100D02*
D03*
X78250Y12100D02*
D03*
Y10400D02*
D03*
X96500Y14650D02*
D03*
Y16350D02*
D03*
X77500Y-8900D02*
D03*
Y-10600D02*
D03*
X92500Y-8900D02*
D03*
Y-10600D02*
D03*
X21250Y19650D02*
D03*
Y21350D02*
D03*
X58000Y-8900D02*
D03*
Y-10600D02*
D03*
X60000Y-8900D02*
D03*
Y-10600D02*
D03*
X72750Y21400D02*
D03*
Y23100D02*
D03*
X19750Y11100D02*
D03*
Y9400D02*
D03*
X21500D02*
D03*
Y11100D02*
D03*
X18000Y9400D02*
D03*
Y11100D02*
D03*
X85000Y400D02*
D03*
Y2100D02*
D03*
X94750Y-8900D02*
D03*
Y-10600D02*
D03*
D79*
X113350Y2500D02*
D03*
X112150D02*
D03*
X121150Y47750D02*
D03*
X122350D02*
D03*
X40150Y50750D02*
D03*
X41350D02*
D03*
X118100Y31750D02*
D03*
X116900D02*
D03*
X54400Y23500D02*
D03*
X55600D02*
D03*
X50900Y22000D02*
D03*
X52100D02*
D03*
X49650Y53000D02*
D03*
X50850D02*
D03*
X55600Y50750D02*
D03*
X54400D02*
D03*
X54650Y46000D02*
D03*
X55850D02*
D03*
X113350Y-250D02*
D03*
X112150D02*
D03*
X12100Y28000D02*
D03*
X13300D02*
D03*
X39100Y45750D02*
D03*
X37900D02*
D03*
X40400D02*
D03*
X41600D02*
D03*
X20300Y42050D02*
D03*
X21500D02*
D03*
X88100Y16500D02*
D03*
X86900D02*
D03*
X8100Y35450D02*
D03*
X9300D02*
D03*
X9300Y38450D02*
D03*
X8100D02*
D03*
X47400Y48250D02*
D03*
X48600D02*
D03*
X44650Y43750D02*
D03*
X45850D02*
D03*
X116900Y17750D02*
D03*
X118100D02*
D03*
X45850Y42750D02*
D03*
X44650D02*
D03*
X9300Y41450D02*
D03*
X8100D02*
D03*
X13300Y21050D02*
D03*
X14500D02*
D03*
X81000Y-3550D02*
D03*
X82200D02*
D03*
X81000Y-2350D02*
D03*
X82200D02*
D03*
X21500Y34750D02*
D03*
X20300D02*
D03*
X22900Y16500D02*
D03*
X24100D02*
D03*
X74100Y1500D02*
D03*
X72900D02*
D03*
X72900Y250D02*
D03*
X74100D02*
D03*
X42575Y21289D02*
D03*
X41375D02*
D03*
X50900Y24500D02*
D03*
X52100D02*
D03*
X50900Y23250D02*
D03*
X52100D02*
D03*
X73850Y34750D02*
D03*
X72650D02*
D03*
X48400Y36500D02*
D03*
X49600D02*
D03*
X81000Y-4750D02*
D03*
X82200D02*
D03*
X52100Y20750D02*
D03*
X50900D02*
D03*
X45850Y41750D02*
D03*
X44650D02*
D03*
X48400Y38750D02*
D03*
X49600D02*
D03*
X45850Y40750D02*
D03*
X44650D02*
D03*
X45850Y39750D02*
D03*
X44650D02*
D03*
X28100Y28000D02*
D03*
X26900D02*
D03*
X28100Y26750D02*
D03*
X26900D02*
D03*
X44650Y32250D02*
D03*
X45850D02*
D03*
X9300Y36450D02*
D03*
X8100D02*
D03*
X9300Y39450D02*
D03*
X8100D02*
D03*
X65900Y15000D02*
D03*
X67100D02*
D03*
X31150Y46000D02*
D03*
X32350D02*
D03*
X13300Y18600D02*
D03*
X14500D02*
D03*
X113350Y6500D02*
D03*
X112150D02*
D03*
X121150Y49000D02*
D03*
X122350D02*
D03*
X63650Y2250D02*
D03*
X64850D02*
D03*
X20300Y37050D02*
D03*
X21500D02*
D03*
X90150Y1500D02*
D03*
X91350D02*
D03*
X90150Y-1000D02*
D03*
X91350D02*
D03*
X90150Y-2250D02*
D03*
X91350D02*
D03*
X91350Y250D02*
D03*
X90150D02*
D03*
X64850Y1000D02*
D03*
X63650D02*
D03*
X103600Y-1750D02*
D03*
X102400D02*
D03*
X20300Y38050D02*
D03*
X21500D02*
D03*
X73150Y5000D02*
D03*
X74350D02*
D03*
X23300Y37750D02*
D03*
X24500D02*
D03*
X63650Y4750D02*
D03*
X64850D02*
D03*
X112150Y-1750D02*
D03*
X113350D02*
D03*
X113350Y1250D02*
D03*
X112150D02*
D03*
X64850Y6000D02*
D03*
X63650D02*
D03*
X13300Y19850D02*
D03*
X14500D02*
D03*
X42640Y23350D02*
D03*
X41440D02*
D03*
X64850Y3500D02*
D03*
X63650D02*
D03*
X73600Y18500D02*
D03*
X72400D02*
D03*
X91900Y29500D02*
D03*
X93100D02*
D03*
X59150Y-2000D02*
D03*
X60350D02*
D03*
X112150Y5000D02*
D03*
X113350D02*
D03*
X90100Y20250D02*
D03*
X88900D02*
D03*
X63650Y7250D02*
D03*
X64850D02*
D03*
X35100Y50250D02*
D03*
X33900D02*
D03*
X20300Y41050D02*
D03*
X21500D02*
D03*
X26650Y38750D02*
D03*
X27850D02*
D03*
X112150Y3750D02*
D03*
X113350D02*
D03*
X73600Y19750D02*
D03*
X72400D02*
D03*
X60350Y-3250D02*
D03*
X59150D02*
D03*
X50900Y19500D02*
D03*
X52100D02*
D03*
X20100Y31650D02*
D03*
X21300D02*
D03*
X9300Y40450D02*
D03*
X8100D02*
D03*
X24600Y19250D02*
D03*
X23400D02*
D03*
X20300Y36050D02*
D03*
X21500D02*
D03*
X9300Y32850D02*
D03*
X8100D02*
D03*
X44650Y37250D02*
D03*
X45850D02*
D03*
X71650Y-7750D02*
D03*
X72850D02*
D03*
X44650Y33750D02*
D03*
X45850D02*
D03*
X9300Y37450D02*
D03*
X8100D02*
D03*
X13650Y12250D02*
D03*
X14850D02*
D03*
X20100Y30650D02*
D03*
X21300D02*
D03*
X69347Y34924D02*
D03*
X70547D02*
D03*
X112150Y8250D02*
D03*
X113350D02*
D03*
X74150Y-11000D02*
D03*
X75350D02*
D03*
X67100Y13750D02*
D03*
X65900D02*
D03*
X20300Y39050D02*
D03*
X21500D02*
D03*
X28100Y46500D02*
D03*
X26900D02*
D03*
X36400Y50250D02*
D03*
X37600D02*
D03*
X26900Y41250D02*
D03*
X28100D02*
D03*
X20300Y40050D02*
D03*
X21500D02*
D03*
X27850Y33000D02*
D03*
X26650D02*
D03*
X27850Y34500D02*
D03*
X26650D02*
D03*
X27850Y35750D02*
D03*
X26650D02*
D03*
X27850Y37250D02*
D03*
X26650D02*
D03*
X44650Y35000D02*
D03*
X45850D02*
D03*
X44650Y36000D02*
D03*
X45850D02*
D03*
X73150Y3750D02*
D03*
X74350D02*
D03*
X20100Y32650D02*
D03*
X21300D02*
D03*
X93100Y20250D02*
D03*
X91900D02*
D03*
X119600Y47750D02*
D03*
X118400D02*
D03*
X75150Y27750D02*
D03*
X76350D02*
D03*
X83650Y22000D02*
D03*
X84850D02*
D03*
X121650Y42000D02*
D03*
X122850D02*
D03*
D80*
X15300Y27650D02*
D03*
Y26450D02*
D03*
X51000Y50150D02*
D03*
Y51350D02*
D03*
X58650Y58500D02*
D03*
Y59700D02*
D03*
X44500Y49400D02*
D03*
Y50600D02*
D03*
X41250Y16600D02*
D03*
Y15400D02*
D03*
X52750Y16600D02*
D03*
Y15400D02*
D03*
X39500Y16600D02*
D03*
Y15400D02*
D03*
X51000Y16600D02*
D03*
Y15400D02*
D03*
X110750Y11150D02*
D03*
Y12350D02*
D03*
X107000Y11150D02*
D03*
Y12350D02*
D03*
X43000Y49400D02*
D03*
Y50600D02*
D03*
X51000Y47150D02*
D03*
Y48350D02*
D03*
X52500Y47150D02*
D03*
Y48350D02*
D03*
X108500Y-3100D02*
D03*
Y-1900D02*
D03*
X98750Y1650D02*
D03*
Y2850D02*
D03*
X47450Y24600D02*
D03*
Y25800D02*
D03*
X6400Y37950D02*
D03*
Y36750D02*
D03*
X33000Y42900D02*
D03*
Y44100D02*
D03*
X6400Y39550D02*
D03*
Y40750D02*
D03*
X11400Y43150D02*
D03*
Y44350D02*
D03*
X13500Y9650D02*
D03*
Y10850D02*
D03*
X4250Y-1150D02*
D03*
Y-2350D02*
D03*
X79250Y-10600D02*
D03*
Y-9400D02*
D03*
X99250Y12350D02*
D03*
Y11150D02*
D03*
X3100Y37150D02*
D03*
Y38350D02*
D03*
X100500Y12350D02*
D03*
Y11150D02*
D03*
X101750Y11150D02*
D03*
Y12350D02*
D03*
X75500Y-1150D02*
D03*
Y-2350D02*
D03*
Y-3900D02*
D03*
Y-5100D02*
D03*
X88250Y-4400D02*
D03*
Y-5600D02*
D03*
X45800Y15400D02*
D03*
Y16600D02*
D03*
X89250Y-4400D02*
D03*
Y-5600D02*
D03*
X43750Y15400D02*
D03*
Y16600D02*
D03*
X40000Y25900D02*
D03*
Y27100D02*
D03*
X12400Y43150D02*
D03*
Y44350D02*
D03*
X107250Y-1900D02*
D03*
Y-3100D02*
D03*
X116750Y-6600D02*
D03*
Y-5400D02*
D03*
X55800Y52550D02*
D03*
Y53750D02*
D03*
X56000Y58500D02*
D03*
Y59700D02*
D03*
X43000Y42900D02*
D03*
Y44100D02*
D03*
X57100Y58500D02*
D03*
Y59700D02*
D03*
X81250Y47150D02*
D03*
Y48350D02*
D03*
X125071Y43021D02*
D03*
Y41821D02*
D03*
X115250Y-5400D02*
D03*
Y-6600D02*
D03*
X82500Y48350D02*
D03*
Y47150D02*
D03*
X85000Y48350D02*
D03*
Y47150D02*
D03*
X48436Y24586D02*
D03*
Y25786D02*
D03*
X49436Y24586D02*
D03*
Y25786D02*
D03*
X46436Y25786D02*
D03*
Y24586D02*
D03*
X45436Y24586D02*
D03*
Y25786D02*
D03*
X42700Y24625D02*
D03*
Y25825D02*
D03*
X50000Y16600D02*
D03*
Y15400D02*
D03*
X49000Y16600D02*
D03*
Y15400D02*
D03*
X79500Y19400D02*
D03*
Y20600D02*
D03*
X91750Y48350D02*
D03*
Y47150D02*
D03*
X108250Y12350D02*
D03*
Y11150D02*
D03*
X18950Y43150D02*
D03*
Y44350D02*
D03*
X109500Y12350D02*
D03*
Y11150D02*
D03*
X38750Y25900D02*
D03*
Y27100D02*
D03*
X39250Y44100D02*
D03*
Y42900D02*
D03*
X40500Y44100D02*
D03*
Y42900D02*
D03*
X38000Y44100D02*
D03*
Y42900D02*
D03*
X83750Y48350D02*
D03*
Y47150D02*
D03*
X90500Y48350D02*
D03*
Y47150D02*
D03*
X17950Y43150D02*
D03*
Y44350D02*
D03*
X89250Y48350D02*
D03*
Y47150D02*
D03*
X96000Y24400D02*
D03*
Y25600D02*
D03*
X14950Y43150D02*
D03*
Y44350D02*
D03*
X42650Y16600D02*
D03*
Y15400D02*
D03*
X16300Y27650D02*
D03*
Y26450D02*
D03*
X14750Y9650D02*
D03*
Y10850D02*
D03*
X105750Y11150D02*
D03*
Y12350D02*
D03*
X94750Y16350D02*
D03*
Y15150D02*
D03*
X16500Y9650D02*
D03*
Y10850D02*
D03*
X1700Y37150D02*
D03*
Y38350D02*
D03*
X103000Y11150D02*
D03*
Y12350D02*
D03*
X5500Y-1150D02*
D03*
Y-2350D02*
D03*
X70250Y-2350D02*
D03*
Y-1150D02*
D03*
X69000Y-1150D02*
D03*
Y-2350D02*
D03*
X63750Y-7850D02*
D03*
Y-6650D02*
D03*
X41250Y27100D02*
D03*
Y25900D02*
D03*
X54900Y59700D02*
D03*
Y58500D02*
D03*
X19750Y21100D02*
D03*
Y19900D02*
D03*
X61750Y-10350D02*
D03*
Y-9150D02*
D03*
X16950Y43150D02*
D03*
Y44350D02*
D03*
X48000Y15400D02*
D03*
Y16600D02*
D03*
X47000Y15400D02*
D03*
Y16600D02*
D03*
X59850Y59700D02*
D03*
Y58500D02*
D03*
X75750Y3900D02*
D03*
Y5100D02*
D03*
X37500Y27100D02*
D03*
Y25900D02*
D03*
X33750Y27100D02*
D03*
Y25900D02*
D03*
X31750Y42900D02*
D03*
Y44100D02*
D03*
X36750Y42900D02*
D03*
Y44100D02*
D03*
X35000Y27100D02*
D03*
Y25900D02*
D03*
X36250Y27100D02*
D03*
Y25900D02*
D03*
X30500Y42900D02*
D03*
Y44100D02*
D03*
X34250Y42900D02*
D03*
Y44100D02*
D03*
X35500Y42900D02*
D03*
Y44100D02*
D03*
X41750Y42900D02*
D03*
Y44100D02*
D03*
X87000Y24400D02*
D03*
Y25600D02*
D03*
X15950Y43150D02*
D03*
Y44350D02*
D03*
X2700Y16150D02*
D03*
Y17350D02*
D03*
D81*
X70000Y24147D02*
D03*
Y21353D02*
D03*
X80750Y9353D02*
D03*
Y12147D02*
D03*
D82*
X94750Y-1350D02*
D03*
X95700Y-3150D02*
D03*
X93800D02*
D03*
D83*
X55775Y55175D02*
D03*
X57425D02*
D03*
Y56425D02*
D03*
X55775D02*
D03*
D84*
X52900Y59747D02*
D03*
Y56953D02*
D03*
X24750Y41353D02*
D03*
Y44147D02*
D03*
X32000Y26647D02*
D03*
Y23853D02*
D03*
D85*
X86550Y325D02*
D03*
X88450D02*
D03*
Y-1825D02*
D03*
X87500D02*
D03*
X86550D02*
D03*
D86*
X30950Y10800D02*
D03*
X33250D02*
D03*
X35550D02*
D03*
D87*
X33250Y16700D02*
D03*
M02*
