M48
FMAT,2
T1C0.0059
T2C0.0256
T3C0.0394
T4C0.0394
T5C0.0783
T6C0.1280
%
T1
X000023992Y000067323
X000024012Y000068406
X000024701Y000067225
X000028422Y000068406
Y000067343
X000034544Y000067225
X000036906
X000047654Y00006752
X000050666Y00006817
X000051178Y000067898
X000055804Y000067225
X0000563Y000067955
X000058559Y000068012
X000059544Y00006763
X000060134Y000068012
X000062103Y000067225
X000062989Y000067855
X000063579Y000067914
X000064465Y000067225
X000016827Y000069981
X000019288Y000070453
X000020233Y000070965
X000022339Y000070768
X000024307
X00002667Y000070374
X000028638Y000070768
X000032378Y000069567
X000033363Y000069981
X000035725
X000038087
X000039209Y000069587
X000040449Y0000688
X000040489Y000070591
X000041886Y000070965
X000041926Y000068622
X000042713Y000069607
X000043363Y000069567
X0000435Y000069174
X000043579Y000070926
X000043776Y000069252
X000043894Y000069567
X000044414Y00006967
X0000448Y000069272
X000044839Y000070611
X000044977Y000069469
Y000069292
X000045445Y000070162
X000045449Y000070552
X000046611Y000070178
X000046689Y0000688
X000046748Y000070532
X000047339Y000069528
X000047378Y000068701
X000048363Y00007
X000048815Y000068524
X000048882Y00007
X000049193Y000070477
X000049217Y000070953
X000049981Y00006963
X000050304Y000070453
X000050744Y000070445
X00005104Y000070453
X000051315Y000070867
X000051327Y000070634
X000051532Y000070256
X00005163Y000070552
X000051866
X000052063Y00007065
X000052752Y000069292
X000053107Y000070571
X000053304Y000069154
X000053579Y00007063
X000054898Y00006876
X000055646Y000069134
X000056985Y000070374
X000057634Y000070481
Y000068485
X000058914Y000070237
X000059859Y000068918
X000060174
X000060685Y000070847
X000061453Y000068528
X000062004Y000069607
X000062634Y000069725
X000063284Y000070768
X000067221Y000069981
X000016827Y000072343
X000024307Y000073524
X000033678Y000073347
X00003415Y000071556
X000036906
X000040213Y000071752
X000040489Y000071063
X000041827Y000072245
X000042339Y000073229
X000042359Y000072737
X000043461Y000072973
X000043599Y000073426
X000043618Y000071339
X000044189Y000072343
X000044248Y000072934
Y000073504
X00004476Y000071729
X00004478Y000072934
Y000073485
Y000072363
X000044977Y000071753
X000045331Y000073485
Y000072934
X000045351Y000072343
X000045804Y000071772
X000045961Y000073032
Y000072638
X000045981Y000073426
X000046414Y000073012
X000046886
X000047142Y000072441
Y000071949
X000047437Y000073052
X000050292Y000072737
X000050685Y000073091
X000050823Y000071477
X000051689Y000072481
X000053579Y000073327
X000054386Y000072559
X000054701Y000072934
X000054721Y000073524
X000055213Y000071004
X000056492Y000072126
Y000073308
X000056748Y00007128
X000057772Y000073327
X000057851Y000072737
X000058205Y000072402
X000058559Y000072579
X000058953Y00007128
X000059741Y000072441
X000059937Y000072874
X000060705Y000071162
X000061256Y000072048
X000061374Y000071752
X000061414Y000071162
X000062575Y000073327
X000062615Y000072835
X000067221Y000073524
Y000071556
X000016827Y000074705
X000019189
X000021945Y000075493
X000023776Y000076083
X00002417Y000075256
X000024701Y000075178
X00002539
X000027851Y000074705
X000029052Y000073642
X000030705Y000075158
X000030709Y000075374
X000031052Y000074697
X000031055Y000074941
X000031489Y000075343
X000031764
X000041276Y000075985
X000041729Y000075748
X000042319Y000074685
Y000074213
X000042339Y000073721
X000044268Y000075374
X000044465Y000075079
X000044681Y000074252
X000044878Y000074567
X000045075Y000074174
X000045252Y000074922
X000045449Y000074371
X000046217Y000075355
X000047674Y000074804
X000047772Y000073859
X000048815Y000075532
X000049111Y00007441
X000051079Y000075493
Y000074311
X000052654Y000073918
X000054071Y000074508
X000054347Y000075394
X000054406Y00007439
X000054622Y000074095
Y000075886
X000058067Y000074311
X000058559Y000074764
X000058855
X000060252Y000074508
X000061768Y000075394
X000062615Y00007441
Y000075099
X000064071Y000074115
X000065646Y000075493
X000067221
X000016827Y000077067
X000017355Y000078445
X000017741Y000077784
X000018205Y000077422
X000018638Y000077792
X000022536Y000078544
Y000077855
X000022615Y000076122
X000022674Y000076674
X000023815Y000076693
X000023933Y000077264
X000024052Y000078406
X00002417Y000076418
X000024209Y000077658
X000024307Y000076969
X000024504Y000078544
Y000077559
Y000077363
Y000077756
X000024701Y000077559
Y000078347
Y000078544
Y000077953
X000024898Y000078347
Y000078544
Y000077166
Y000077559
Y000077363
X000025095
Y000077166
Y000077559
Y00007815
Y000078347
X000025292Y000078544
Y000078347
Y000077953
Y000077559
X000025489Y00007815
Y000078544
X000025685Y00007815
Y000077363
X000025784Y000076772
X000025941Y00007815
X000025981Y000077756
X000026079Y000076595
X000026178Y00007817
X000026217Y000078524
X000026237Y000077067
Y000077658
X000026768Y000076595
X0000273Y000077422
X000027457Y000078347
X000027654Y000077067
X000027713Y000077796
X000029189Y000077776
X000029681Y000076851
X000029898
X000031788Y000078642
X000033205Y00007752
X000034406Y000077363
X000034843Y000077575
X00003565Y000077571
X000036Y000077441
X000036394
X000036945Y000077559
X000037189Y000077563
X000038048Y000078386
X000040508Y000076733
X000043559Y000076969
X000044426Y000077284
Y000077756
X000045784Y000076575
X000051256Y000077559
X000051453Y000078347
X000052654Y00007628
X000052772Y000077953
X000053008Y000076772
X000054918Y000077481
X000055607Y000077284
X000056059Y000078386
Y00007817
X000056689Y000077067
X000056985Y000078248
X000057181Y000077067
X000057674
X000058166Y000077107
X000058658
X000059248Y000077146
X000059701Y000077126
X000060823Y000077087
X000061217
X000061414Y000077107
X000061492Y000076241
X000063481Y000077325
X000063634Y000076329
X000063638Y000076526
X000063642Y000076121
X000065055Y000078347
X000067221Y000077461
X000016827Y00007943
X000017721Y000079063
X000018201Y000079335
X000018678Y000079044
X00002037Y000081004
X000022477Y000079666
X000022733Y000080808
X000023678Y000079666
X000023678Y000079174
X000024603Y000078819
X0000248Y00008065
X00002537Y000079371
X00002539Y000080532
Y000078957
X000025685Y000078859
X000025922Y000079213
Y00007878
X000025981Y000080611
X000026296Y000078937
X000026453Y00007943
X000027654
X000027654Y000078937
X000028146Y000080945
X000029426Y000079823
X000029701Y000080926
X000030213Y000080768
X000031689Y00007943
X000031985Y000080119
X000032457Y000081044
X00003287Y000080611
X000033166Y00007878
X00003352Y000081044
X00003354Y000080296
X000033756Y00008063
X000033835Y00007878
X000034426Y000078937
X000034524Y000079981
X000034741Y000081083
Y000080276
X000034839Y000079587
X000034859Y000079311
X000034898Y00008004
X000034918Y000080434
X000035567Y000080315
Y000079548
Y000079941
X000035634Y000078957
X000035859
X000035902Y000080985
X000035941Y000079528
Y000080315
X00003595Y000079937
X000036158Y000080985
X000036355Y000079941
Y000080335
Y000079528
X000036512Y000078721
X000036906Y00007876
X000036945Y000079843
X000037004Y000081083
X000037142Y000079445
X000037181Y00007876
X00003726Y000080512
X000038441Y00008002
X000038481Y000081103
Y000080473
Y000080906
X00003854Y000079528
X000038618Y000079075
X000038717Y000081063
X000038914Y00008004
X000039819Y000081103
X000039898Y000080512
X000040449Y000078741
Y000080768
X000040469Y000081063
X000042989Y000080493
X000044268Y000080178
X000044386Y000081004
X000044681Y000080906
X000045018Y000080819
X000045748Y000079626
X000045784Y000079134
X000046729Y00008004
X000047733Y000078957
X000049898Y00007943
X000050347Y000079398
X000050548Y00007939
X000050733Y000079386
X000051217Y00007939
X000051355Y000080512
X000051866Y000081024
X000052111
X000052615Y000080178
X000053796Y000079508
X000054996Y000080158
X000055134Y000080315
X000055272Y000080434
X000056492Y000080217
X00005728Y000079233
X000058658Y000080217
X000058756Y000079233
X000061217Y000080355
X000062989Y000081201
Y000081004
Y000080217
Y00008002
Y000080414
X000063284Y000079036
X000065154Y00008002
Y000081201
Y000080217
Y000081004
Y000080414
X000066138Y000078839
X000067221Y000079823
X000016827Y000081792
X00002037Y000083367
X000022024Y000082874
X0000223Y000083682
Y000083367
X000022339Y000081792
X000022615Y000083682
Y000083367
X000022929Y000083682
Y000083367
X000023205Y000082874
X000023638Y00008191
Y00008313
X000024032Y000083052
Y00008191
X000024504Y000083367
Y000083682
X000024819Y000083367
X000028107
X000028205Y000082126
X000028225Y00008315
X000028796Y000083229
X000029032Y000082363
X00002913Y000082855
X000029544Y000082107
X000029701Y000081752
X000029741Y000083367
X000030055
Y000083111
Y000083682
X00003037
X000030685Y000083367
Y000083682
X000030902Y000082835
Y000081733
X000031Y000083682
Y000083367
X000031315
Y000083682
X000031394Y000082835
Y000081733
X00003163Y000083682
Y000083367
X000031886Y000081733
Y000082835
X00003226Y000083367
Y000083682
X000032378Y000082835
Y000081752
X000032575Y000083682
Y000083367
X00003287Y000081457
X00003289Y000081713
Y000083682
Y000083367
X000033205Y000083682
Y000083367
X000033363Y000081674
X00003352Y000083682
X000033835Y000082835
Y000083682
X000033855Y000081733
X000033973Y000081457
X00003415Y000083682
Y000083367
X000034715Y000082318
X00003476Y000083682
X000035115Y000082481
X000035528
X000035941
X000036296
X000036689
X000036729Y000083682
X000037024Y000082481
X000037241
X000037457
X000037851Y000083367
X000038855Y000082481
X000039347Y000082441
X000042181
X000042713Y000082422
X000043067Y000082402
X000043244Y000083012
X000043441Y000082402
X00004354Y00008315
X000043758Y000082402
X000044073Y000082441
X000047221Y000082461
X000047536Y000082422
X000048008Y000082776
X000048382Y000081772
X000048737Y000083445
Y000083682
X000049898Y000081792
X000050685Y000083367
X000050882Y000082559
X000051591Y000082264
X000052555Y000082422
X000053284Y000083229
X000053776Y000082284
X000059544
X000060626Y000083367
X000060725Y000081398
X000062319Y000081339
X000062989Y000082185
Y000081398
Y000081989
Y00008317
Y000082973
Y000083367
Y000082382
X000065154Y000081398
Y000082185
Y00008317
Y000082382
Y000081989
Y000083367
Y000082973
X000067221Y000082579
X000016827Y000084154
X000017729Y000086028
X000018217Y000085733
X000018835Y000085886
X000020134Y000086004
X000020429Y000085808
Y000086201
Y000084784
X000021591
X000021985Y000085571
X0000223Y000084311
Y000085256
Y000083996
Y000085886
Y000084941
X000022615Y000085571
Y000085886
Y000084626
Y000085256
Y000083996
Y000084311
X000022929Y000083996
Y000084311
Y000084626
X000022969Y000086044
X000023244Y000084587
X000023481Y000085374
X000023717Y000083996
X000023855Y000084331
X000024189Y000084311
Y000083996
Y000085256
Y000085571
X000024491Y000084311
X000024504Y000085571
Y000083996
Y000084941
Y000085886
X000024898Y000085729
Y000086044
X000025016Y000084784
X000025174Y000083918
Y000084626
Y000084311
X000025233Y000085571
X000025292Y000086044
X000026355Y000083918
Y000084705
Y000084311
X000026492Y000085926
X00002663Y000084902
X000027044Y000084233
X000027733Y000085906
Y000084843
Y000085434
X000028953Y000084843
X000028973Y000085926
Y000085434
X000029052Y000084233
X000029347Y000085414
Y000085099
Y000084784
X000029426Y000086201
Y000084311
Y000083996
X000029741Y000084941
Y000084311
Y000084626
Y000085886
Y000083996
Y000085256
Y000086201
X000030055Y000084311
Y000084941
Y000084626
Y000085886
Y000086201
Y000085256
Y000083996
X00003037Y000084626
Y000085571
Y000084311
Y000085886
Y000083996
Y000085256
Y000084941
Y000086201
X000030685Y000084311
Y000084626
Y000083996
Y000085256
Y000086201
Y000084941
Y000085886
X000031Y000083996
Y000086201
Y000085256
Y000085886
Y000084311
Y000084941
Y000084626
X000031315Y000084941
Y000084311
Y000084626
X00003163Y000084311
Y000083996
Y000084626
Y000084941
X000031945Y000083996
Y000084941
Y000084626
X00003226
Y000084941
Y000083996
X000032575Y000085256
Y000086201
Y000084941
Y000083996
Y000084311
Y000084626
Y000085886
X00003289Y000084311
Y000084626
Y000084941
Y000086201
Y000085886
Y000085256
X000033205Y000086201
Y000084626
Y000085867
Y000083996
Y000085256
Y000084311
Y000084941
X00003352Y000086201
Y000085886
Y000084626
Y000084941
Y000083996
Y000084311
Y000085256
X000033835Y000086201
Y000083996
Y000084626
Y000085256
Y000084311
X00003415Y000086201
Y000084311
Y000084626
X000034721Y000085847
X000034859Y000085138
Y00008565
Y000086024
X000035961Y000085138
X000035981Y000086024
X000036Y00008567
X00003604Y000084548
X000036237Y000086024
X00003667Y000085119
X000037496Y000086221
X000037555Y000085138
X000037674Y000084587
X000038107Y000085886
X000038914Y00008563
X000039347Y000084725
X000040744Y000085788
X000040764Y000084351
X000041079Y000085985
X000041237Y000085119
X000041492Y000085926
X000042615Y00008504
X000044091Y000084882
X00004413Y000085867
X000045115Y000084882
X000045193Y000084469
X000045764Y000085611
X000046217Y000085178
X000046276Y000084016
X000046689Y000085808
X000047063Y000084154
X000047319
X000050685Y000084941
X00005226Y000084154
X000053048Y000084941
X00005541Y000084154
X000057835Y00008513
Y00008493
X000058445Y0000848
X000058662
X000058756Y000084252
X000058953Y000084154
X000059052Y000085932
X000059248Y00008563
X000059347Y000085926
X000060705Y000085355
X000061099Y000084351
X000062496Y00008563
X000063067Y000086083
Y000085197
X000063244Y000084351
X000063638Y00008563
X000066059Y000084351
X000066079Y00008563
X00006665Y000086083
Y000085197
X000067221Y00008563
Y000084548
X000016827Y000086516
Y000088878
X000017492Y000086709
X000017685Y000087323
X000018205Y000087619
X000018831Y000087343
X000019162Y000086713
X000019189Y000088878
X000020134Y000088308
X00002041Y000086792
X000020429Y00008817
X000020449Y000087776
Y000086575
X000020469Y000087559
Y000087008
Y000087343
X000021591Y00008817
X00002163Y000086595
Y000087776
X000021906Y000086359
Y000087304
Y000086989
X0000223Y000087146
X000022615
Y000087461
X000022929Y000087776
Y000086516
Y000088091
X00002352Y00008691
X000023796Y000086674
X000023901Y000088549
X000024189Y000086831
X000024293Y000088496
X000024504Y000087776
X000024937Y000086674
X000025252Y000087225
X000025292Y000087619
X000026433Y000086437
Y000088406
Y000088012
Y000087619
X000026433Y000087245
X000026453Y00008693
X000026473Y000086713
X000027083Y000088721
X000027733Y000086516
X000027851Y000088111
X000028933Y000086516
X000028953Y000087146
X000029055Y000088095
X000029426Y000087461
Y000087776
Y000086831
Y000086516
Y000087146
X000029622Y000088406
X000029741Y000088091
Y000087776
Y000086831
Y000087461
Y000087146
Y000086516
X000030055Y000087776
Y000088091
Y000088406
Y000086831
Y000087146
Y000087461
X00003037
Y000086831
Y000086516
Y000087146
Y000087776
Y000088091
X000030607Y000088406
X000030685Y000086831
Y000087776
Y000087461
Y000086516
Y000088091
Y000087146
X000031Y000088091
Y000087776
Y000086831
Y000087146
Y000087461
Y000088426
Y000086516
X000031315Y000087776
Y000086516
Y000087146
Y000086831
Y000088091
Y000087461
X00003163Y000087146
Y000086831
Y000087461
Y000087776
Y000086516
X000031945Y000087146
Y000087461
Y000086516
Y000086831
Y000087776
X000032083Y000088406
X00003226Y000086516
Y000087461
Y000087776
Y000087146
Y000086831
X000032575Y000087776
X00003289
Y000086831
Y000087461
Y000086516
Y000087146
X000033048Y00008813
X000033205Y000087461
Y000086831
Y000086516
X000033225Y000087146
X000033363Y00008813
X0000335Y000087461
X00003352Y000086516
Y000086831
Y000087146
X000033835Y000086516
Y000086831
Y000087776
Y000088091
X000034052Y000088406
X00003415Y000086831
Y000088091
X000034189Y000087776
X000034386Y000087461
X000034504Y000086496
X000034741Y000087579
X000034859Y000087304
Y000088288
Y000086516
X000035351Y000086989
X00003602Y000088288
X00003604Y000087481
Y000087894
Y000088701
Y000086516
X000036256Y000087067
X000037457Y000087107
X000037496Y000088682
X000037752Y000087166
X000038658Y000086634
X000038894Y000086831
X000039307
X000039583Y000086575
X00003978Y000086831
X000040941Y000087894
X00004102Y000086634
X000041729Y000087697
X000043126Y000087008
X000043697Y000087599
X000044406Y000088091
X000044445Y000087028
X000044465Y000087697
X000048382Y000087028
Y000088032
Y00008754
X000049898Y000087304
X000051394Y000086772
X00005226Y000086516
X000053441Y000087697
X000053992Y000088859
X000055016Y000087697
X000057378
X000058559Y000088032
X000062437Y000088327
X000064701Y000088386
X000065981Y000088012
X000066847Y000087973
X000067221Y000086516
X000016827Y000091241
X000018008Y000090059
X000019189Y000091241
X000022103Y000089666
X000022418Y000091004
X000022496Y000089666
X0000235
X000023894
X000024288
X000024681
X000025075
X000027359Y000089646
X000027437Y000090867
X000027851Y000090158
X000028717Y000089174
X000029406Y000089961
X000029544Y000091418
X000029622Y000089548
X000030055Y000089508
X000030449Y000089587
X000030922Y000090119
X000031099Y000089548
X000031591
X000031748Y000091182
X000032083Y000089548
X000032162Y000090119
X000032201Y000089863
X000034052Y000089567
X000034859Y000089056
X000034898Y000089764
X000035823Y000091339
X00003604Y000089056
X000036374Y000090197
X000036709Y000089961
X000036926
X000038323Y000089469
X00003917Y00009065
X000040764Y000089922
X000044386Y000089666
X000046748
X000048914
X000049583Y000090059
X000050095Y000090059
X000050587Y00009126
Y000090059
X000051079
X000051926Y000089607
X000052752Y0000913
Y000090059
X000053244
Y0000913
X000053717Y00009126
X000053737Y000090059
X000054406Y000089174
X000056197Y000089863
X000056985Y000090847
X000058166Y000089863
X000058658Y000090217
X000059386Y000089351
X000060252Y000090256
X000063441Y000091142
X000064229Y000090296
X000065311Y000090276
X000067221Y000090059
X000023756Y000092185
X000026571Y000092323
X000028973Y000093485
Y000093288
X000031945Y000092008
X000032575Y000093012
X000032772Y000091634
X000037004Y000092422
X000038284Y000092717
X000038678Y00009193
X000038697Y000093721
X000038933Y000093898
X000039583Y000092185
X000039859Y000091831
X000040577Y000093573
X000045174Y000093603
Y000092028
X000046355Y000092815
X000047536Y000092028
X000049111Y000093603
X000049701Y000093308
X000050154Y000092304
X000051473Y000092264
X000051866Y000093209
X000052339Y000092264
X000054229Y000093209
X000055607Y000091634
X000057615Y000093386
Y000092225
X000062418Y000093819
X000067221Y000092815
X000028953Y000094272
Y000094489
X00002915Y000095414
X000029347Y000096378
X000030016Y00009439
X000031Y000095178
X000033134Y000095394
X000033756Y000096
Y000094772
X000034477Y000095394
X000034544Y000094193
X000036709Y000095178
X000037103Y000096359
X00003789Y000094292
X000038973Y000094882
X00003915Y000094528
X00003917Y000095808
X000039219Y000094065
X000040154Y000095886
X000040626Y000094056
X000041138Y000095709
X000041335Y000095926
X000041453Y000094882
X000043323Y000095886
X000044878Y000095975
X000051473Y000094784
X000053835
X000055607Y000095965
X000056591Y000094784
X000062693Y000095965
X000064071
X000067221Y000094784
X000023914Y000097934
X000026276
X000028638
X000031
X000032969Y000097146
X000033363Y00009813
X000035725
X000037693
X000039366Y000096684
X000039941Y000096839
X000040548Y000096684
X000041721Y000096847
X000041926Y000096684
X000042103Y000097107
X000042319Y000096684
X000042811Y000096811
X000043087Y000096772
X000043205Y000097934
X000043481Y000096792
X000043725Y00009743
X000043894Y00009726
X000044091Y000097107
X000044268Y000096871
X00004478Y000097934
X000047536
X0000498
X000051473Y00009754
X000053835
X000056197Y000097934
X000061866
X000064071
X000040449Y00009813
T2
X000043415Y000068743G85X000043415Y000068665
X000045167Y000068743G85X000045167Y000068665
X000050302Y00006877G85X000050302Y000068691
X000052054Y00006877G85X000052054Y000068691
T3
X000029465Y000067603
X000030725
X000043415Y000067326
X000045167
X000050302Y000067353
X000052054
X000017615Y000071851
X000029465Y000068603
X000030725
X00005868Y000068504
X00006041
X000065528Y000073154
Y000071154
Y000072154
Y000074154
T4
X000033874Y000095394G85X000033638Y000095394
T5
X000021866Y0000688
X000026276
X000021866Y000071556
X000026276
T6
X000018008Y000068406
X000033298Y000068381
X000038298
X00006604Y000068406
X000018008Y000096752
X00006604
M30
