G04*
G04 #@! TF.GenerationSoftware,Altium Limited,Altium Designer,19.0.13 (425)*
G04*
G04 Layer_Color=16711935*
%FSLAX43Y43*%
%MOMM*%
G71*
G01*
G75*
%ADD12C,0.250*%
%ADD96C,1.100*%
%ADD97C,0.703*%
%ADD98C,1.003*%
%ADD99O,1.203X1.403*%
%ADD100R,1.603X2.353*%
%ADD101C,1.830*%
%ADD102C,1.981*%
%ADD103R,1.981X1.981*%
%ADD104C,1.727*%
%ADD105C,2.703*%
%ADD106R,2.400X1.700*%
%ADD107C,0.800*%
%ADD108C,0.750*%
%ADD109C,6.703*%
%ADD210R,0.600X2.100*%
%ADD211R,0.450X2.400*%
%ADD212R,1.400X0.450*%
%ADD213R,0.500X1.050*%
G36*
X268677Y-109472D02*
X268703D01*
X268773Y-109479D01*
X268851Y-109490D01*
X268933Y-109509D01*
X269021Y-109531D01*
X269103Y-109560D01*
X269107D01*
X269114Y-109564D01*
X269125Y-109572D01*
X269140Y-109579D01*
X269177Y-109598D01*
X269225Y-109631D01*
X269281Y-109668D01*
X269336Y-109716D01*
X269388Y-109772D01*
X269436Y-109835D01*
Y-109838D01*
X269440Y-109842D01*
X269447Y-109853D01*
X269455Y-109864D01*
X269473Y-109901D01*
X269495Y-109949D01*
X269521Y-110009D01*
X269540Y-110079D01*
X269558Y-110153D01*
X269566Y-110234D01*
X269240Y-110260D01*
Y-110257D01*
Y-110249D01*
X269236Y-110238D01*
X269233Y-110220D01*
X269221Y-110179D01*
X269207Y-110123D01*
X269184Y-110064D01*
X269151Y-110005D01*
X269110Y-109949D01*
X269059Y-109897D01*
X269051Y-109894D01*
X269033Y-109879D01*
X268996Y-109857D01*
X268947Y-109835D01*
X268884Y-109812D01*
X268810Y-109790D01*
X268718Y-109775D01*
X268614Y-109772D01*
X268562D01*
X268540Y-109775D01*
X268510Y-109779D01*
X268444Y-109786D01*
X268370Y-109801D01*
X268296Y-109820D01*
X268225Y-109849D01*
X268196Y-109868D01*
X268166Y-109886D01*
X268159Y-109890D01*
X268144Y-109905D01*
X268122Y-109931D01*
X268099Y-109960D01*
X268073Y-110001D01*
X268051Y-110046D01*
X268036Y-110097D01*
X268029Y-110157D01*
Y-110164D01*
Y-110179D01*
X268033Y-110205D01*
X268040Y-110234D01*
X268051Y-110271D01*
X268070Y-110309D01*
X268092Y-110346D01*
X268125Y-110383D01*
X268129Y-110386D01*
X268147Y-110397D01*
X268162Y-110409D01*
X268177Y-110416D01*
X268199Y-110427D01*
X268225Y-110442D01*
X268259Y-110453D01*
X268296Y-110468D01*
X268336Y-110483D01*
X268384Y-110501D01*
X268436Y-110516D01*
X268496Y-110534D01*
X268562Y-110549D01*
X268636Y-110568D01*
X268640D01*
X268655Y-110571D01*
X268677Y-110575D01*
X268703Y-110583D01*
X268736Y-110590D01*
X268777Y-110601D01*
X268818Y-110612D01*
X268862Y-110623D01*
X268958Y-110649D01*
X269051Y-110675D01*
X269096Y-110690D01*
X269136Y-110705D01*
X269173Y-110716D01*
X269203Y-110731D01*
X269207D01*
X269214Y-110734D01*
X269225Y-110742D01*
X269240Y-110749D01*
X269281Y-110771D01*
X269329Y-110801D01*
X269384Y-110842D01*
X269440Y-110886D01*
X269492Y-110938D01*
X269536Y-110994D01*
X269540Y-111001D01*
X269555Y-111020D01*
X269570Y-111053D01*
X269592Y-111097D01*
X269610Y-111149D01*
X269629Y-111212D01*
X269640Y-111283D01*
X269644Y-111357D01*
Y-111360D01*
Y-111364D01*
Y-111375D01*
Y-111390D01*
X269636Y-111431D01*
X269629Y-111482D01*
X269614Y-111542D01*
X269595Y-111605D01*
X269566Y-111671D01*
X269525Y-111742D01*
Y-111745D01*
X269521Y-111749D01*
X269503Y-111771D01*
X269477Y-111805D01*
X269440Y-111842D01*
X269392Y-111886D01*
X269333Y-111934D01*
X269266Y-111979D01*
X269188Y-112019D01*
X269184D01*
X269177Y-112023D01*
X269166Y-112027D01*
X269151Y-112034D01*
X269129Y-112042D01*
X269103Y-112053D01*
X269044Y-112068D01*
X268973Y-112086D01*
X268888Y-112105D01*
X268796Y-112116D01*
X268696Y-112119D01*
X268636D01*
X268607Y-112116D01*
X268573D01*
X268536Y-112112D01*
X268492Y-112108D01*
X268399Y-112094D01*
X268303Y-112079D01*
X268207Y-112053D01*
X268114Y-112019D01*
X268110D01*
X268103Y-112016D01*
X268092Y-112008D01*
X268077Y-112001D01*
X268033Y-111979D01*
X267981Y-111945D01*
X267922Y-111901D01*
X267859Y-111849D01*
X267799Y-111786D01*
X267744Y-111716D01*
Y-111712D01*
X267736Y-111705D01*
X267733Y-111694D01*
X267722Y-111679D01*
X267714Y-111660D01*
X267703Y-111638D01*
X267677Y-111582D01*
X267651Y-111512D01*
X267629Y-111434D01*
X267614Y-111345D01*
X267607Y-111253D01*
X267925Y-111223D01*
Y-111227D01*
Y-111231D01*
X267929Y-111242D01*
Y-111257D01*
X267936Y-111290D01*
X267948Y-111338D01*
X267962Y-111386D01*
X267977Y-111442D01*
X268003Y-111494D01*
X268029Y-111542D01*
X268033Y-111545D01*
X268044Y-111560D01*
X268062Y-111586D01*
X268092Y-111612D01*
X268129Y-111645D01*
X268170Y-111679D01*
X268225Y-111712D01*
X268284Y-111742D01*
X268288D01*
X268292Y-111745D01*
X268303Y-111749D01*
X268314Y-111753D01*
X268351Y-111764D01*
X268399Y-111779D01*
X268459Y-111794D01*
X268525Y-111805D01*
X268599Y-111812D01*
X268681Y-111816D01*
X268714D01*
X268751Y-111812D01*
X268796Y-111808D01*
X268847Y-111801D01*
X268907Y-111794D01*
X268966Y-111779D01*
X269021Y-111760D01*
X269029Y-111757D01*
X269047Y-111749D01*
X269073Y-111734D01*
X269107Y-111719D01*
X269140Y-111694D01*
X269177Y-111668D01*
X269214Y-111638D01*
X269244Y-111601D01*
X269247Y-111597D01*
X269255Y-111582D01*
X269266Y-111564D01*
X269281Y-111534D01*
X269296Y-111505D01*
X269307Y-111468D01*
X269314Y-111427D01*
X269318Y-111382D01*
Y-111379D01*
Y-111360D01*
X269314Y-111338D01*
X269310Y-111308D01*
X269299Y-111279D01*
X269288Y-111242D01*
X269270Y-111205D01*
X269244Y-111171D01*
X269240Y-111168D01*
X269229Y-111157D01*
X269214Y-111142D01*
X269188Y-111120D01*
X269158Y-111097D01*
X269118Y-111071D01*
X269070Y-111046D01*
X269014Y-111023D01*
X269010Y-111020D01*
X268992Y-111016D01*
X268962Y-111005D01*
X268944Y-111001D01*
X268918Y-110994D01*
X268892Y-110983D01*
X268859Y-110975D01*
X268821Y-110964D01*
X268777Y-110953D01*
X268733Y-110942D01*
X268681Y-110927D01*
X268621Y-110912D01*
X268559Y-110897D01*
X268555D01*
X268544Y-110894D01*
X268525Y-110890D01*
X268503Y-110883D01*
X268473Y-110875D01*
X268440Y-110868D01*
X268366Y-110846D01*
X268284Y-110820D01*
X268199Y-110794D01*
X268125Y-110768D01*
X268092Y-110753D01*
X268062Y-110738D01*
X268059D01*
X268055Y-110734D01*
X268033Y-110720D01*
X267999Y-110701D01*
X267962Y-110671D01*
X267918Y-110638D01*
X267873Y-110597D01*
X267829Y-110549D01*
X267792Y-110497D01*
X267788Y-110490D01*
X267777Y-110471D01*
X267762Y-110442D01*
X267748Y-110405D01*
X267733Y-110357D01*
X267718Y-110301D01*
X267707Y-110242D01*
X267703Y-110179D01*
Y-110175D01*
Y-110172D01*
Y-110160D01*
Y-110146D01*
X267710Y-110109D01*
X267718Y-110060D01*
X267729Y-110005D01*
X267748Y-109942D01*
X267773Y-109879D01*
X267810Y-109816D01*
Y-109812D01*
X267814Y-109809D01*
X267833Y-109786D01*
X267859Y-109757D01*
X267892Y-109720D01*
X267936Y-109679D01*
X267992Y-109635D01*
X268059Y-109594D01*
X268133Y-109557D01*
X268136D01*
X268144Y-109553D01*
X268155Y-109549D01*
X268170Y-109542D01*
X268188Y-109535D01*
X268214Y-109527D01*
X268270Y-109512D01*
X268340Y-109498D01*
X268422Y-109483D01*
X268507Y-109472D01*
X268603Y-109468D01*
X268651D01*
X268677Y-109472D01*
D02*
G37*
G36*
X263811D02*
X263841D01*
X263911Y-109479D01*
X263989Y-109490D01*
X264070Y-109509D01*
X264159Y-109531D01*
X264244Y-109560D01*
X264248D01*
X264255Y-109564D01*
X264266Y-109568D01*
X264281Y-109575D01*
X264322Y-109598D01*
X264374Y-109623D01*
X264429Y-109660D01*
X264489Y-109705D01*
X264544Y-109753D01*
X264596Y-109812D01*
X264603Y-109820D01*
X264618Y-109842D01*
X264640Y-109875D01*
X264670Y-109923D01*
X264700Y-109983D01*
X264733Y-110057D01*
X264766Y-110138D01*
X264792Y-110231D01*
X264485Y-110312D01*
Y-110309D01*
X264481Y-110305D01*
X264477Y-110294D01*
X264474Y-110279D01*
X264463Y-110246D01*
X264448Y-110201D01*
X264426Y-110149D01*
X264400Y-110101D01*
X264374Y-110049D01*
X264340Y-110005D01*
X264337Y-110001D01*
X264326Y-109986D01*
X264303Y-109968D01*
X264277Y-109942D01*
X264244Y-109912D01*
X264200Y-109883D01*
X264152Y-109853D01*
X264096Y-109827D01*
X264089Y-109823D01*
X264070Y-109816D01*
X264037Y-109805D01*
X263992Y-109790D01*
X263941Y-109779D01*
X263881Y-109768D01*
X263815Y-109760D01*
X263744Y-109757D01*
X263703D01*
X263685Y-109760D01*
X263663D01*
X263607Y-109764D01*
X263544Y-109775D01*
X263474Y-109786D01*
X263407Y-109805D01*
X263341Y-109831D01*
X263333Y-109835D01*
X263311Y-109842D01*
X263281Y-109860D01*
X263244Y-109879D01*
X263200Y-109909D01*
X263152Y-109938D01*
X263107Y-109975D01*
X263067Y-110016D01*
X263063Y-110020D01*
X263048Y-110034D01*
X263029Y-110060D01*
X263007Y-110090D01*
X262981Y-110127D01*
X262955Y-110172D01*
X262930Y-110220D01*
X262904Y-110271D01*
Y-110275D01*
X262900Y-110283D01*
X262896Y-110294D01*
X262889Y-110312D01*
X262881Y-110334D01*
X262874Y-110360D01*
X262863Y-110390D01*
X262855Y-110423D01*
X262837Y-110501D01*
X262822Y-110590D01*
X262811Y-110683D01*
X262807Y-110786D01*
Y-110790D01*
Y-110801D01*
Y-110820D01*
X262811Y-110842D01*
Y-110871D01*
X262815Y-110908D01*
X262818Y-110946D01*
X262822Y-110986D01*
X262837Y-111079D01*
X262855Y-111175D01*
X262885Y-111271D01*
X262922Y-111364D01*
Y-111368D01*
X262930Y-111375D01*
X262933Y-111386D01*
X262944Y-111401D01*
X262970Y-111442D01*
X263011Y-111494D01*
X263059Y-111549D01*
X263118Y-111605D01*
X263189Y-111657D01*
X263267Y-111705D01*
X263270D01*
X263278Y-111708D01*
X263289Y-111716D01*
X263307Y-111723D01*
X263326Y-111731D01*
X263352Y-111738D01*
X263411Y-111760D01*
X263485Y-111779D01*
X263566Y-111797D01*
X263655Y-111812D01*
X263748Y-111816D01*
X263785D01*
X263807Y-111812D01*
X263829D01*
X263885Y-111805D01*
X263952Y-111797D01*
X264022Y-111782D01*
X264100Y-111760D01*
X264178Y-111734D01*
X264181D01*
X264189Y-111731D01*
X264196Y-111727D01*
X264211Y-111719D01*
X264252Y-111701D01*
X264296Y-111679D01*
X264348Y-111653D01*
X264403Y-111623D01*
X264455Y-111590D01*
X264500Y-111553D01*
Y-111071D01*
X263744D01*
Y-110768D01*
X264833D01*
Y-111719D01*
X264829Y-111723D01*
X264822Y-111727D01*
X264807Y-111738D01*
X264789Y-111753D01*
X264766Y-111768D01*
X264740Y-111786D01*
X264707Y-111808D01*
X264674Y-111831D01*
X264596Y-111879D01*
X264507Y-111931D01*
X264415Y-111979D01*
X264315Y-112019D01*
X264311D01*
X264303Y-112023D01*
X264289Y-112027D01*
X264270Y-112034D01*
X264244Y-112042D01*
X264215Y-112053D01*
X264181Y-112060D01*
X264148Y-112068D01*
X264066Y-112086D01*
X263974Y-112105D01*
X263874Y-112116D01*
X263770Y-112119D01*
X263733D01*
X263707Y-112116D01*
X263674D01*
X263633Y-112112D01*
X263589Y-112105D01*
X263541Y-112101D01*
X263433Y-112079D01*
X263318Y-112053D01*
X263200Y-112012D01*
X263141Y-111990D01*
X263081Y-111960D01*
X263078Y-111957D01*
X263067Y-111953D01*
X263052Y-111942D01*
X263029Y-111931D01*
X263004Y-111912D01*
X262978Y-111894D01*
X262907Y-111842D01*
X262833Y-111775D01*
X262755Y-111694D01*
X262681Y-111601D01*
X262615Y-111494D01*
Y-111490D01*
X262607Y-111479D01*
X262600Y-111464D01*
X262589Y-111438D01*
X262578Y-111412D01*
X262567Y-111375D01*
X262552Y-111338D01*
X262537Y-111294D01*
X262522Y-111245D01*
X262507Y-111190D01*
X262496Y-111134D01*
X262485Y-111075D01*
X262467Y-110946D01*
X262459Y-110808D01*
Y-110805D01*
Y-110790D01*
Y-110771D01*
X262463Y-110746D01*
Y-110712D01*
X262467Y-110671D01*
X262474Y-110631D01*
X262478Y-110583D01*
X262489Y-110531D01*
X262496Y-110475D01*
X262526Y-110357D01*
X262563Y-110234D01*
X262615Y-110112D01*
X262618Y-110109D01*
X262622Y-110097D01*
X262630Y-110083D01*
X262644Y-110060D01*
X262659Y-110031D01*
X262678Y-110001D01*
X262730Y-109931D01*
X262792Y-109849D01*
X262870Y-109772D01*
X262959Y-109694D01*
X263011Y-109660D01*
X263063Y-109627D01*
X263067Y-109623D01*
X263078Y-109620D01*
X263092Y-109612D01*
X263115Y-109601D01*
X263144Y-109590D01*
X263178Y-109575D01*
X263215Y-109560D01*
X263259Y-109546D01*
X263307Y-109531D01*
X263359Y-109520D01*
X263415Y-109505D01*
X263474Y-109494D01*
X263603Y-109475D01*
X263670Y-109468D01*
X263789D01*
X263811Y-109472D01*
D02*
G37*
G36*
X266351Y-109516D02*
X266381D01*
X266448Y-109523D01*
X266522Y-109531D01*
X266599Y-109546D01*
X266677Y-109564D01*
X266748Y-109590D01*
X266751D01*
X266755Y-109594D01*
X266777Y-109605D01*
X266811Y-109623D01*
X266848Y-109649D01*
X266892Y-109683D01*
X266940Y-109723D01*
X266985Y-109775D01*
X267025Y-109831D01*
X267029Y-109838D01*
X267040Y-109860D01*
X267059Y-109890D01*
X267077Y-109935D01*
X267096Y-109986D01*
X267114Y-110042D01*
X267125Y-110105D01*
X267129Y-110168D01*
Y-110175D01*
Y-110194D01*
X267125Y-110227D01*
X267118Y-110268D01*
X267107Y-110316D01*
X267088Y-110368D01*
X267066Y-110420D01*
X267036Y-110475D01*
X267033Y-110483D01*
X267022Y-110497D01*
X266999Y-110527D01*
X266970Y-110557D01*
X266933Y-110594D01*
X266888Y-110634D01*
X266833Y-110671D01*
X266770Y-110708D01*
X266774D01*
X266781Y-110712D01*
X266792Y-110716D01*
X266807Y-110723D01*
X266851Y-110738D01*
X266903Y-110764D01*
X266959Y-110797D01*
X267022Y-110838D01*
X267077Y-110886D01*
X267129Y-110946D01*
X267133Y-110953D01*
X267148Y-110975D01*
X267170Y-111008D01*
X267192Y-111053D01*
X267214Y-111112D01*
X267236Y-111175D01*
X267251Y-111249D01*
X267255Y-111331D01*
Y-111334D01*
Y-111338D01*
Y-111360D01*
X267251Y-111397D01*
X267244Y-111442D01*
X267236Y-111494D01*
X267222Y-111549D01*
X267203Y-111608D01*
X267177Y-111668D01*
X267173Y-111675D01*
X267162Y-111694D01*
X267148Y-111719D01*
X267125Y-111757D01*
X267096Y-111794D01*
X267066Y-111834D01*
X267029Y-111875D01*
X266988Y-111908D01*
X266985Y-111912D01*
X266970Y-111923D01*
X266944Y-111938D01*
X266911Y-111953D01*
X266870Y-111975D01*
X266822Y-111997D01*
X266770Y-112016D01*
X266707Y-112034D01*
X266699D01*
X266677Y-112042D01*
X266640Y-112045D01*
X266592Y-112053D01*
X266533Y-112060D01*
X266462Y-112068D01*
X266385Y-112071D01*
X266296Y-112075D01*
X265318D01*
Y-109512D01*
X266325D01*
X266351Y-109516D01*
D02*
G37*
G36*
X261959Y-112075D02*
X261600D01*
Y-111716D01*
X261959D01*
Y-112075D01*
D02*
G37*
G36*
X210967Y-109472D02*
X210993D01*
X211064Y-109479D01*
X211141Y-109490D01*
X211223Y-109509D01*
X211312Y-109531D01*
X211393Y-109560D01*
X211397D01*
X211404Y-109564D01*
X211415Y-109572D01*
X211430Y-109579D01*
X211467Y-109598D01*
X211515Y-109631D01*
X211571Y-109668D01*
X211626Y-109716D01*
X211678Y-109772D01*
X211726Y-109835D01*
Y-109838D01*
X211730Y-109842D01*
X211738Y-109853D01*
X211745Y-109864D01*
X211763Y-109901D01*
X211786Y-109949D01*
X211812Y-110009D01*
X211830Y-110079D01*
X211849Y-110153D01*
X211856Y-110234D01*
X211530Y-110260D01*
Y-110257D01*
Y-110249D01*
X211526Y-110238D01*
X211523Y-110220D01*
X211512Y-110179D01*
X211497Y-110123D01*
X211475Y-110064D01*
X211441Y-110005D01*
X211401Y-109949D01*
X211349Y-109897D01*
X211341Y-109894D01*
X211323Y-109879D01*
X211286Y-109857D01*
X211238Y-109835D01*
X211175Y-109812D01*
X211101Y-109790D01*
X211008Y-109775D01*
X210904Y-109772D01*
X210852D01*
X210830Y-109775D01*
X210801Y-109779D01*
X210734Y-109786D01*
X210660Y-109801D01*
X210586Y-109820D01*
X210515Y-109849D01*
X210486Y-109868D01*
X210456Y-109886D01*
X210449Y-109890D01*
X210434Y-109905D01*
X210412Y-109931D01*
X210390Y-109960D01*
X210364Y-110001D01*
X210341Y-110046D01*
X210327Y-110097D01*
X210319Y-110157D01*
Y-110164D01*
Y-110179D01*
X210323Y-110205D01*
X210330Y-110234D01*
X210341Y-110271D01*
X210360Y-110309D01*
X210382Y-110346D01*
X210415Y-110383D01*
X210419Y-110386D01*
X210438Y-110397D01*
X210452Y-110409D01*
X210467Y-110416D01*
X210490Y-110427D01*
X210515Y-110442D01*
X210549Y-110453D01*
X210586Y-110468D01*
X210627Y-110483D01*
X210675Y-110501D01*
X210727Y-110516D01*
X210786Y-110534D01*
X210852Y-110549D01*
X210927Y-110568D01*
X210930D01*
X210945Y-110571D01*
X210967Y-110575D01*
X210993Y-110583D01*
X211027Y-110590D01*
X211067Y-110601D01*
X211108Y-110612D01*
X211152Y-110623D01*
X211249Y-110649D01*
X211341Y-110675D01*
X211386Y-110690D01*
X211426Y-110705D01*
X211464Y-110716D01*
X211493Y-110731D01*
X211497D01*
X211504Y-110734D01*
X211515Y-110742D01*
X211530Y-110749D01*
X211571Y-110771D01*
X211619Y-110801D01*
X211675Y-110842D01*
X211730Y-110886D01*
X211782Y-110938D01*
X211826Y-110994D01*
X211830Y-111001D01*
X211845Y-111020D01*
X211860Y-111053D01*
X211882Y-111097D01*
X211900Y-111149D01*
X211919Y-111212D01*
X211930Y-111283D01*
X211934Y-111357D01*
Y-111360D01*
Y-111364D01*
Y-111375D01*
Y-111390D01*
X211926Y-111431D01*
X211919Y-111482D01*
X211904Y-111542D01*
X211886Y-111605D01*
X211856Y-111671D01*
X211815Y-111742D01*
Y-111745D01*
X211812Y-111749D01*
X211793Y-111771D01*
X211767Y-111805D01*
X211730Y-111842D01*
X211682Y-111886D01*
X211623Y-111934D01*
X211556Y-111979D01*
X211478Y-112019D01*
X211475D01*
X211467Y-112023D01*
X211456Y-112027D01*
X211441Y-112034D01*
X211419Y-112042D01*
X211393Y-112053D01*
X211334Y-112068D01*
X211264Y-112086D01*
X211178Y-112105D01*
X211086Y-112116D01*
X210986Y-112119D01*
X210927D01*
X210897Y-112116D01*
X210864D01*
X210827Y-112112D01*
X210782Y-112108D01*
X210690Y-112094D01*
X210593Y-112079D01*
X210497Y-112053D01*
X210404Y-112019D01*
X210401D01*
X210393Y-112016D01*
X210382Y-112008D01*
X210367Y-112001D01*
X210323Y-111979D01*
X210271Y-111945D01*
X210212Y-111901D01*
X210149Y-111849D01*
X210090Y-111786D01*
X210034Y-111716D01*
Y-111712D01*
X210027Y-111705D01*
X210023Y-111694D01*
X210012Y-111679D01*
X210004Y-111660D01*
X209993Y-111638D01*
X209967Y-111582D01*
X209941Y-111512D01*
X209919Y-111434D01*
X209904Y-111345D01*
X209897Y-111253D01*
X210215Y-111223D01*
Y-111227D01*
Y-111231D01*
X210219Y-111242D01*
Y-111257D01*
X210227Y-111290D01*
X210238Y-111338D01*
X210253Y-111386D01*
X210267Y-111442D01*
X210293Y-111494D01*
X210319Y-111542D01*
X210323Y-111545D01*
X210334Y-111560D01*
X210353Y-111586D01*
X210382Y-111612D01*
X210419Y-111645D01*
X210460Y-111679D01*
X210515Y-111712D01*
X210575Y-111742D01*
X210578D01*
X210582Y-111745D01*
X210593Y-111749D01*
X210604Y-111753D01*
X210641Y-111764D01*
X210690Y-111779D01*
X210749Y-111794D01*
X210815Y-111805D01*
X210889Y-111812D01*
X210971Y-111816D01*
X211004D01*
X211041Y-111812D01*
X211086Y-111808D01*
X211138Y-111801D01*
X211197Y-111794D01*
X211256Y-111779D01*
X211312Y-111760D01*
X211319Y-111757D01*
X211338Y-111749D01*
X211364Y-111734D01*
X211397Y-111719D01*
X211430Y-111694D01*
X211467Y-111668D01*
X211504Y-111638D01*
X211534Y-111601D01*
X211538Y-111597D01*
X211545Y-111582D01*
X211556Y-111564D01*
X211571Y-111534D01*
X211586Y-111505D01*
X211597Y-111468D01*
X211604Y-111427D01*
X211608Y-111382D01*
Y-111379D01*
Y-111360D01*
X211604Y-111338D01*
X211601Y-111308D01*
X211589Y-111279D01*
X211578Y-111242D01*
X211560Y-111205D01*
X211534Y-111171D01*
X211530Y-111168D01*
X211519Y-111157D01*
X211504Y-111142D01*
X211478Y-111120D01*
X211449Y-111097D01*
X211408Y-111071D01*
X211360Y-111046D01*
X211304Y-111023D01*
X211301Y-111020D01*
X211282Y-111016D01*
X211252Y-111005D01*
X211234Y-111001D01*
X211208Y-110994D01*
X211182Y-110983D01*
X211149Y-110975D01*
X211112Y-110964D01*
X211067Y-110953D01*
X211023Y-110942D01*
X210971Y-110927D01*
X210912Y-110912D01*
X210849Y-110897D01*
X210845D01*
X210834Y-110894D01*
X210815Y-110890D01*
X210793Y-110883D01*
X210764Y-110875D01*
X210730Y-110868D01*
X210656Y-110846D01*
X210575Y-110820D01*
X210490Y-110794D01*
X210415Y-110768D01*
X210382Y-110753D01*
X210353Y-110738D01*
X210349D01*
X210345Y-110734D01*
X210323Y-110720D01*
X210290Y-110701D01*
X210253Y-110671D01*
X210208Y-110638D01*
X210164Y-110597D01*
X210119Y-110549D01*
X210082Y-110497D01*
X210078Y-110490D01*
X210067Y-110471D01*
X210053Y-110442D01*
X210038Y-110405D01*
X210023Y-110357D01*
X210008Y-110301D01*
X209997Y-110242D01*
X209993Y-110179D01*
Y-110175D01*
Y-110172D01*
Y-110160D01*
Y-110146D01*
X210001Y-110109D01*
X210008Y-110060D01*
X210019Y-110005D01*
X210038Y-109942D01*
X210064Y-109879D01*
X210101Y-109816D01*
Y-109812D01*
X210104Y-109809D01*
X210123Y-109786D01*
X210149Y-109757D01*
X210182Y-109720D01*
X210227Y-109679D01*
X210282Y-109635D01*
X210349Y-109594D01*
X210423Y-109557D01*
X210427D01*
X210434Y-109553D01*
X210445Y-109549D01*
X210460Y-109542D01*
X210478Y-109535D01*
X210504Y-109527D01*
X210560Y-109512D01*
X210630Y-109498D01*
X210712Y-109483D01*
X210797Y-109472D01*
X210893Y-109468D01*
X210941D01*
X210967Y-109472D01*
D02*
G37*
G36*
X216641Y-112075D02*
X216348D01*
Y-111842D01*
X216344Y-111845D01*
X216341Y-111853D01*
X216330Y-111868D01*
X216315Y-111886D01*
X216296Y-111905D01*
X216274Y-111927D01*
X216248Y-111953D01*
X216215Y-111979D01*
X216182Y-112005D01*
X216145Y-112031D01*
X216100Y-112053D01*
X216052Y-112071D01*
X216004Y-112090D01*
X215948Y-112105D01*
X215889Y-112112D01*
X215826Y-112116D01*
X215804D01*
X215789Y-112112D01*
X215745Y-112108D01*
X215693Y-112101D01*
X215630Y-112086D01*
X215559Y-112064D01*
X215489Y-112034D01*
X215419Y-111994D01*
X215415D01*
X215411Y-111986D01*
X215389Y-111971D01*
X215356Y-111942D01*
X215315Y-111905D01*
X215267Y-111857D01*
X215219Y-111797D01*
X215171Y-111731D01*
X215130Y-111653D01*
Y-111649D01*
X215126Y-111642D01*
X215122Y-111631D01*
X215115Y-111616D01*
X215108Y-111594D01*
X215096Y-111568D01*
X215089Y-111542D01*
X215082Y-111508D01*
X215063Y-111434D01*
X215045Y-111349D01*
X215033Y-111253D01*
X215030Y-111149D01*
Y-111145D01*
Y-111138D01*
Y-111123D01*
Y-111101D01*
X215033Y-111079D01*
Y-111049D01*
X215041Y-110983D01*
X215052Y-110905D01*
X215071Y-110820D01*
X215093Y-110731D01*
X215122Y-110646D01*
Y-110642D01*
X215126Y-110634D01*
X215133Y-110623D01*
X215141Y-110608D01*
X215163Y-110568D01*
X215193Y-110516D01*
X215230Y-110460D01*
X215278Y-110405D01*
X215333Y-110346D01*
X215400Y-110297D01*
X215404D01*
X215408Y-110294D01*
X215419Y-110286D01*
X215433Y-110279D01*
X215470Y-110260D01*
X215522Y-110234D01*
X215582Y-110212D01*
X215652Y-110194D01*
X215730Y-110179D01*
X215811Y-110175D01*
X215841D01*
X215870Y-110179D01*
X215911Y-110183D01*
X215959Y-110194D01*
X216011Y-110205D01*
X216063Y-110223D01*
X216111Y-110249D01*
X216119Y-110253D01*
X216133Y-110260D01*
X216156Y-110279D01*
X216185Y-110297D01*
X216222Y-110323D01*
X216256Y-110357D01*
X216293Y-110390D01*
X216326Y-110431D01*
Y-109512D01*
X216641D01*
Y-112075D01*
D02*
G37*
G36*
X219874Y-110179D02*
X219914Y-110186D01*
X219963Y-110201D01*
X220014Y-110220D01*
X220074Y-110246D01*
X220137Y-110279D01*
X220022Y-110568D01*
X220018Y-110564D01*
X220003Y-110557D01*
X219981Y-110546D01*
X219952Y-110534D01*
X219918Y-110523D01*
X219877Y-110512D01*
X219837Y-110505D01*
X219796Y-110501D01*
X219777D01*
X219759Y-110505D01*
X219733Y-110509D01*
X219707Y-110516D01*
X219674Y-110527D01*
X219640Y-110542D01*
X219611Y-110564D01*
X219607Y-110568D01*
X219596Y-110575D01*
X219585Y-110590D01*
X219566Y-110608D01*
X219548Y-110634D01*
X219529Y-110664D01*
X219511Y-110697D01*
X219496Y-110738D01*
X219492Y-110746D01*
X219489Y-110768D01*
X219481Y-110801D01*
X219470Y-110846D01*
X219459Y-110901D01*
X219452Y-110964D01*
X219448Y-111031D01*
X219444Y-111105D01*
Y-112075D01*
X219129D01*
Y-110216D01*
X219415D01*
Y-110497D01*
X219418Y-110494D01*
X219433Y-110468D01*
X219452Y-110434D01*
X219481Y-110394D01*
X219511Y-110353D01*
X219544Y-110309D01*
X219577Y-110271D01*
X219611Y-110242D01*
X219615Y-110238D01*
X219626Y-110231D01*
X219648Y-110220D01*
X219670Y-110209D01*
X219700Y-110197D01*
X219737Y-110186D01*
X219774Y-110179D01*
X219814Y-110175D01*
X219840D01*
X219874Y-110179D01*
D02*
G37*
G36*
X207979D02*
X208005D01*
X208031Y-110183D01*
X208093Y-110194D01*
X208160Y-110212D01*
X208230Y-110242D01*
X208301Y-110279D01*
X208360Y-110331D01*
X208368Y-110338D01*
X208382Y-110360D01*
X208408Y-110394D01*
X208419Y-110420D01*
X208434Y-110446D01*
X208449Y-110479D01*
X208460Y-110512D01*
X208475Y-110549D01*
X208486Y-110594D01*
X208493Y-110638D01*
X208501Y-110690D01*
X208508Y-110742D01*
Y-110801D01*
Y-112075D01*
X208193D01*
Y-110908D01*
Y-110905D01*
Y-110901D01*
Y-110879D01*
Y-110846D01*
X208190Y-110805D01*
X208186Y-110760D01*
X208182Y-110716D01*
X208175Y-110671D01*
X208164Y-110638D01*
Y-110634D01*
X208156Y-110623D01*
X208149Y-110608D01*
X208138Y-110590D01*
X208123Y-110568D01*
X208105Y-110546D01*
X208082Y-110523D01*
X208053Y-110501D01*
X208049Y-110497D01*
X208038Y-110494D01*
X208023Y-110486D01*
X207997Y-110475D01*
X207971Y-110464D01*
X207938Y-110457D01*
X207905Y-110453D01*
X207864Y-110449D01*
X207845D01*
X207831Y-110453D01*
X207794Y-110457D01*
X207749Y-110464D01*
X207697Y-110483D01*
X207642Y-110505D01*
X207586Y-110538D01*
X207534Y-110583D01*
X207531Y-110590D01*
X207516Y-110608D01*
X207494Y-110638D01*
X207471Y-110683D01*
X207445Y-110742D01*
X207427Y-110812D01*
X207412Y-110897D01*
X207405Y-110997D01*
Y-112075D01*
X207090D01*
Y-110871D01*
Y-110868D01*
Y-110860D01*
Y-110853D01*
Y-110838D01*
X207086Y-110797D01*
X207079Y-110753D01*
X207071Y-110701D01*
X207057Y-110649D01*
X207038Y-110601D01*
X207012Y-110557D01*
X207008Y-110553D01*
X206997Y-110538D01*
X206979Y-110523D01*
X206953Y-110501D01*
X206920Y-110483D01*
X206875Y-110464D01*
X206823Y-110453D01*
X206760Y-110449D01*
X206738D01*
X206712Y-110453D01*
X206683Y-110457D01*
X206645Y-110468D01*
X206601Y-110479D01*
X206560Y-110497D01*
X206516Y-110520D01*
X206512Y-110523D01*
X206497Y-110534D01*
X206479Y-110549D01*
X206453Y-110571D01*
X206427Y-110601D01*
X206401Y-110638D01*
X206375Y-110679D01*
X206353Y-110727D01*
X206349Y-110734D01*
X206346Y-110753D01*
X206338Y-110783D01*
X206327Y-110823D01*
X206316Y-110879D01*
X206308Y-110946D01*
X206305Y-111023D01*
X206301Y-111112D01*
Y-112075D01*
X205986D01*
Y-110216D01*
X206268D01*
Y-110483D01*
X206271Y-110475D01*
X206283Y-110460D01*
X206305Y-110434D01*
X206331Y-110405D01*
X206364Y-110368D01*
X206405Y-110331D01*
X206449Y-110294D01*
X206501Y-110260D01*
X206508Y-110257D01*
X206527Y-110246D01*
X206557Y-110234D01*
X206597Y-110216D01*
X206645Y-110201D01*
X206701Y-110190D01*
X206764Y-110179D01*
X206831Y-110175D01*
X206864D01*
X206905Y-110179D01*
X206949Y-110186D01*
X207005Y-110197D01*
X207060Y-110212D01*
X207116Y-110234D01*
X207168Y-110264D01*
X207175Y-110268D01*
X207190Y-110279D01*
X207212Y-110297D01*
X207242Y-110327D01*
X207271Y-110360D01*
X207305Y-110401D01*
X207334Y-110449D01*
X207357Y-110505D01*
X207360Y-110501D01*
X207368Y-110490D01*
X207379Y-110475D01*
X207397Y-110453D01*
X207419Y-110427D01*
X207445Y-110401D01*
X207475Y-110371D01*
X207512Y-110338D01*
X207553Y-110309D01*
X207594Y-110279D01*
X207642Y-110253D01*
X207694Y-110227D01*
X207749Y-110205D01*
X207808Y-110190D01*
X207868Y-110179D01*
X207934Y-110175D01*
X207960D01*
X207979Y-110179D01*
D02*
G37*
G36*
X214659Y-112075D02*
X214345D01*
Y-109512D01*
X214659D01*
Y-112075D01*
D02*
G37*
G36*
X198683Y-109516D02*
X198713D01*
X198780Y-109523D01*
X198854Y-109531D01*
X198931Y-109546D01*
X199009Y-109564D01*
X199080Y-109590D01*
X199083D01*
X199087Y-109594D01*
X199109Y-109605D01*
X199143Y-109623D01*
X199180Y-109649D01*
X199224Y-109683D01*
X199272Y-109723D01*
X199317Y-109775D01*
X199357Y-109831D01*
X199361Y-109838D01*
X199372Y-109860D01*
X199391Y-109890D01*
X199409Y-109935D01*
X199428Y-109986D01*
X199446Y-110042D01*
X199457Y-110105D01*
X199461Y-110168D01*
Y-110175D01*
Y-110194D01*
X199457Y-110227D01*
X199450Y-110268D01*
X199439Y-110316D01*
X199420Y-110368D01*
X199398Y-110420D01*
X199368Y-110475D01*
X199365Y-110483D01*
X199354Y-110497D01*
X199331Y-110527D01*
X199302Y-110557D01*
X199265Y-110594D01*
X199220Y-110634D01*
X199165Y-110671D01*
X199102Y-110708D01*
X199106D01*
X199113Y-110712D01*
X199124Y-110716D01*
X199139Y-110723D01*
X199183Y-110738D01*
X199235Y-110764D01*
X199291Y-110797D01*
X199354Y-110838D01*
X199409Y-110886D01*
X199461Y-110946D01*
X199465Y-110953D01*
X199480Y-110975D01*
X199502Y-111008D01*
X199524Y-111053D01*
X199546Y-111112D01*
X199568Y-111175D01*
X199583Y-111249D01*
X199587Y-111331D01*
Y-111334D01*
Y-111338D01*
Y-111360D01*
X199583Y-111397D01*
X199576Y-111442D01*
X199568Y-111494D01*
X199554Y-111549D01*
X199535Y-111608D01*
X199509Y-111668D01*
X199505Y-111675D01*
X199494Y-111694D01*
X199480Y-111719D01*
X199457Y-111757D01*
X199428Y-111794D01*
X199398Y-111834D01*
X199361Y-111875D01*
X199320Y-111908D01*
X199317Y-111912D01*
X199302Y-111923D01*
X199276Y-111938D01*
X199243Y-111953D01*
X199202Y-111975D01*
X199154Y-111997D01*
X199102Y-112016D01*
X199039Y-112034D01*
X199031D01*
X199009Y-112042D01*
X198972Y-112045D01*
X198924Y-112053D01*
X198865Y-112060D01*
X198794Y-112068D01*
X198717Y-112071D01*
X198628Y-112075D01*
X197650D01*
Y-109512D01*
X198657D01*
X198683Y-109516D01*
D02*
G37*
G36*
X203368Y-110216D02*
X203687D01*
Y-110460D01*
X203368D01*
Y-111553D01*
Y-111560D01*
Y-111575D01*
Y-111597D01*
X203372Y-111623D01*
X203375Y-111682D01*
X203379Y-111708D01*
X203383Y-111727D01*
X203387Y-111734D01*
X203398Y-111749D01*
X203412Y-111768D01*
X203438Y-111786D01*
X203446Y-111790D01*
X203464Y-111797D01*
X203498Y-111805D01*
X203546Y-111808D01*
X203583D01*
X203601Y-111805D01*
X203627D01*
X203657Y-111801D01*
X203687Y-111797D01*
X203727Y-112075D01*
X203720D01*
X203705Y-112079D01*
X203679Y-112082D01*
X203646Y-112086D01*
X203609Y-112094D01*
X203568Y-112097D01*
X203487Y-112101D01*
X203457D01*
X203427Y-112097D01*
X203390Y-112094D01*
X203346Y-112090D01*
X203301Y-112079D01*
X203261Y-112068D01*
X203220Y-112049D01*
X203216Y-112045D01*
X203205Y-112038D01*
X203190Y-112027D01*
X203168Y-112008D01*
X203150Y-111990D01*
X203127Y-111964D01*
X203105Y-111938D01*
X203090Y-111905D01*
Y-111901D01*
X203083Y-111886D01*
X203079Y-111860D01*
X203072Y-111823D01*
X203064Y-111775D01*
X203061Y-111745D01*
Y-111712D01*
X203057Y-111671D01*
X203053Y-111631D01*
Y-111586D01*
Y-111534D01*
Y-110460D01*
X202820D01*
Y-110216D01*
X203053D01*
Y-109757D01*
X203368Y-109568D01*
Y-110216D01*
D02*
G37*
G36*
X202372D02*
X202690D01*
Y-110460D01*
X202372D01*
Y-111553D01*
Y-111560D01*
Y-111575D01*
Y-111597D01*
X202376Y-111623D01*
X202379Y-111682D01*
X202383Y-111708D01*
X202387Y-111727D01*
X202390Y-111734D01*
X202401Y-111749D01*
X202416Y-111768D01*
X202442Y-111786D01*
X202450Y-111790D01*
X202468Y-111797D01*
X202501Y-111805D01*
X202550Y-111808D01*
X202587D01*
X202605Y-111805D01*
X202631D01*
X202661Y-111801D01*
X202690Y-111797D01*
X202731Y-112075D01*
X202724D01*
X202709Y-112079D01*
X202683Y-112082D01*
X202650Y-112086D01*
X202613Y-112094D01*
X202572Y-112097D01*
X202490Y-112101D01*
X202461D01*
X202431Y-112097D01*
X202394Y-112094D01*
X202350Y-112090D01*
X202305Y-112079D01*
X202264Y-112068D01*
X202224Y-112049D01*
X202220Y-112045D01*
X202209Y-112038D01*
X202194Y-112027D01*
X202172Y-112008D01*
X202153Y-111990D01*
X202131Y-111964D01*
X202109Y-111938D01*
X202094Y-111905D01*
Y-111901D01*
X202087Y-111886D01*
X202083Y-111860D01*
X202076Y-111823D01*
X202068Y-111775D01*
X202064Y-111745D01*
Y-111712D01*
X202061Y-111671D01*
X202057Y-111631D01*
Y-111586D01*
Y-111534D01*
Y-110460D01*
X201824D01*
Y-110216D01*
X202057D01*
Y-109757D01*
X202372Y-109568D01*
Y-110216D01*
D02*
G37*
G36*
X217963Y-110179D02*
X217992Y-110183D01*
X218029Y-110190D01*
X218070Y-110197D01*
X218118Y-110209D01*
X218163Y-110220D01*
X218215Y-110238D01*
X218263Y-110257D01*
X218315Y-110283D01*
X218366Y-110312D01*
X218418Y-110346D01*
X218466Y-110386D01*
X218511Y-110431D01*
X218515Y-110434D01*
X218522Y-110442D01*
X218533Y-110457D01*
X218548Y-110479D01*
X218566Y-110505D01*
X218585Y-110534D01*
X218607Y-110571D01*
X218629Y-110616D01*
X218652Y-110664D01*
X218674Y-110716D01*
X218692Y-110775D01*
X218711Y-110838D01*
X218726Y-110908D01*
X218737Y-110983D01*
X218744Y-111060D01*
X218748Y-111145D01*
Y-111149D01*
Y-111164D01*
Y-111190D01*
X218744Y-111227D01*
X217355D01*
Y-111231D01*
Y-111242D01*
X217359Y-111257D01*
Y-111279D01*
X217363Y-111305D01*
X217370Y-111334D01*
X217381Y-111401D01*
X217404Y-111475D01*
X217433Y-111557D01*
X217474Y-111631D01*
X217526Y-111697D01*
X217530D01*
X217533Y-111705D01*
X217555Y-111723D01*
X217589Y-111749D01*
X217633Y-111775D01*
X217692Y-111805D01*
X217759Y-111831D01*
X217833Y-111849D01*
X217874Y-111853D01*
X217918Y-111857D01*
X217948D01*
X217981Y-111853D01*
X218022Y-111845D01*
X218067Y-111834D01*
X218118Y-111819D01*
X218167Y-111797D01*
X218215Y-111768D01*
X218218Y-111764D01*
X218237Y-111749D01*
X218259Y-111727D01*
X218285Y-111697D01*
X218315Y-111657D01*
X218348Y-111605D01*
X218381Y-111545D01*
X218411Y-111475D01*
X218737Y-111516D01*
Y-111520D01*
X218733Y-111527D01*
X218729Y-111542D01*
X218722Y-111564D01*
X218711Y-111586D01*
X218700Y-111616D01*
X218670Y-111679D01*
X218633Y-111749D01*
X218581Y-111823D01*
X218522Y-111894D01*
X218448Y-111960D01*
X218444D01*
X218437Y-111968D01*
X218426Y-111975D01*
X218411Y-111986D01*
X218389Y-111997D01*
X218366Y-112008D01*
X218337Y-112023D01*
X218304Y-112038D01*
X218266Y-112053D01*
X218229Y-112068D01*
X218137Y-112090D01*
X218033Y-112108D01*
X217918Y-112116D01*
X217878D01*
X217852Y-112112D01*
X217818Y-112108D01*
X217778Y-112101D01*
X217733Y-112094D01*
X217685Y-112086D01*
X217581Y-112057D01*
X217526Y-112034D01*
X217474Y-112012D01*
X217418Y-111982D01*
X217367Y-111949D01*
X217318Y-111912D01*
X217270Y-111868D01*
X217267Y-111864D01*
X217259Y-111857D01*
X217248Y-111842D01*
X217233Y-111819D01*
X217215Y-111794D01*
X217196Y-111764D01*
X217174Y-111727D01*
X217152Y-111686D01*
X217130Y-111638D01*
X217107Y-111586D01*
X217089Y-111527D01*
X217070Y-111464D01*
X217056Y-111397D01*
X217044Y-111323D01*
X217037Y-111245D01*
X217033Y-111164D01*
Y-111160D01*
Y-111142D01*
Y-111120D01*
X217037Y-111086D01*
X217041Y-111046D01*
X217044Y-111001D01*
X217052Y-110949D01*
X217063Y-110897D01*
X217093Y-110779D01*
X217111Y-110720D01*
X217133Y-110657D01*
X217163Y-110597D01*
X217196Y-110542D01*
X217233Y-110486D01*
X217274Y-110434D01*
X217278Y-110431D01*
X217285Y-110423D01*
X217300Y-110412D01*
X217318Y-110394D01*
X217341Y-110375D01*
X217370Y-110353D01*
X217404Y-110327D01*
X217444Y-110305D01*
X217485Y-110279D01*
X217533Y-110257D01*
X217585Y-110234D01*
X217641Y-110216D01*
X217700Y-110197D01*
X217763Y-110186D01*
X217830Y-110179D01*
X217900Y-110175D01*
X217937D01*
X217963Y-110179D01*
D02*
G37*
G36*
X213174D02*
X213208Y-110183D01*
X213245Y-110190D01*
X213286Y-110197D01*
X213334Y-110205D01*
X213434Y-110238D01*
X213486Y-110257D01*
X213537Y-110283D01*
X213589Y-110309D01*
X213641Y-110346D01*
X213689Y-110383D01*
X213737Y-110427D01*
X213741Y-110431D01*
X213748Y-110438D01*
X213760Y-110453D01*
X213774Y-110471D01*
X213793Y-110497D01*
X213815Y-110531D01*
X213837Y-110568D01*
X213860Y-110608D01*
X213882Y-110653D01*
X213904Y-110708D01*
X213926Y-110764D01*
X213945Y-110827D01*
X213960Y-110894D01*
X213971Y-110964D01*
X213978Y-111038D01*
X213982Y-111120D01*
Y-111123D01*
Y-111134D01*
Y-111153D01*
Y-111179D01*
X213978Y-111208D01*
X213974Y-111245D01*
Y-111283D01*
X213967Y-111323D01*
X213956Y-111416D01*
X213934Y-111508D01*
X213908Y-111601D01*
X213871Y-111686D01*
Y-111690D01*
X213867Y-111694D01*
X213860Y-111705D01*
X213852Y-111719D01*
X213826Y-111757D01*
X213793Y-111801D01*
X213748Y-111853D01*
X213693Y-111905D01*
X213630Y-111957D01*
X213556Y-112005D01*
X213552D01*
X213548Y-112008D01*
X213537Y-112016D01*
X213519Y-112023D01*
X213500Y-112031D01*
X213478Y-112038D01*
X213423Y-112060D01*
X213360Y-112079D01*
X213282Y-112097D01*
X213200Y-112112D01*
X213111Y-112116D01*
X213074D01*
X213045Y-112112D01*
X213011Y-112108D01*
X212974Y-112101D01*
X212930Y-112094D01*
X212886Y-112086D01*
X212786Y-112057D01*
X212730Y-112034D01*
X212678Y-112012D01*
X212626Y-111982D01*
X212574Y-111949D01*
X212526Y-111912D01*
X212478Y-111868D01*
X212475Y-111864D01*
X212467Y-111857D01*
X212456Y-111842D01*
X212441Y-111819D01*
X212423Y-111794D01*
X212404Y-111764D01*
X212382Y-111727D01*
X212360Y-111682D01*
X212337Y-111634D01*
X212315Y-111579D01*
X212297Y-111520D01*
X212278Y-111457D01*
X212263Y-111386D01*
X212252Y-111312D01*
X212245Y-111231D01*
X212241Y-111145D01*
Y-111138D01*
Y-111123D01*
X212245Y-111097D01*
Y-111060D01*
X212249Y-111020D01*
X212256Y-110968D01*
X212263Y-110916D01*
X212278Y-110857D01*
X212293Y-110797D01*
X212312Y-110734D01*
X212334Y-110668D01*
X212363Y-110605D01*
X212393Y-110546D01*
X212434Y-110486D01*
X212475Y-110431D01*
X212526Y-110383D01*
X212530Y-110379D01*
X212537Y-110375D01*
X212552Y-110364D01*
X212571Y-110349D01*
X212593Y-110334D01*
X212623Y-110316D01*
X212652Y-110297D01*
X212689Y-110279D01*
X212730Y-110260D01*
X212774Y-110242D01*
X212874Y-110209D01*
X212989Y-110183D01*
X213049Y-110179D01*
X213111Y-110175D01*
X213149D01*
X213174Y-110179D01*
D02*
G37*
G36*
X204812D02*
X204846Y-110183D01*
X204883Y-110190D01*
X204923Y-110197D01*
X204972Y-110205D01*
X205072Y-110238D01*
X205123Y-110257D01*
X205175Y-110283D01*
X205227Y-110309D01*
X205279Y-110346D01*
X205327Y-110383D01*
X205375Y-110427D01*
X205379Y-110431D01*
X205386Y-110438D01*
X205397Y-110453D01*
X205412Y-110471D01*
X205431Y-110497D01*
X205453Y-110531D01*
X205475Y-110568D01*
X205497Y-110608D01*
X205520Y-110653D01*
X205542Y-110708D01*
X205564Y-110764D01*
X205583Y-110827D01*
X205597Y-110894D01*
X205609Y-110964D01*
X205616Y-111038D01*
X205620Y-111120D01*
Y-111123D01*
Y-111134D01*
Y-111153D01*
Y-111179D01*
X205616Y-111208D01*
X205612Y-111245D01*
Y-111283D01*
X205605Y-111323D01*
X205594Y-111416D01*
X205572Y-111508D01*
X205546Y-111601D01*
X205509Y-111686D01*
Y-111690D01*
X205505Y-111694D01*
X205497Y-111705D01*
X205490Y-111719D01*
X205464Y-111757D01*
X205431Y-111801D01*
X205386Y-111853D01*
X205331Y-111905D01*
X205268Y-111957D01*
X205194Y-112005D01*
X205190D01*
X205186Y-112008D01*
X205175Y-112016D01*
X205157Y-112023D01*
X205138Y-112031D01*
X205116Y-112038D01*
X205060Y-112060D01*
X204997Y-112079D01*
X204920Y-112097D01*
X204838Y-112112D01*
X204749Y-112116D01*
X204712D01*
X204683Y-112112D01*
X204649Y-112108D01*
X204612Y-112101D01*
X204568Y-112094D01*
X204523Y-112086D01*
X204423Y-112057D01*
X204368Y-112034D01*
X204316Y-112012D01*
X204264Y-111982D01*
X204212Y-111949D01*
X204164Y-111912D01*
X204116Y-111868D01*
X204112Y-111864D01*
X204105Y-111857D01*
X204094Y-111842D01*
X204079Y-111819D01*
X204061Y-111794D01*
X204042Y-111764D01*
X204020Y-111727D01*
X203998Y-111682D01*
X203975Y-111634D01*
X203953Y-111579D01*
X203935Y-111520D01*
X203916Y-111457D01*
X203901Y-111386D01*
X203890Y-111312D01*
X203883Y-111231D01*
X203879Y-111145D01*
Y-111138D01*
Y-111123D01*
X203883Y-111097D01*
Y-111060D01*
X203887Y-111020D01*
X203894Y-110968D01*
X203901Y-110916D01*
X203916Y-110857D01*
X203931Y-110797D01*
X203949Y-110734D01*
X203972Y-110668D01*
X204001Y-110605D01*
X204031Y-110546D01*
X204072Y-110486D01*
X204112Y-110431D01*
X204164Y-110383D01*
X204168Y-110379D01*
X204175Y-110375D01*
X204190Y-110364D01*
X204209Y-110349D01*
X204231Y-110334D01*
X204261Y-110316D01*
X204290Y-110297D01*
X204327Y-110279D01*
X204368Y-110260D01*
X204412Y-110242D01*
X204512Y-110209D01*
X204627Y-110183D01*
X204686Y-110179D01*
X204749Y-110175D01*
X204786D01*
X204812Y-110179D01*
D02*
G37*
G36*
X200828D02*
X200861Y-110183D01*
X200898Y-110190D01*
X200939Y-110197D01*
X200987Y-110205D01*
X201087Y-110238D01*
X201139Y-110257D01*
X201190Y-110283D01*
X201242Y-110309D01*
X201294Y-110346D01*
X201342Y-110383D01*
X201390Y-110427D01*
X201394Y-110431D01*
X201402Y-110438D01*
X201413Y-110453D01*
X201428Y-110471D01*
X201446Y-110497D01*
X201468Y-110531D01*
X201490Y-110568D01*
X201513Y-110608D01*
X201535Y-110653D01*
X201557Y-110708D01*
X201579Y-110764D01*
X201598Y-110827D01*
X201613Y-110894D01*
X201624Y-110964D01*
X201631Y-111038D01*
X201635Y-111120D01*
Y-111123D01*
Y-111134D01*
Y-111153D01*
Y-111179D01*
X201631Y-111208D01*
X201627Y-111245D01*
Y-111283D01*
X201620Y-111323D01*
X201609Y-111416D01*
X201587Y-111508D01*
X201561Y-111601D01*
X201524Y-111686D01*
Y-111690D01*
X201520Y-111694D01*
X201513Y-111705D01*
X201505Y-111719D01*
X201479Y-111757D01*
X201446Y-111801D01*
X201402Y-111853D01*
X201346Y-111905D01*
X201283Y-111957D01*
X201209Y-112005D01*
X201205D01*
X201202Y-112008D01*
X201190Y-112016D01*
X201172Y-112023D01*
X201153Y-112031D01*
X201131Y-112038D01*
X201076Y-112060D01*
X201013Y-112079D01*
X200935Y-112097D01*
X200853Y-112112D01*
X200765Y-112116D01*
X200728D01*
X200698Y-112112D01*
X200665Y-112108D01*
X200628Y-112101D01*
X200583Y-112094D01*
X200539Y-112086D01*
X200439Y-112057D01*
X200383Y-112034D01*
X200331Y-112012D01*
X200279Y-111982D01*
X200228Y-111949D01*
X200179Y-111912D01*
X200131Y-111868D01*
X200128Y-111864D01*
X200120Y-111857D01*
X200109Y-111842D01*
X200094Y-111819D01*
X200076Y-111794D01*
X200057Y-111764D01*
X200035Y-111727D01*
X200013Y-111682D01*
X199991Y-111634D01*
X199968Y-111579D01*
X199950Y-111520D01*
X199931Y-111457D01*
X199917Y-111386D01*
X199905Y-111312D01*
X199898Y-111231D01*
X199894Y-111145D01*
Y-111138D01*
Y-111123D01*
X199898Y-111097D01*
Y-111060D01*
X199902Y-111020D01*
X199909Y-110968D01*
X199917Y-110916D01*
X199931Y-110857D01*
X199946Y-110797D01*
X199965Y-110734D01*
X199987Y-110668D01*
X200017Y-110605D01*
X200046Y-110546D01*
X200087Y-110486D01*
X200128Y-110431D01*
X200179Y-110383D01*
X200183Y-110379D01*
X200191Y-110375D01*
X200205Y-110364D01*
X200224Y-110349D01*
X200246Y-110334D01*
X200276Y-110316D01*
X200305Y-110297D01*
X200342Y-110279D01*
X200383Y-110260D01*
X200428Y-110242D01*
X200528Y-110209D01*
X200642Y-110183D01*
X200702Y-110179D01*
X200765Y-110175D01*
X200802D01*
X200828Y-110179D01*
D02*
G37*
%LPC*%
G36*
X266266Y-109816D02*
X265659D01*
Y-110586D01*
X266288D01*
X266337Y-110583D01*
X266388Y-110579D01*
X266440Y-110575D01*
X266492Y-110568D01*
X266533Y-110560D01*
X266540Y-110557D01*
X266555Y-110553D01*
X266577Y-110542D01*
X266607Y-110527D01*
X266637Y-110512D01*
X266670Y-110490D01*
X266703Y-110460D01*
X266729Y-110431D01*
X266733Y-110427D01*
X266740Y-110416D01*
X266751Y-110394D01*
X266762Y-110368D01*
X266774Y-110338D01*
X266785Y-110301D01*
X266792Y-110257D01*
X266796Y-110209D01*
Y-110201D01*
Y-110186D01*
X266792Y-110164D01*
X266788Y-110134D01*
X266781Y-110097D01*
X266770Y-110060D01*
X266755Y-110023D01*
X266733Y-109986D01*
X266729Y-109983D01*
X266722Y-109972D01*
X266707Y-109953D01*
X266688Y-109935D01*
X266662Y-109912D01*
X266633Y-109890D01*
X266596Y-109868D01*
X266555Y-109853D01*
X266551D01*
X266533Y-109846D01*
X266507Y-109842D01*
X266466Y-109835D01*
X266411Y-109827D01*
X266348Y-109823D01*
X266266Y-109816D01*
D02*
G37*
G36*
X266333Y-110890D02*
X265659D01*
Y-111771D01*
X266388D01*
X266466Y-111768D01*
X266500Y-111764D01*
X266529Y-111760D01*
X266533D01*
X266548Y-111757D01*
X266570Y-111753D01*
X266596Y-111745D01*
X266659Y-111723D01*
X266722Y-111694D01*
X266725Y-111690D01*
X266737Y-111682D01*
X266751Y-111671D01*
X266770Y-111657D01*
X266788Y-111634D01*
X266814Y-111612D01*
X266833Y-111582D01*
X266855Y-111549D01*
X266859Y-111545D01*
X266862Y-111534D01*
X266870Y-111512D01*
X266881Y-111486D01*
X266892Y-111457D01*
X266899Y-111420D01*
X266903Y-111375D01*
X266907Y-111331D01*
Y-111323D01*
Y-111308D01*
X266903Y-111279D01*
X266896Y-111245D01*
X266888Y-111208D01*
X266874Y-111168D01*
X266855Y-111127D01*
X266829Y-111086D01*
X266825Y-111083D01*
X266814Y-111068D01*
X266799Y-111049D01*
X266777Y-111027D01*
X266748Y-111001D01*
X266711Y-110975D01*
X266670Y-110953D01*
X266622Y-110934D01*
X266614Y-110931D01*
X266599Y-110927D01*
X266566Y-110920D01*
X266525Y-110912D01*
X266474Y-110905D01*
X266411Y-110897D01*
X266333Y-110890D01*
D02*
G37*
G36*
X215845Y-110434D02*
X215826D01*
X215811Y-110438D01*
X215770Y-110442D01*
X215722Y-110457D01*
X215667Y-110475D01*
X215608Y-110509D01*
X215548Y-110549D01*
X215519Y-110579D01*
X215493Y-110608D01*
Y-110612D01*
X215485Y-110616D01*
X215482Y-110627D01*
X215470Y-110642D01*
X215459Y-110660D01*
X215448Y-110683D01*
X215437Y-110708D01*
X215422Y-110738D01*
X215408Y-110775D01*
X215396Y-110816D01*
X215385Y-110860D01*
X215374Y-110908D01*
X215367Y-110960D01*
X215359Y-111020D01*
X215352Y-111083D01*
Y-111149D01*
Y-111153D01*
Y-111164D01*
Y-111183D01*
X215356Y-111208D01*
Y-111238D01*
X215359Y-111271D01*
X215370Y-111349D01*
X215389Y-111434D01*
X215415Y-111523D01*
X215452Y-111608D01*
X215474Y-111645D01*
X215500Y-111682D01*
X215504D01*
X215508Y-111690D01*
X215526Y-111708D01*
X215559Y-111738D01*
X215600Y-111768D01*
X215652Y-111801D01*
X215715Y-111831D01*
X215782Y-111849D01*
X215819Y-111853D01*
X215856Y-111857D01*
X215874D01*
X215889Y-111853D01*
X215930Y-111849D01*
X215978Y-111834D01*
X216033Y-111816D01*
X216093Y-111786D01*
X216152Y-111745D01*
X216182Y-111719D01*
X216207Y-111690D01*
Y-111686D01*
X216215Y-111682D01*
X216222Y-111671D01*
X216230Y-111657D01*
X216241Y-111638D01*
X216256Y-111620D01*
X216267Y-111590D01*
X216282Y-111560D01*
X216296Y-111527D01*
X216307Y-111490D01*
X216322Y-111445D01*
X216333Y-111401D01*
X216341Y-111349D01*
X216348Y-111297D01*
X216356Y-111238D01*
Y-111175D01*
Y-111171D01*
Y-111157D01*
Y-111138D01*
X216352Y-111112D01*
Y-111083D01*
X216348Y-111046D01*
X216344Y-111005D01*
X216337Y-110960D01*
X216319Y-110871D01*
X216293Y-110779D01*
X216256Y-110690D01*
X216233Y-110653D01*
X216207Y-110616D01*
Y-110612D01*
X216200Y-110608D01*
X216182Y-110586D01*
X216148Y-110557D01*
X216107Y-110523D01*
X216056Y-110490D01*
X215993Y-110464D01*
X215922Y-110442D01*
X215885Y-110438D01*
X215845Y-110434D01*
D02*
G37*
G36*
X198598Y-109816D02*
X197991D01*
Y-110586D01*
X198620D01*
X198669Y-110583D01*
X198720Y-110579D01*
X198772Y-110575D01*
X198824Y-110568D01*
X198865Y-110560D01*
X198872Y-110557D01*
X198887Y-110553D01*
X198909Y-110542D01*
X198939Y-110527D01*
X198969Y-110512D01*
X199002Y-110490D01*
X199035Y-110460D01*
X199061Y-110431D01*
X199065Y-110427D01*
X199072Y-110416D01*
X199083Y-110394D01*
X199094Y-110368D01*
X199106Y-110338D01*
X199117Y-110301D01*
X199124Y-110257D01*
X199128Y-110209D01*
Y-110201D01*
Y-110186D01*
X199124Y-110164D01*
X199120Y-110134D01*
X199113Y-110097D01*
X199102Y-110060D01*
X199087Y-110023D01*
X199065Y-109986D01*
X199061Y-109983D01*
X199054Y-109972D01*
X199039Y-109953D01*
X199020Y-109935D01*
X198994Y-109912D01*
X198965Y-109890D01*
X198928Y-109868D01*
X198887Y-109853D01*
X198883D01*
X198865Y-109846D01*
X198839Y-109842D01*
X198798Y-109835D01*
X198743Y-109827D01*
X198680Y-109823D01*
X198598Y-109816D01*
D02*
G37*
G36*
X198665Y-110890D02*
X197991D01*
Y-111771D01*
X198720D01*
X198798Y-111768D01*
X198831Y-111764D01*
X198861Y-111760D01*
X198865D01*
X198880Y-111757D01*
X198902Y-111753D01*
X198928Y-111745D01*
X198991Y-111723D01*
X199054Y-111694D01*
X199057Y-111690D01*
X199068Y-111682D01*
X199083Y-111671D01*
X199102Y-111657D01*
X199120Y-111634D01*
X199146Y-111612D01*
X199165Y-111582D01*
X199187Y-111549D01*
X199191Y-111545D01*
X199194Y-111534D01*
X199202Y-111512D01*
X199213Y-111486D01*
X199224Y-111457D01*
X199231Y-111420D01*
X199235Y-111375D01*
X199239Y-111331D01*
Y-111323D01*
Y-111308D01*
X199235Y-111279D01*
X199228Y-111245D01*
X199220Y-111208D01*
X199206Y-111168D01*
X199187Y-111127D01*
X199161Y-111086D01*
X199157Y-111083D01*
X199146Y-111068D01*
X199131Y-111049D01*
X199109Y-111027D01*
X199080Y-111001D01*
X199043Y-110975D01*
X199002Y-110953D01*
X198954Y-110934D01*
X198946Y-110931D01*
X198931Y-110927D01*
X198898Y-110920D01*
X198857Y-110912D01*
X198806Y-110905D01*
X198743Y-110897D01*
X198665Y-110890D01*
D02*
G37*
G36*
X217904Y-110434D02*
X217881D01*
X217867Y-110438D01*
X217826Y-110442D01*
X217778Y-110453D01*
X217718Y-110471D01*
X217655Y-110497D01*
X217596Y-110534D01*
X217537Y-110583D01*
X217530Y-110590D01*
X217515Y-110608D01*
X217489Y-110642D01*
X217463Y-110686D01*
X217433Y-110738D01*
X217407Y-110805D01*
X217385Y-110883D01*
X217374Y-110968D01*
X218415D01*
Y-110964D01*
Y-110957D01*
X218411Y-110946D01*
Y-110931D01*
X218404Y-110886D01*
X218392Y-110838D01*
X218374Y-110779D01*
X218355Y-110723D01*
X218326Y-110668D01*
X218292Y-110620D01*
Y-110616D01*
X218285Y-110612D01*
X218266Y-110590D01*
X218233Y-110560D01*
X218189Y-110527D01*
X218133Y-110494D01*
X218067Y-110464D01*
X217989Y-110442D01*
X217948Y-110438D01*
X217904Y-110434D01*
D02*
G37*
G36*
X213111D02*
X213089D01*
X213071Y-110438D01*
X213030Y-110442D01*
X212974Y-110457D01*
X212911Y-110479D01*
X212845Y-110509D01*
X212782Y-110553D01*
X212749Y-110583D01*
X212719Y-110612D01*
Y-110616D01*
X212712Y-110620D01*
X212704Y-110631D01*
X212693Y-110646D01*
X212682Y-110664D01*
X212671Y-110686D01*
X212656Y-110716D01*
X212641Y-110746D01*
X212626Y-110783D01*
X212612Y-110820D01*
X212600Y-110864D01*
X212589Y-110912D01*
X212578Y-110964D01*
X212571Y-111020D01*
X212567Y-111083D01*
X212563Y-111145D01*
Y-111149D01*
Y-111160D01*
Y-111179D01*
X212567Y-111205D01*
Y-111234D01*
X212571Y-111268D01*
X212582Y-111345D01*
X212600Y-111434D01*
X212630Y-111523D01*
X212667Y-111608D01*
X212693Y-111645D01*
X212719Y-111682D01*
X212723D01*
X212726Y-111690D01*
X212749Y-111708D01*
X212782Y-111738D01*
X212826Y-111768D01*
X212882Y-111801D01*
X212949Y-111831D01*
X213026Y-111849D01*
X213067Y-111853D01*
X213111Y-111857D01*
X213134D01*
X213152Y-111853D01*
X213193Y-111845D01*
X213249Y-111834D01*
X213308Y-111812D01*
X213374Y-111782D01*
X213437Y-111738D01*
X213471Y-111708D01*
X213500Y-111679D01*
X213504Y-111675D01*
X213508Y-111671D01*
X213515Y-111660D01*
X213526Y-111645D01*
X213537Y-111627D01*
X213552Y-111605D01*
X213567Y-111575D01*
X213582Y-111545D01*
X213597Y-111508D01*
X213608Y-111468D01*
X213623Y-111423D01*
X213634Y-111375D01*
X213645Y-111320D01*
X213652Y-111264D01*
X213660Y-111201D01*
Y-111134D01*
Y-111131D01*
Y-111120D01*
Y-111101D01*
X213656Y-111079D01*
Y-111049D01*
X213652Y-111016D01*
X213641Y-110938D01*
X213623Y-110857D01*
X213593Y-110768D01*
X213552Y-110686D01*
X213530Y-110646D01*
X213500Y-110612D01*
Y-110608D01*
X213493Y-110605D01*
X213471Y-110583D01*
X213437Y-110557D01*
X213393Y-110523D01*
X213337Y-110490D01*
X213271Y-110460D01*
X213197Y-110442D01*
X213156Y-110438D01*
X213111Y-110434D01*
D02*
G37*
G36*
X204749D02*
X204727D01*
X204709Y-110438D01*
X204668Y-110442D01*
X204612Y-110457D01*
X204549Y-110479D01*
X204483Y-110509D01*
X204420Y-110553D01*
X204386Y-110583D01*
X204357Y-110612D01*
Y-110616D01*
X204349Y-110620D01*
X204342Y-110631D01*
X204331Y-110646D01*
X204320Y-110664D01*
X204309Y-110686D01*
X204294Y-110716D01*
X204279Y-110746D01*
X204264Y-110783D01*
X204249Y-110820D01*
X204238Y-110864D01*
X204227Y-110912D01*
X204216Y-110964D01*
X204209Y-111020D01*
X204205Y-111083D01*
X204201Y-111145D01*
Y-111149D01*
Y-111160D01*
Y-111179D01*
X204205Y-111205D01*
Y-111234D01*
X204209Y-111268D01*
X204220Y-111345D01*
X204238Y-111434D01*
X204268Y-111523D01*
X204305Y-111608D01*
X204331Y-111645D01*
X204357Y-111682D01*
X204361D01*
X204364Y-111690D01*
X204386Y-111708D01*
X204420Y-111738D01*
X204464Y-111768D01*
X204520Y-111801D01*
X204586Y-111831D01*
X204664Y-111849D01*
X204705Y-111853D01*
X204749Y-111857D01*
X204772D01*
X204790Y-111853D01*
X204831Y-111845D01*
X204886Y-111834D01*
X204946Y-111812D01*
X205012Y-111782D01*
X205075Y-111738D01*
X205109Y-111708D01*
X205138Y-111679D01*
X205142Y-111675D01*
X205146Y-111671D01*
X205153Y-111660D01*
X205164Y-111645D01*
X205175Y-111627D01*
X205190Y-111605D01*
X205205Y-111575D01*
X205220Y-111545D01*
X205235Y-111508D01*
X205246Y-111468D01*
X205260Y-111423D01*
X205272Y-111375D01*
X205283Y-111320D01*
X205290Y-111264D01*
X205297Y-111201D01*
Y-111134D01*
Y-111131D01*
Y-111120D01*
Y-111101D01*
X205294Y-111079D01*
Y-111049D01*
X205290Y-111016D01*
X205279Y-110938D01*
X205260Y-110857D01*
X205231Y-110768D01*
X205190Y-110686D01*
X205168Y-110646D01*
X205138Y-110612D01*
Y-110608D01*
X205131Y-110605D01*
X205109Y-110583D01*
X205075Y-110557D01*
X205031Y-110523D01*
X204975Y-110490D01*
X204909Y-110460D01*
X204835Y-110442D01*
X204794Y-110438D01*
X204749Y-110434D01*
D02*
G37*
G36*
X200765D02*
X200742D01*
X200724Y-110438D01*
X200683Y-110442D01*
X200628Y-110457D01*
X200565Y-110479D01*
X200498Y-110509D01*
X200435Y-110553D01*
X200402Y-110583D01*
X200372Y-110612D01*
Y-110616D01*
X200365Y-110620D01*
X200357Y-110631D01*
X200346Y-110646D01*
X200335Y-110664D01*
X200324Y-110686D01*
X200309Y-110716D01*
X200294Y-110746D01*
X200279Y-110783D01*
X200265Y-110820D01*
X200254Y-110864D01*
X200242Y-110912D01*
X200231Y-110964D01*
X200224Y-111020D01*
X200220Y-111083D01*
X200217Y-111145D01*
Y-111149D01*
Y-111160D01*
Y-111179D01*
X200220Y-111205D01*
Y-111234D01*
X200224Y-111268D01*
X200235Y-111345D01*
X200254Y-111434D01*
X200283Y-111523D01*
X200320Y-111608D01*
X200346Y-111645D01*
X200372Y-111682D01*
X200376D01*
X200379Y-111690D01*
X200402Y-111708D01*
X200435Y-111738D01*
X200479Y-111768D01*
X200535Y-111801D01*
X200602Y-111831D01*
X200679Y-111849D01*
X200720Y-111853D01*
X200765Y-111857D01*
X200787D01*
X200805Y-111853D01*
X200846Y-111845D01*
X200902Y-111834D01*
X200961Y-111812D01*
X201028Y-111782D01*
X201090Y-111738D01*
X201124Y-111708D01*
X201153Y-111679D01*
X201157Y-111675D01*
X201161Y-111671D01*
X201168Y-111660D01*
X201179Y-111645D01*
X201190Y-111627D01*
X201205Y-111605D01*
X201220Y-111575D01*
X201235Y-111545D01*
X201250Y-111508D01*
X201261Y-111468D01*
X201276Y-111423D01*
X201287Y-111375D01*
X201298Y-111320D01*
X201305Y-111264D01*
X201313Y-111201D01*
Y-111134D01*
Y-111131D01*
Y-111120D01*
Y-111101D01*
X201309Y-111079D01*
Y-111049D01*
X201305Y-111016D01*
X201294Y-110938D01*
X201276Y-110857D01*
X201246Y-110768D01*
X201205Y-110686D01*
X201183Y-110646D01*
X201153Y-110612D01*
Y-110608D01*
X201146Y-110605D01*
X201124Y-110583D01*
X201090Y-110557D01*
X201046Y-110523D01*
X200991Y-110490D01*
X200924Y-110460D01*
X200850Y-110442D01*
X200809Y-110438D01*
X200765Y-110434D01*
D02*
G37*
%LPD*%
D12*
X1000Y67250D02*
G03*
X-3000Y63250I-0J-4000D01*
G01*
X127000D02*
G03*
X123000Y67250I-4000J0D01*
G01*
Y-12750D02*
G03*
X127000Y-8750I0J4000D01*
G01*
X-3000D02*
G03*
X1000Y-12750I4000J-0D01*
G01*
X-3000Y-8750D02*
Y63250D01*
X1000Y67250D02*
X123000D01*
X127000Y-8750D02*
Y63250D01*
X1000Y-12750D02*
X123000D01*
D96*
X79400Y25270D02*
D03*
X44200D02*
D03*
D97*
X108700Y-8500D02*
D03*
X104306D02*
D03*
D98*
X69982Y-11493D02*
D03*
X65532D02*
D03*
X83025Y-11425D02*
D03*
X87475D02*
D03*
X21500Y61040D02*
D03*
Y55960D02*
D03*
X10800Y-7750D02*
D03*
Y-750D02*
D03*
X22000D02*
D03*
Y-7750D02*
D03*
X1000Y63250D02*
D03*
D99*
X69982Y-7993D02*
D03*
X65532D02*
D03*
X83025Y-7925D02*
D03*
X87475D02*
D03*
D100*
X71932Y-11043D02*
D03*
X63582D02*
D03*
X81075Y-10975D02*
D03*
X89425D02*
D03*
D101*
X118600Y12655D02*
D03*
D102*
X30100Y-10790D02*
D03*
X121700Y3310D02*
D03*
Y770D02*
D03*
Y-1770D02*
D03*
X33300Y-10790D02*
D03*
D103*
X30100Y-8250D02*
D03*
X121700Y5850D02*
D03*
X33300Y-8250D02*
D03*
D104*
X0Y0D02*
D03*
D105*
X39836Y-8814D02*
D03*
X52536D02*
D03*
D106*
X41075Y59875D02*
D03*
D107*
X85475Y57525D02*
D03*
D108*
X93025D02*
D03*
D109*
X1000Y-8750D02*
D03*
X123000D02*
D03*
Y63250D02*
D03*
D210*
X77400Y25270D02*
D03*
X76600D02*
D03*
X75800D02*
D03*
X75000D02*
D03*
X74200D02*
D03*
X70200D02*
D03*
X71000D02*
D03*
X71800D02*
D03*
X72600D02*
D03*
X73400D02*
D03*
X66200D02*
D03*
X67000D02*
D03*
X67800D02*
D03*
X68600D02*
D03*
X69400D02*
D03*
X62200D02*
D03*
X63000D02*
D03*
X63800D02*
D03*
X64600D02*
D03*
X65400D02*
D03*
X58200D02*
D03*
X59000D02*
D03*
X59800D02*
D03*
X60600D02*
D03*
X61400D02*
D03*
X54200D02*
D03*
X55000D02*
D03*
X55800D02*
D03*
X56600D02*
D03*
X57400D02*
D03*
X50200D02*
D03*
X51000D02*
D03*
X51800D02*
D03*
X52600D02*
D03*
X53400D02*
D03*
X46200D02*
D03*
X47000D02*
D03*
X47800D02*
D03*
X48600D02*
D03*
X49400D02*
D03*
D211*
X350Y37750D02*
D03*
X2800D02*
D03*
X350Y16800D02*
D03*
X2800D02*
D03*
D212*
X1575Y36025D02*
D03*
Y39475D02*
D03*
X1575Y15075D02*
D03*
Y18525D02*
D03*
D213*
X1125Y37075D02*
D03*
X2025D02*
D03*
X1125Y38425D02*
D03*
X2025D02*
D03*
X1125Y16125D02*
D03*
X2025D02*
D03*
X1125Y17475D02*
D03*
X2025D02*
D03*
M02*
