M48
;Layer_Color=9474304
;FILE_FORMAT=4:3
METRIC,LZ
;TYPE=NON_PLATED
T8F00S00C0.650
T9F00S00C0.700
T10F00S00C1.000
T11F00S00C1.200
T12F00S00C1.730
T13F00S00C2.000
T14F00S00C3.250
%
T08
X0093025Y0057525
T09
X0085475Y0057525
T10
X0087475Y-0011425
X0104306Y-00085
X01087
X0083025Y-0011425
X0069982Y-0011493
X0065532
X00442Y002527
X00794
T11
X00215Y005596
Y006104
T12
X01186Y0012655
T13
X00108Y-000775
X0022
Y-000075
X00108
T14
X0052536Y-0008814
X0039836
X0001Y006325
M30
