M48
;Layer_Color=9474304
;FILE_FORMAT=4:3
METRIC,LZ
;TYPE=PLATED
T1F00S00C0.100
T2F00S00C0.150
T5F00S00C1.000
T7F00S00C3.250
%
T01
X006784Y-0005099
X0068325Y-000515
X00205Y0014
X0019
Y00145
X00195
Y00155
X0019Y0016
Y00165
X00195
Y0017
X002
Y0016
X00205
X00185Y00165
X0018
Y0017
X00175
X00185
X0018Y00155
X00175Y0015
Y00145
Y0014
X00185
Y00145
X0018
X00185Y00135
X0019
T02
X0126Y-000475
X0116Y-000275
X011435Y-00054
X011275Y-00057
X011135Y-000844
X01081Y-000745
X01073
X0108Y-000975
X01065Y-001072
X0104Y-000975
X010165Y-000855
X009826Y-0009895
X0097Y-001175
X00966Y-00069
X00947Y-000785
X009065Y-000685
X008925Y-00065
X009015Y-000325
X009135Y-00031
X00875Y-000305
X0087Y-00033
X00864
X008563Y-000309
X00856Y-00025
X00849Y-000355
X008615Y-000405
X008525Y-001004
X00955Y-000215
X00994Y-000145
X01Y-000375
X010165Y-000348
X01049Y-00041
X0105Y-000145
X010945Y-000175
X01094Y-000255
X011125Y-000175
X0113Y-001175
X011525Y-001015
X011675Y-001
X0119Y-001175
X008395Y-000935
X008221Y-000564
X008303Y-000355
X008415Y-000357
X008435Y-000095
X008027Y-000228
X008021Y-000349
X007942Y-00047
X00781
X00755Y-00059
X00756Y-0008
X007385Y-000775
X007365Y-000425
X0074Y-000335
X00707Y-00033
X007069Y-000429
X006915Y-000315
X00695Y-000605
Y-00065
X006905Y-000655
X006645Y-00066
X006575Y-00068
X00654Y-00058
X006675
X006375Y-00057
X006175Y-00082
X0058Y-000775
X00581Y-00032
Y-0002
X006165Y-000225
X006595Y-000235
X006605Y-00013
X005485Y-000575
X0052Y-000475
X0046
X0049Y-001175
X00763Y-0011
X007925Y-000845
X0043Y-001175
X004Y-000475
X00375Y-00058
X0028Y-000275
X0023Y-000375
X0017Y-000275
X0012
X000665Y-000225
X001625Y-000875
X00162Y-00115
X0018Y-001175
X002745Y-001145
Y-000875
X000425Y-000355
X-0002Y-000475
Y000125
Y000725
Y001325
X000032Y001507
X00015Y001415
X00026Y001509
X00027Y001827
X000149Y001901
X000027Y001832
X-000066Y001675
X-0002Y001925
Y002525
Y003125
Y003725
X-000031Y003774
X000029Y003601
X000153Y003526
X00031Y003565
X000393Y003775
X0004Y000725
X0011Y000925
X00127Y001085
X001285Y001225
X001575Y00123
X001665Y00116
X0017Y0013
X001605Y001375
X001675Y001475
X001635Y001665
X001775Y00177
X001975Y001805
X00205Y00178
X00211Y00176
Y00187
X002205Y0018
X002185Y001695
X002175Y001605
X002115Y0016
X002125Y0015
X00219Y001475
Y001325
X00215Y001205
X002075Y00125
X002325Y001205
X00246Y001415
X00255Y001325
X002565Y00151
X0025Y00165
X00255Y0018
X00255Y001925
X002245
X00197Y00191
X001975Y002205
X002125Y002225
X001825Y002235
X00163Y002555
X00153
Y002865
X00163Y002845
X00175Y002925
X00183
X00175Y003005
Y003085
X00167
Y003165
X0017466
X00175Y003325
Y003485
Y003565
X00185Y003605
Y003525
X001935Y003485
X00195Y003605
X00186Y003765
X00167Y003805
X00157Y003765
X0015Y003825
X00135Y003725
X00136Y003605
X00127Y003565
X00119
X00111Y003485
X00127
Y003405
X00119
Y003325
X00127Y003245
X00135
Y003165
X00127
Y003085
X00135
Y003005
X00127
Y002925
X00135
X00119
Y003005
Y003085
Y003165
X00101Y003285
X000715
Y003545
Y003645
X00072Y00374
X00071Y003795
X000725Y00385
X00064Y003595
X00102Y003745
X00109Y003685
Y003845
X00149Y003435
X00167Y003405
Y003485
X001585Y00317
X00155Y003085
X00143Y003235
X00142Y0028
X00112
X0012Y002525
X0013Y002275
X001235Y001985
X00125Y0017
Y001525
X00154Y00186
X00154Y001985
X001565Y001075
X001665Y000865
X0018Y000845
X001975
X0017Y000425
X0026Y000725
X002905Y000455
X003413Y000723
X003414Y000785
X003325Y00084
X003326Y000895
X003524Y000887
X003594
X0036Y001725
X003575Y001925
X00365Y0021
X00369Y0023225
X003785Y0023275
X0038725Y002435
X00388Y002505
X004Y002495
X004125Y00251
X00405Y002332
X0040475Y002125
X0038824Y002227
X00375Y002515
X003625Y00251
X0035
X003375
X0034575Y00232
X0032Y002265
X00307Y002305
Y002515
X00303Y002605
X0029Y00267
X002925Y002795
X00284Y00289
X002695Y00287
X002665Y002925
X00269Y00261
X002675Y00231
X003Y002025
X00294Y001505
X003065Y00127
X00312
X00396Y00144
X00395Y00176
X00412
X00427Y0018
X00438Y001895
X004375Y001965
X00439Y00208
X00435Y00214
X004395Y00218
X00435Y002345
X0042975Y002045
X004376Y001454
X004265Y0014
X00408Y00038
X0042Y-000075
X00412Y00279
Y003005
X00404
Y003085
Y003165
X00412
Y003085
X0042Y003165
Y003245
X00412
X00404
X00396
X00388
X0038
Y003165
Y003085
X00372
X00364
X00356
Y003165
X00348
X0034
Y003085
X00332
Y003165
X00324
X00316
Y003085
X00324
Y003005
X00316
Y002925
Y00286
X00308Y002925
Y003085
Y003165
Y003245
Y003325
Y003405
X00316
Y003325
X00324
Y003405
Y003485
Y003565
X00316
Y003645
X00324
Y003725
Y003805
X00316
X00308
Y003725
X003
Y003805
Y003645
X00308
Y003565
X002885Y003575
Y00345
X00298Y003445
Y003365
Y003285
X00288Y0033
X002905Y003145
X003Y003165
Y003085
X00316Y003245
X00324
X00332
X0034
X00348
X00356
X00364
X00372
Y003325
X00364
X00356
X00348
X0034
Y003405
X00332
Y003325
Y003565
Y003645
X0034
Y003565
Y003725
Y003805
X00348
Y003725
X00356
Y003805
X00364
Y003725
X00372
Y003805
X00388
Y003725
X00396
Y003805
X00404
X00412
Y003725
X00404
Y003645
Y003565
X00396Y00356
Y003645
X00388
Y003565
X0038
Y003645
Y003405
X00388
Y003325
X0038
X00396
Y003405
X00404
Y003325
X00412Y003405
Y003645
X0042
Y003805
X00429Y00372
X00438Y003725
Y0036
X004345Y003555
X00438Y003505
Y003375
X004355Y003005
X0042
Y002925
X00396
Y003005
X00388
Y002925
X0038
Y003005
X00372
Y002925
X00356
Y003005
X00348
Y002925
X0034
Y003005
X00332
Y002925
X003375Y00279
X0035
X003625
X00375
X00388Y003165
X00396
Y003085
X0044225Y002697
X004505Y003845
X00332Y003805
Y003725
X002875
X00257
Y00357
Y00345
Y0033
X00229Y003315
X00222Y003265
Y003165
Y003065
X002395Y003145
X00192Y003165
Y003245
X00188Y003285
X00192Y003065
X002255Y003575
X00224Y003705
X00225Y003775
X002245Y00383
X0007Y002925
Y002325
X004645Y00232
X00471
X00476Y002155
Y002055
X0046572Y0020539
X004655Y00215
X00456
Y002055
Y001955
X004655Y00195
X00476
X00496Y0019289
X00491Y00203
X00499Y0022
X004925Y002345
X00493Y0027
X004985
X00504
X004845
X004745
X004655
X00455
X004855Y003005
X00514Y002925
X005095Y003235
X005065Y003375
X00484Y00337
X00466Y003375
X00467Y00351
X004665Y0036
X00473
X00468Y003725
X004735Y003865
X00504Y003875
X00505Y00365
X005205Y003565
X00541Y0035
X005405Y003805
X00551
X00563
X00558Y00374
X005345Y003755
X005945
X00596Y00359
X006065Y003575
X005875Y00354
X006Y00337
X00588Y003175
X00552Y00327
X0055Y0026875
X005395Y0027
X00536Y00234
X0053Y00235
Y0023
Y00219
X00529Y002075
X00541Y00208
X005315Y00195
X005335Y001835
X00519Y00166
X00497Y001755
X0049
X0048Y001745
X004634Y001805
X004577
X004581Y001453
X00467Y00142
X00477
X00491Y00145
X004972Y001451
X005815Y00124
X00601Y00105
X006125Y00099
X006275Y00072
Y0006
X00628Y000475
Y00035
X006285Y000225
X00615Y0001
X00574Y-000025
X0049Y-000075
X006565Y000285
X0066Y0004
X006765Y00042
X0069Y000415
X00704
Y000275
X0069
X006765
X00675Y000125
X0069Y00013
X007045Y000125
X0072Y0002
Y0003
X007205Y0004
X007315Y000295
X007435
X007575Y000305
X0075Y00015
Y000025
X00716Y-00002
X0069501Y-000025
X006895Y-000031
X006875Y00061
X006975Y00059
X00707Y00064
X00702Y00078
X006925Y00069
X00682Y00082
X00677Y000895
X007265Y00089
X007155Y0012
X00681Y00138
Y0015
X00659Y0013
X00677Y002115
X0068Y002325
X006875Y0023
X0069604Y002278
X007146Y001975
X007155Y00185
X007395Y00208
X00765Y001805
X0082Y001925
X008314Y001917
X008365Y001915
X008412Y001914
X0082Y002525
X007815Y00252
X00772Y002775
X0075775Y00269
X0074975Y002695
X00748Y003125
X007545
X00728Y00309
X007265Y003385
X00715Y003495
X007385Y003545
X006985Y00331
X007005Y003205
X006725Y00331
X006735Y00356
X006815Y003855
X00648Y00385
X00635Y00335
X00651Y002835
X006585Y00287
X00656Y00268
X0066204
X0067029Y0026775
X006465Y00268
X006375Y002685
X00624Y00269
X006445Y002195
X0058Y002265
X005805Y00234
X00564Y00235
X00566Y0022
X0058Y00175
X00468Y003225
X007905Y003005
Y002945
X0084Y002925
X00845Y00272
X0084Y003325
X007815Y003855
X007925Y000935
X008Y00065
X007635Y00075
X00766Y00051
X0083Y000225
X0084Y000315
X008655Y00016
X0089Y000525
X009135Y000375
X009425Y000425
X00942Y000275
X00934Y00018
X0094Y00057
X009345Y000645
X00926Y000675
X00933Y0009
X0094Y001025
X009475Y00143
X00965Y00138
X009925Y001325
X01005
X010175
X0103Y001335
X010425
X010575Y001345
X01069Y00134
X010975Y00133
X011075
X011125Y001335
X011145Y001115
X011215Y0009
X01143Y000825
Y00065
X01142Y000375
X01143Y00025
X011085Y00005
X011115Y-000025
X0107Y00015
X01075Y00026
X0104Y000185
X01031Y00014
X01022Y000225
X0102Y000375
X010275Y000625
X0104Y00074
X010475
X01083Y000675
X0118Y000575
X011691Y0010845
X011689Y0011375
X01169Y0011875
X01165Y0013905
X0116Y001825
X011525Y002075
Y002125
Y002175
Y002325
Y002373
Y002425
Y002575
Y002625
Y002675
Y002825
Y002875
Y002925
X01159Y003175
X011545Y00339
Y003615
X01169Y0035
X0114
X010945Y00343
X011045Y003175
X010925Y002925
X01095Y002425
X011075Y00216
X011355Y00241
X012075Y002425
Y002375
Y002325
Y002175
Y002125
Y002075
X01205Y00165
X012325Y001775
X0122Y000925
X012075Y002575
Y002627
Y002675
Y002825
Y002875
Y002925
X012305Y003175
X01231Y0035
X0106Y003575
X010525Y0035766
X010426Y003289
X010371
X010216Y003322
Y003373
X01045Y00315
X0105Y003125
X01065Y00265
X010425Y002125
X01045Y001875
X010075
X01Y001625
X009765Y001605
Y00166
X009875Y002125
X009565Y00218
X00953Y00215
X009495Y00211
X00919Y001945
X00889Y002115
X008762Y00233
X0087
X00857Y0022
X008535Y001915
X008595Y00165
X008545Y00145
X00893Y00155
X00899Y00125
X0089Y001125
X0085Y000925
Y000625
X009875Y00037
Y00007
X009185Y00265
X008875Y002685
X00863Y002645
X0088Y003125
X009Y003325
X00906Y00289
X0096Y003125
X0088Y003725
X00858Y00379
X012455Y003615
Y00339
X0126Y0035
Y003725
Y003225
Y002725
Y002025
Y001425
Y000925
Y000425
Y-000075
X012505Y004095
X0126Y004625
Y005325
Y005825
X0118Y006125
X01145
X01138Y00558
X01164Y0049
X01184Y004685
X012115Y00468
X01196Y0042
X012285Y004105
X011385Y004185
X01061Y004445
X010425Y004665
X0103Y004575
X0098
X01Y004825
X01016Y005175
Y00547
X0099Y005825
X00965Y006125
X0098Y006625
X0092Y006525
X0086
X008605Y0058375
X0087Y005425
X008605Y005295
X0088225Y0053025
X008925Y00494
X00905
X00917Y00493
X009175Y004625
X00905
X008925
X008715Y00451
X0085Y004625
X00924Y00432
X009345Y0044
X0095Y004025
X0091
X0101
X0104Y00411
X01083Y004675
X00965Y005025
X0093Y005425
X0092275Y005835
X01124Y006625
X0118
X0079675Y00662
X0076Y006625
X0069
X006725Y006415
X006675Y006454
X006632Y006497
X00657Y006335
X00647Y00633
X0064Y00634
X006275Y0063075
X006175
X006123Y006349
X00622Y006415
X0065Y006625
X00677Y006355
X006925Y0061275
X00653Y006105
X006025Y006115
X005975Y00606
X006055Y00585
X005845Y00564
X0058325Y0055175
X0054875Y0056425
X005415Y0056
X005355Y005555
X00547Y00576
X005425Y00585
X005475Y006085
X005725Y006105
X005671Y006347
X005525Y0063075
X005825
X0058Y006675
X0051
X0046
X00495Y006225
X0048875Y00593
X00515Y0057
X00525Y0053
X00535Y0051
X00558Y005165
X00565Y005075
X005475Y004775
X00526Y004475
X00505Y004275
X00468Y00428
Y00437
X004675Y004175
X00468Y004075
Y00397
X005115Y00389
X004905Y0046
X00485
X004765Y00466
X004625Y00495
X004925Y005225
X00588Y00459
X005925Y004075
X006125Y004025
X006625Y004
X00682Y004025
X006805Y004125
X0068Y004525
X0074
X00795
X00812Y004625
X00825Y004625
X008375
Y00493
X0082725Y0052875
X0081525Y0055475
X008Y005525
X0076Y005125
X0073Y005325
X007Y005125
Y005525
X007815Y00411
Y003985
X0082Y003925
X00438
X00435Y003995
X00426Y003965
X00421Y004045
X00412
Y004125
X0042
X004175Y004205
X00438Y004175
Y00437
X00439Y00455
X004175Y0045
X003675Y004495
X003705Y004575
X003695Y00464
X00355Y004495
X003425
X00326Y004505
X00316Y004485
X00305Y004495
X002995Y0046
X00282Y0044
X002906Y004126
X00308Y004125
Y004045
Y003965
X003
Y004045
Y003885
X00308
X00316
X00324
Y003965
X00316
Y004045
X00324
X00332
Y003965
X0034
Y004045
X00348
Y003965
X00356
Y004045
X00364
Y003965
X00372
Y004045
X0038
X00388
Y003965
X00396
X004035
X00404Y003885
X003965
X00388
X00372
X00364
X00356
X00348
X0034
X00332
Y004125
X0034
X00348
X0034Y00421
X0033Y004205
X00316
Y004125
X00324
X00305Y004205
X00288Y003885
X0026Y00413
X002405Y004285
X00224Y004205
Y004105
Y004005
X00224Y00391
X00194Y003905
X00195Y004005
X00175Y004045
X0016963Y0042279
X0015967Y0042414
X001595Y004525
X001495
X001695
X001795
X001895
X002475Y00452
X0026Y00465
X002495Y00483
X002275Y0052
X00156Y005165
X00122Y004865
X00124Y004525
X00114
X00101Y004145
X00102Y004045
X00109Y003925
X00119Y003885
X00127
Y003965
X00135Y004045
Y004125
X000715Y004145
X00072Y004045
X000725Y00399
Y003935
X00064Y00418
X003675Y004205
X00392Y004135
X004
X00385Y005025
X00364Y00512
X00359Y00491
X00338Y00464
X00303Y00497
X002885Y005445
Y005495
X00288Y005695
Y00575
X00293Y005985
X00298Y00623
X0028Y006625
X0034
X004Y006675
X0039Y006425
X003942Y00598
X0041Y006134
Y005822
X004283Y00598
X0043Y005675
X0038Y005375
X00315Y005725
X00332Y00593
X0022Y006625
X0016
X0004Y004925
X0001Y004625
X0004Y004325
X000309Y003935
X00015Y004005
X000018Y00393
X-0002Y004325
Y004925
T05
X01217Y-000177
X00333Y-000825
Y-001079
X00301
Y-000825
X0Y0
X01217Y000077
Y000331
Y000585
T07
X0123Y-000875
X0001
X0123Y006325
M30
