G04*
G04 #@! TF.GenerationSoftware,Altium Limited,Altium Designer,19.0.13 (425)*
G04*
G04 Layer_Color=8388736*
%FSLAX43Y43*%
%MOMM*%
G71*
G01*
G75*
%ADD12C,0.250*%
%ADD17R,0.503X0.803*%
%ADD18C,0.325*%
%ADD19R,2.003X3.003*%
%ADD20R,1.203X2.003*%
%ADD21R,4.100X5.100*%
%ADD22R,1.450X0.900*%
%ADD23R,6.403X1.403*%
%ADD24R,2.203X3.703*%
%ADD25R,0.703X2.503*%
%ADD26R,3.003X2.203*%
%ADD27R,0.603X1.553*%
%ADD28R,3.353X1.473*%
%ADD29R,3.780X1.370*%
%ADD30R,1.473X1.727*%
%ADD31R,3.603X1.403*%
%ADD32R,0.803X0.623*%
%ADD33R,1.653X0.753*%
%ADD34R,1.403X0.803*%
%ADD35R,2.903X1.203*%
%ADD36R,2.903X3.503*%
%ADD37R,0.803X0.653*%
%ADD38R,0.813X1.727*%
%ADD39C,1.194*%
%ADD40R,2.703X4.103*%
%ADD41R,1.003X4.803*%
%ADD42R,0.803X4.803*%
%ADD43R,2.300X7.200*%
%ADD44R,2.700X2.300*%
%ADD45O,2.007X0.460*%
%ADD46O,2.007X0.457*%
%ADD47O,0.460X2.007*%
%ADD48O,0.457X2.007*%
%ADD49R,2.103X2.843*%
%ADD50R,0.903X0.603*%
%ADD51R,0.803X0.503*%
%ADD52R,3.603X3.603*%
%ADD53O,0.893X0.483*%
%ADD54O,0.483X0.893*%
%ADD55R,2.703X2.703*%
%ADD56R,0.900X1.700*%
%ADD57R,1.300X3.200*%
%ADD58R,1.700X3.600*%
%ADD59R,1.500X3.600*%
%ADD60R,1.600X3.600*%
%ADD61R,2.050X1.500*%
%ADD62R,2.703X1.703*%
%ADD63R,2.703X2.203*%
%ADD64R,2.203X2.703*%
%ADD65R,1.100X1.100*%
%ADD66C,0.457*%
%ADD67R,1.303X1.703*%
%ADD68R,0.503X1.453*%
%ADD69C,0.523*%
%ADD70P,0.599X8X22.5*%
%ADD71R,3.203X1.223*%
%ADD72R,2.233X2.023*%
%ADD73R,0.953X1.583*%
%ADD74R,2.703X1.953*%
%ADD75R,0.703X1.003*%
%ADD76R,2.363X1.723*%
%ADD77C,0.453*%
%ADD78C,0.423*%
%ADD79P,0.599X8X292.5*%
%ADD80R,1.803X3.403*%
%ADD81R,1.473X2.032*%
%ADD82R,1.219X1.473*%
%ADD83R,1.473X1.219*%
%ADD84R,1.453X1.403*%
%ADD85R,1.303X1.403*%
%ADD86R,1.403X1.303*%
%ADD87R,1.165X0.965*%
%ADD88R,0.965X1.165*%
%ADD89R,2.032X1.473*%
%ADD90R,0.803X1.403*%
%ADD91R,1.100X1.100*%
%ADD92R,1.727X1.473*%
%ADD93R,0.753X1.653*%
%ADD94R,1.203X2.903*%
%ADD95R,3.503X2.903*%
%ADD96C,1.100*%
%ADD97C,0.703*%
%ADD98C,1.003*%
%ADD99O,1.203X1.403*%
%ADD100R,1.603X2.353*%
%ADD101C,1.830*%
%ADD102C,1.981*%
%ADD103R,1.981X1.981*%
%ADD104C,1.727*%
%ADD105C,2.703*%
%ADD106R,2.400X1.700*%
%ADD107C,0.800*%
%ADD108C,0.750*%
%ADD109C,6.703*%
G36*
X44277Y19099D02*
Y21979D01*
X45072Y21979D01*
X45072Y19099D01*
X44277D01*
D02*
G37*
G36*
X48011Y18244D02*
X45131D01*
X45131Y19039D01*
X48011Y19039D01*
Y18244D01*
D02*
G37*
G36*
X48867Y21979D02*
Y19099D01*
X48072Y19099D01*
X48072Y21979D01*
X48867D01*
D02*
G37*
G36*
X28725Y43700D02*
X26350D01*
Y42300D01*
X28725D01*
Y43700D01*
D02*
G37*
G36*
X19750Y51500D02*
X22250D01*
Y52500D01*
X19750D01*
Y51500D01*
D02*
G37*
G36*
X45132Y22834D02*
X48012D01*
X48012Y22039D01*
X45132Y22039D01*
Y22834D01*
D02*
G37*
G36*
X49525Y44050D02*
X51900D01*
Y45450D01*
X49525D01*
Y44050D01*
D02*
G37*
G36*
X66980Y4650D02*
Y850D01*
X66320D01*
Y4650D01*
X66980D01*
D02*
G37*
G36*
X67100Y730D02*
X70900D01*
X70900Y70D01*
X67100Y70D01*
Y730D01*
D02*
G37*
G36*
X71680Y4650D02*
Y850D01*
X71020D01*
Y4650D01*
X71680D01*
D02*
G37*
G36*
X86500Y-3750D02*
Y-6250D01*
X87500D01*
Y-3750D01*
X86500D01*
D02*
G37*
G36*
X76850Y21275D02*
X77400D01*
Y18725D01*
X76850D01*
Y18425D01*
X76700D01*
Y18725D01*
X76300D01*
Y18425D01*
X76150D01*
Y18725D01*
X75600D01*
Y21275D01*
X76150D01*
Y21575D01*
X76300D01*
Y21275D01*
X76700D01*
Y21575D01*
X76850D01*
Y21275D01*
D02*
G37*
G36*
X68000Y19500D02*
X65500D01*
Y20500D01*
X68000D01*
Y19500D01*
D02*
G37*
G36*
X70500Y18050D02*
X70950D01*
Y16850D01*
X69050D01*
Y18050D01*
X69500D01*
Y19450D01*
X70500D01*
Y18050D01*
D02*
G37*
G36*
X70900Y4780D02*
X67100Y4780D01*
Y5430D01*
X70900D01*
X70900Y4780D01*
D02*
G37*
G36*
X97250Y1750D02*
X94750D01*
Y750D01*
X97250D01*
Y1750D01*
D02*
G37*
G36*
Y3250D02*
X94750D01*
Y2250D01*
X97250D01*
Y3250D01*
D02*
G37*
G36*
Y4750D02*
X94750D01*
Y3750D01*
X97250D01*
Y4750D01*
D02*
G37*
G36*
Y6250D02*
X94750D01*
Y5250D01*
X97250D01*
Y6250D01*
D02*
G37*
G36*
X90000Y17500D02*
X87500D01*
Y18500D01*
X90000D01*
Y17500D01*
D02*
G37*
G36*
X104750Y10500D02*
X103750D01*
Y13000D01*
X104750D01*
Y10500D01*
D02*
G37*
G36*
X97250Y8250D02*
X94750D01*
Y9250D01*
X97250D01*
Y8250D01*
D02*
G37*
G36*
Y6750D02*
X94750D01*
Y7750D01*
X97250D01*
Y6750D01*
D02*
G37*
G36*
X94250Y19750D02*
X96750D01*
Y20750D01*
X94250D01*
Y19750D01*
D02*
G37*
G36*
X119000Y42500D02*
X116500D01*
Y41500D01*
X119000D01*
Y42500D01*
D02*
G37*
G36*
X102500Y49750D02*
X105000D01*
Y50750D01*
X102500D01*
Y49750D01*
D02*
G37*
G36*
X117750Y48500D02*
X120250D01*
Y49500D01*
X117750D01*
Y48500D01*
D02*
G37*
G36*
X102500Y51250D02*
X105000D01*
Y52250D01*
X102500D01*
Y51250D01*
D02*
G37*
G36*
Y52750D02*
X105000D01*
Y53750D01*
X102500D01*
Y52750D01*
D02*
G37*
G36*
Y54250D02*
X105000D01*
Y55250D01*
X102500D01*
Y54250D01*
D02*
G37*
G36*
X205968Y-109472D02*
X205994D01*
X206064Y-109479D01*
X206142Y-109490D01*
X206223Y-109509D01*
X206312Y-109531D01*
X206394Y-109560D01*
X206397D01*
X206405Y-109564D01*
X206416Y-109572D01*
X206431Y-109579D01*
X206468Y-109598D01*
X206516Y-109631D01*
X206571Y-109668D01*
X206627Y-109716D01*
X206679Y-109772D01*
X206727Y-109835D01*
Y-109838D01*
X206731Y-109842D01*
X206738Y-109853D01*
X206745Y-109864D01*
X206764Y-109901D01*
X206786Y-109949D01*
X206812Y-110009D01*
X206831Y-110079D01*
X206849Y-110153D01*
X206857Y-110234D01*
X206531Y-110260D01*
Y-110257D01*
Y-110249D01*
X206527Y-110238D01*
X206523Y-110220D01*
X206512Y-110179D01*
X206497Y-110123D01*
X206475Y-110064D01*
X206442Y-110005D01*
X206401Y-109949D01*
X206349Y-109897D01*
X206342Y-109894D01*
X206323Y-109879D01*
X206286Y-109857D01*
X206238Y-109835D01*
X206175Y-109812D01*
X206101Y-109790D01*
X206009Y-109775D01*
X205905Y-109772D01*
X205853D01*
X205831Y-109775D01*
X205801Y-109779D01*
X205734Y-109786D01*
X205660Y-109801D01*
X205586Y-109820D01*
X205516Y-109849D01*
X205486Y-109868D01*
X205457Y-109886D01*
X205449Y-109890D01*
X205434Y-109905D01*
X205412Y-109931D01*
X205390Y-109960D01*
X205364Y-110001D01*
X205342Y-110046D01*
X205327Y-110097D01*
X205320Y-110157D01*
Y-110164D01*
Y-110179D01*
X205323Y-110205D01*
X205331Y-110234D01*
X205342Y-110271D01*
X205360Y-110309D01*
X205383Y-110346D01*
X205416Y-110383D01*
X205420Y-110386D01*
X205438Y-110397D01*
X205453Y-110409D01*
X205468Y-110416D01*
X205490Y-110427D01*
X205516Y-110442D01*
X205549Y-110453D01*
X205586Y-110468D01*
X205627Y-110483D01*
X205675Y-110501D01*
X205727Y-110516D01*
X205786Y-110534D01*
X205853Y-110549D01*
X205927Y-110568D01*
X205931D01*
X205946Y-110571D01*
X205968Y-110575D01*
X205994Y-110583D01*
X206027Y-110590D01*
X206068Y-110601D01*
X206109Y-110612D01*
X206153Y-110623D01*
X206249Y-110649D01*
X206342Y-110675D01*
X206386Y-110690D01*
X206427Y-110705D01*
X206464Y-110716D01*
X206494Y-110731D01*
X206497D01*
X206505Y-110734D01*
X206516Y-110742D01*
X206531Y-110749D01*
X206571Y-110771D01*
X206620Y-110801D01*
X206675Y-110842D01*
X206731Y-110886D01*
X206783Y-110938D01*
X206827Y-110994D01*
X206831Y-111001D01*
X206845Y-111020D01*
X206860Y-111053D01*
X206882Y-111097D01*
X206901Y-111149D01*
X206920Y-111212D01*
X206931Y-111283D01*
X206934Y-111357D01*
Y-111360D01*
Y-111364D01*
Y-111375D01*
Y-111390D01*
X206927Y-111431D01*
X206920Y-111482D01*
X206905Y-111542D01*
X206886Y-111605D01*
X206857Y-111671D01*
X206816Y-111742D01*
Y-111745D01*
X206812Y-111749D01*
X206794Y-111771D01*
X206768Y-111805D01*
X206731Y-111842D01*
X206683Y-111886D01*
X206623Y-111934D01*
X206557Y-111979D01*
X206479Y-112019D01*
X206475D01*
X206468Y-112023D01*
X206457Y-112027D01*
X206442Y-112034D01*
X206420Y-112042D01*
X206394Y-112053D01*
X206334Y-112068D01*
X206264Y-112086D01*
X206179Y-112105D01*
X206086Y-112116D01*
X205986Y-112119D01*
X205927D01*
X205897Y-112116D01*
X205864D01*
X205827Y-112112D01*
X205783Y-112108D01*
X205690Y-112094D01*
X205594Y-112079D01*
X205497Y-112053D01*
X205405Y-112019D01*
X205401D01*
X205394Y-112016D01*
X205383Y-112008D01*
X205368Y-112001D01*
X205323Y-111979D01*
X205272Y-111945D01*
X205212Y-111901D01*
X205149Y-111849D01*
X205090Y-111786D01*
X205035Y-111716D01*
Y-111712D01*
X205027Y-111705D01*
X205023Y-111694D01*
X205012Y-111679D01*
X205005Y-111660D01*
X204994Y-111638D01*
X204968Y-111582D01*
X204942Y-111512D01*
X204920Y-111434D01*
X204905Y-111345D01*
X204898Y-111253D01*
X205216Y-111223D01*
Y-111227D01*
Y-111231D01*
X205220Y-111242D01*
Y-111257D01*
X205227Y-111290D01*
X205238Y-111338D01*
X205253Y-111386D01*
X205268Y-111442D01*
X205294Y-111494D01*
X205320Y-111542D01*
X205323Y-111545D01*
X205335Y-111560D01*
X205353Y-111586D01*
X205383Y-111612D01*
X205420Y-111645D01*
X205460Y-111679D01*
X205516Y-111712D01*
X205575Y-111742D01*
X205579D01*
X205583Y-111745D01*
X205594Y-111749D01*
X205605Y-111753D01*
X205642Y-111764D01*
X205690Y-111779D01*
X205749Y-111794D01*
X205816Y-111805D01*
X205890Y-111812D01*
X205971Y-111816D01*
X206005D01*
X206042Y-111812D01*
X206086Y-111808D01*
X206138Y-111801D01*
X206197Y-111794D01*
X206257Y-111779D01*
X206312Y-111760D01*
X206320Y-111757D01*
X206338Y-111749D01*
X206364Y-111734D01*
X206397Y-111719D01*
X206431Y-111694D01*
X206468Y-111668D01*
X206505Y-111638D01*
X206534Y-111601D01*
X206538Y-111597D01*
X206545Y-111582D01*
X206557Y-111564D01*
X206571Y-111534D01*
X206586Y-111505D01*
X206597Y-111468D01*
X206605Y-111427D01*
X206608Y-111382D01*
Y-111379D01*
Y-111360D01*
X206605Y-111338D01*
X206601Y-111308D01*
X206590Y-111279D01*
X206579Y-111242D01*
X206560Y-111205D01*
X206534Y-111171D01*
X206531Y-111168D01*
X206520Y-111157D01*
X206505Y-111142D01*
X206479Y-111120D01*
X206449Y-111097D01*
X206408Y-111071D01*
X206360Y-111046D01*
X206305Y-111023D01*
X206301Y-111020D01*
X206283Y-111016D01*
X206253Y-111005D01*
X206234Y-111001D01*
X206208Y-110994D01*
X206183Y-110983D01*
X206149Y-110975D01*
X206112Y-110964D01*
X206068Y-110953D01*
X206023Y-110942D01*
X205971Y-110927D01*
X205912Y-110912D01*
X205849Y-110897D01*
X205846D01*
X205834Y-110894D01*
X205816Y-110890D01*
X205794Y-110883D01*
X205764Y-110875D01*
X205731Y-110868D01*
X205657Y-110846D01*
X205575Y-110820D01*
X205490Y-110794D01*
X205416Y-110768D01*
X205383Y-110753D01*
X205353Y-110738D01*
X205349D01*
X205346Y-110734D01*
X205323Y-110720D01*
X205290Y-110701D01*
X205253Y-110671D01*
X205209Y-110638D01*
X205164Y-110597D01*
X205120Y-110549D01*
X205083Y-110497D01*
X205079Y-110490D01*
X205068Y-110471D01*
X205053Y-110442D01*
X205038Y-110405D01*
X205023Y-110357D01*
X205009Y-110301D01*
X204997Y-110242D01*
X204994Y-110179D01*
Y-110175D01*
Y-110172D01*
Y-110160D01*
Y-110146D01*
X205001Y-110109D01*
X205009Y-110060D01*
X205020Y-110005D01*
X205038Y-109942D01*
X205064Y-109879D01*
X205101Y-109816D01*
Y-109812D01*
X205105Y-109809D01*
X205123Y-109786D01*
X205149Y-109757D01*
X205183Y-109720D01*
X205227Y-109679D01*
X205283Y-109635D01*
X205349Y-109594D01*
X205423Y-109557D01*
X205427D01*
X205434Y-109553D01*
X205446Y-109549D01*
X205460Y-109542D01*
X205479Y-109535D01*
X205505Y-109527D01*
X205560Y-109512D01*
X205631Y-109498D01*
X205712Y-109483D01*
X205797Y-109472D01*
X205894Y-109468D01*
X205942D01*
X205968Y-109472D01*
D02*
G37*
G36*
X211641Y-112075D02*
X211349D01*
Y-111842D01*
X211345Y-111845D01*
X211341Y-111853D01*
X211330Y-111868D01*
X211315Y-111886D01*
X211297Y-111905D01*
X211275Y-111927D01*
X211249Y-111953D01*
X211215Y-111979D01*
X211182Y-112005D01*
X211145Y-112031D01*
X211101Y-112053D01*
X211052Y-112071D01*
X211004Y-112090D01*
X210949Y-112105D01*
X210889Y-112112D01*
X210827Y-112116D01*
X210804D01*
X210790Y-112112D01*
X210745Y-112108D01*
X210693Y-112101D01*
X210630Y-112086D01*
X210560Y-112064D01*
X210490Y-112034D01*
X210419Y-111994D01*
X210415D01*
X210412Y-111986D01*
X210390Y-111971D01*
X210356Y-111942D01*
X210315Y-111905D01*
X210267Y-111857D01*
X210219Y-111797D01*
X210171Y-111731D01*
X210130Y-111653D01*
Y-111649D01*
X210127Y-111642D01*
X210123Y-111631D01*
X210115Y-111616D01*
X210108Y-111594D01*
X210097Y-111568D01*
X210090Y-111542D01*
X210082Y-111508D01*
X210064Y-111434D01*
X210045Y-111349D01*
X210034Y-111253D01*
X210030Y-111149D01*
Y-111145D01*
Y-111138D01*
Y-111123D01*
Y-111101D01*
X210034Y-111079D01*
Y-111049D01*
X210041Y-110983D01*
X210053Y-110905D01*
X210071Y-110820D01*
X210093Y-110731D01*
X210123Y-110646D01*
Y-110642D01*
X210127Y-110634D01*
X210134Y-110623D01*
X210141Y-110608D01*
X210164Y-110568D01*
X210193Y-110516D01*
X210230Y-110460D01*
X210278Y-110405D01*
X210334Y-110346D01*
X210401Y-110297D01*
X210404D01*
X210408Y-110294D01*
X210419Y-110286D01*
X210434Y-110279D01*
X210471Y-110260D01*
X210523Y-110234D01*
X210582Y-110212D01*
X210652Y-110194D01*
X210730Y-110179D01*
X210812Y-110175D01*
X210841D01*
X210871Y-110179D01*
X210912Y-110183D01*
X210960Y-110194D01*
X211012Y-110205D01*
X211064Y-110223D01*
X211112Y-110249D01*
X211119Y-110253D01*
X211134Y-110260D01*
X211156Y-110279D01*
X211186Y-110297D01*
X211223Y-110323D01*
X211256Y-110357D01*
X211293Y-110390D01*
X211326Y-110431D01*
Y-109512D01*
X211641D01*
Y-112075D01*
D02*
G37*
G36*
X202864Y-110179D02*
X202890Y-110183D01*
X202946Y-110190D01*
X203013Y-110205D01*
X203083Y-110227D01*
X203153Y-110260D01*
X203224Y-110301D01*
X203227D01*
X203231Y-110309D01*
X203253Y-110323D01*
X203287Y-110353D01*
X203327Y-110390D01*
X203372Y-110438D01*
X203416Y-110497D01*
X203461Y-110568D01*
X203498Y-110646D01*
Y-110649D01*
X203501Y-110657D01*
X203505Y-110668D01*
X203512Y-110683D01*
X203520Y-110705D01*
X203527Y-110731D01*
X203546Y-110790D01*
X203564Y-110864D01*
X203579Y-110946D01*
X203590Y-111038D01*
X203594Y-111134D01*
Y-111138D01*
Y-111145D01*
Y-111160D01*
Y-111183D01*
X203590Y-111208D01*
Y-111238D01*
X203583Y-111305D01*
X203568Y-111386D01*
X203550Y-111471D01*
X203524Y-111560D01*
X203490Y-111649D01*
Y-111653D01*
X203487Y-111660D01*
X203479Y-111671D01*
X203472Y-111686D01*
X203446Y-111727D01*
X203412Y-111779D01*
X203372Y-111834D01*
X203320Y-111890D01*
X203261Y-111945D01*
X203190Y-111997D01*
X203187D01*
X203183Y-112001D01*
X203172Y-112008D01*
X203157Y-112016D01*
X203120Y-112034D01*
X203068Y-112057D01*
X203005Y-112079D01*
X202938Y-112097D01*
X202861Y-112112D01*
X202783Y-112116D01*
X202757D01*
X202727Y-112112D01*
X202690Y-112108D01*
X202646Y-112101D01*
X202598Y-112090D01*
X202550Y-112075D01*
X202501Y-112053D01*
X202498Y-112049D01*
X202479Y-112042D01*
X202457Y-112027D01*
X202427Y-112005D01*
X202398Y-111982D01*
X202361Y-111953D01*
X202327Y-111919D01*
X202298Y-111882D01*
Y-112786D01*
X201983D01*
Y-110216D01*
X202268D01*
Y-110460D01*
X202272Y-110453D01*
X202287Y-110438D01*
X202305Y-110412D01*
X202335Y-110383D01*
X202368Y-110346D01*
X202405Y-110312D01*
X202450Y-110279D01*
X202494Y-110249D01*
X202501Y-110246D01*
X202516Y-110238D01*
X202546Y-110227D01*
X202583Y-110212D01*
X202627Y-110197D01*
X202679Y-110186D01*
X202738Y-110179D01*
X202805Y-110175D01*
X202846D01*
X202864Y-110179D01*
D02*
G37*
G36*
X214874D02*
X214915Y-110186D01*
X214963Y-110201D01*
X215015Y-110220D01*
X215074Y-110246D01*
X215137Y-110279D01*
X215022Y-110568D01*
X215019Y-110564D01*
X215004Y-110557D01*
X214982Y-110546D01*
X214952Y-110534D01*
X214919Y-110523D01*
X214878Y-110512D01*
X214837Y-110505D01*
X214796Y-110501D01*
X214778D01*
X214759Y-110505D01*
X214734Y-110509D01*
X214708Y-110516D01*
X214674Y-110527D01*
X214641Y-110542D01*
X214611Y-110564D01*
X214608Y-110568D01*
X214597Y-110575D01*
X214585Y-110590D01*
X214567Y-110608D01*
X214548Y-110634D01*
X214530Y-110664D01*
X214511Y-110697D01*
X214497Y-110738D01*
X214493Y-110746D01*
X214489Y-110768D01*
X214482Y-110801D01*
X214471Y-110846D01*
X214459Y-110901D01*
X214452Y-110964D01*
X214448Y-111031D01*
X214445Y-111105D01*
Y-112075D01*
X214130D01*
Y-110216D01*
X214415D01*
Y-110497D01*
X214419Y-110494D01*
X214434Y-110468D01*
X214452Y-110434D01*
X214482Y-110394D01*
X214511Y-110353D01*
X214545Y-110309D01*
X214578Y-110271D01*
X214611Y-110242D01*
X214615Y-110238D01*
X214626Y-110231D01*
X214648Y-110220D01*
X214671Y-110209D01*
X214700Y-110197D01*
X214737Y-110186D01*
X214774Y-110179D01*
X214815Y-110175D01*
X214841D01*
X214874Y-110179D01*
D02*
G37*
G36*
X209660Y-112075D02*
X209345D01*
Y-109512D01*
X209660D01*
Y-112075D01*
D02*
G37*
G36*
X199680Y-109816D02*
X198835D01*
Y-112075D01*
X198494D01*
Y-109816D01*
X197650D01*
Y-109512D01*
X199680D01*
Y-109816D01*
D02*
G37*
G36*
X212963Y-110179D02*
X212993Y-110183D01*
X213030Y-110190D01*
X213071Y-110197D01*
X213119Y-110209D01*
X213163Y-110220D01*
X213215Y-110238D01*
X213263Y-110257D01*
X213315Y-110283D01*
X213367Y-110312D01*
X213419Y-110346D01*
X213467Y-110386D01*
X213511Y-110431D01*
X213515Y-110434D01*
X213523Y-110442D01*
X213534Y-110457D01*
X213548Y-110479D01*
X213567Y-110505D01*
X213585Y-110534D01*
X213608Y-110571D01*
X213630Y-110616D01*
X213652Y-110664D01*
X213674Y-110716D01*
X213693Y-110775D01*
X213711Y-110838D01*
X213726Y-110908D01*
X213737Y-110983D01*
X213745Y-111060D01*
X213748Y-111145D01*
Y-111149D01*
Y-111164D01*
Y-111190D01*
X213745Y-111227D01*
X212356D01*
Y-111231D01*
Y-111242D01*
X212360Y-111257D01*
Y-111279D01*
X212363Y-111305D01*
X212371Y-111334D01*
X212382Y-111401D01*
X212404Y-111475D01*
X212434Y-111557D01*
X212475Y-111631D01*
X212526Y-111697D01*
X212530D01*
X212534Y-111705D01*
X212556Y-111723D01*
X212589Y-111749D01*
X212634Y-111775D01*
X212693Y-111805D01*
X212760Y-111831D01*
X212834Y-111849D01*
X212874Y-111853D01*
X212919Y-111857D01*
X212949D01*
X212982Y-111853D01*
X213023Y-111845D01*
X213067Y-111834D01*
X213119Y-111819D01*
X213167Y-111797D01*
X213215Y-111768D01*
X213219Y-111764D01*
X213237Y-111749D01*
X213260Y-111727D01*
X213286Y-111697D01*
X213315Y-111657D01*
X213348Y-111605D01*
X213382Y-111545D01*
X213411Y-111475D01*
X213737Y-111516D01*
Y-111520D01*
X213734Y-111527D01*
X213730Y-111542D01*
X213723Y-111564D01*
X213711Y-111586D01*
X213700Y-111616D01*
X213671Y-111679D01*
X213634Y-111749D01*
X213582Y-111823D01*
X213523Y-111894D01*
X213448Y-111960D01*
X213445D01*
X213437Y-111968D01*
X213426Y-111975D01*
X213411Y-111986D01*
X213389Y-111997D01*
X213367Y-112008D01*
X213337Y-112023D01*
X213304Y-112038D01*
X213267Y-112053D01*
X213230Y-112068D01*
X213137Y-112090D01*
X213034Y-112108D01*
X212919Y-112116D01*
X212878D01*
X212852Y-112112D01*
X212819Y-112108D01*
X212778Y-112101D01*
X212734Y-112094D01*
X212686Y-112086D01*
X212582Y-112057D01*
X212526Y-112034D01*
X212475Y-112012D01*
X212419Y-111982D01*
X212367Y-111949D01*
X212319Y-111912D01*
X212271Y-111868D01*
X212267Y-111864D01*
X212260Y-111857D01*
X212249Y-111842D01*
X212234Y-111819D01*
X212215Y-111794D01*
X212197Y-111764D01*
X212175Y-111727D01*
X212152Y-111686D01*
X212130Y-111638D01*
X212108Y-111586D01*
X212089Y-111527D01*
X212071Y-111464D01*
X212056Y-111397D01*
X212045Y-111323D01*
X212038Y-111245D01*
X212034Y-111164D01*
Y-111160D01*
Y-111142D01*
Y-111120D01*
X212038Y-111086D01*
X212041Y-111046D01*
X212045Y-111001D01*
X212052Y-110949D01*
X212063Y-110897D01*
X212093Y-110779D01*
X212112Y-110720D01*
X212134Y-110657D01*
X212163Y-110597D01*
X212197Y-110542D01*
X212234Y-110486D01*
X212275Y-110434D01*
X212278Y-110431D01*
X212286Y-110423D01*
X212300Y-110412D01*
X212319Y-110394D01*
X212341Y-110375D01*
X212371Y-110353D01*
X212404Y-110327D01*
X212445Y-110305D01*
X212486Y-110279D01*
X212534Y-110257D01*
X212586Y-110234D01*
X212641Y-110216D01*
X212700Y-110197D01*
X212763Y-110186D01*
X212830Y-110179D01*
X212900Y-110175D01*
X212937D01*
X212963Y-110179D01*
D02*
G37*
G36*
X208175D02*
X208208Y-110183D01*
X208245Y-110190D01*
X208286Y-110197D01*
X208334Y-110205D01*
X208434Y-110238D01*
X208486Y-110257D01*
X208538Y-110283D01*
X208590Y-110309D01*
X208642Y-110346D01*
X208690Y-110383D01*
X208738Y-110427D01*
X208742Y-110431D01*
X208749Y-110438D01*
X208760Y-110453D01*
X208775Y-110471D01*
X208793Y-110497D01*
X208816Y-110531D01*
X208838Y-110568D01*
X208860Y-110608D01*
X208882Y-110653D01*
X208905Y-110708D01*
X208927Y-110764D01*
X208945Y-110827D01*
X208960Y-110894D01*
X208971Y-110964D01*
X208979Y-111038D01*
X208982Y-111120D01*
Y-111123D01*
Y-111134D01*
Y-111153D01*
Y-111179D01*
X208979Y-111208D01*
X208975Y-111245D01*
Y-111283D01*
X208967Y-111323D01*
X208956Y-111416D01*
X208934Y-111508D01*
X208908Y-111601D01*
X208871Y-111686D01*
Y-111690D01*
X208867Y-111694D01*
X208860Y-111705D01*
X208853Y-111719D01*
X208827Y-111757D01*
X208793Y-111801D01*
X208749Y-111853D01*
X208693Y-111905D01*
X208630Y-111957D01*
X208556Y-112005D01*
X208553D01*
X208549Y-112008D01*
X208538Y-112016D01*
X208519Y-112023D01*
X208501Y-112031D01*
X208479Y-112038D01*
X208423Y-112060D01*
X208360Y-112079D01*
X208282Y-112097D01*
X208201Y-112112D01*
X208112Y-112116D01*
X208075D01*
X208045Y-112112D01*
X208012Y-112108D01*
X207975Y-112101D01*
X207931Y-112094D01*
X207886Y-112086D01*
X207786Y-112057D01*
X207731Y-112034D01*
X207679Y-112012D01*
X207627Y-111982D01*
X207575Y-111949D01*
X207527Y-111912D01*
X207479Y-111868D01*
X207475Y-111864D01*
X207468Y-111857D01*
X207457Y-111842D01*
X207442Y-111819D01*
X207423Y-111794D01*
X207405Y-111764D01*
X207382Y-111727D01*
X207360Y-111682D01*
X207338Y-111634D01*
X207316Y-111579D01*
X207297Y-111520D01*
X207279Y-111457D01*
X207264Y-111386D01*
X207253Y-111312D01*
X207245Y-111231D01*
X207242Y-111145D01*
Y-111138D01*
Y-111123D01*
X207245Y-111097D01*
Y-111060D01*
X207249Y-111020D01*
X207257Y-110968D01*
X207264Y-110916D01*
X207279Y-110857D01*
X207294Y-110797D01*
X207312Y-110734D01*
X207334Y-110668D01*
X207364Y-110605D01*
X207394Y-110546D01*
X207434Y-110486D01*
X207475Y-110431D01*
X207527Y-110383D01*
X207531Y-110379D01*
X207538Y-110375D01*
X207553Y-110364D01*
X207571Y-110349D01*
X207594Y-110334D01*
X207623Y-110316D01*
X207653Y-110297D01*
X207690Y-110279D01*
X207731Y-110260D01*
X207775Y-110242D01*
X207875Y-110209D01*
X207990Y-110183D01*
X208049Y-110179D01*
X208112Y-110175D01*
X208149D01*
X208175Y-110179D01*
D02*
G37*
G36*
X200805D02*
X200839Y-110183D01*
X200876Y-110190D01*
X200916Y-110197D01*
X200965Y-110205D01*
X201065Y-110238D01*
X201116Y-110257D01*
X201168Y-110283D01*
X201220Y-110309D01*
X201272Y-110346D01*
X201320Y-110383D01*
X201368Y-110427D01*
X201372Y-110431D01*
X201379Y-110438D01*
X201390Y-110453D01*
X201405Y-110471D01*
X201424Y-110497D01*
X201446Y-110531D01*
X201468Y-110568D01*
X201490Y-110608D01*
X201513Y-110653D01*
X201535Y-110708D01*
X201557Y-110764D01*
X201576Y-110827D01*
X201590Y-110894D01*
X201602Y-110964D01*
X201609Y-111038D01*
X201613Y-111120D01*
Y-111123D01*
Y-111134D01*
Y-111153D01*
Y-111179D01*
X201609Y-111208D01*
X201605Y-111245D01*
Y-111283D01*
X201598Y-111323D01*
X201587Y-111416D01*
X201565Y-111508D01*
X201539Y-111601D01*
X201502Y-111686D01*
Y-111690D01*
X201498Y-111694D01*
X201490Y-111705D01*
X201483Y-111719D01*
X201457Y-111757D01*
X201424Y-111801D01*
X201379Y-111853D01*
X201324Y-111905D01*
X201261Y-111957D01*
X201187Y-112005D01*
X201183D01*
X201179Y-112008D01*
X201168Y-112016D01*
X201150Y-112023D01*
X201131Y-112031D01*
X201109Y-112038D01*
X201053Y-112060D01*
X200991Y-112079D01*
X200913Y-112097D01*
X200831Y-112112D01*
X200742Y-112116D01*
X200705D01*
X200676Y-112112D01*
X200642Y-112108D01*
X200605Y-112101D01*
X200561Y-112094D01*
X200516Y-112086D01*
X200417Y-112057D01*
X200361Y-112034D01*
X200309Y-112012D01*
X200257Y-111982D01*
X200205Y-111949D01*
X200157Y-111912D01*
X200109Y-111868D01*
X200105Y-111864D01*
X200098Y-111857D01*
X200087Y-111842D01*
X200072Y-111819D01*
X200054Y-111794D01*
X200035Y-111764D01*
X200013Y-111727D01*
X199991Y-111682D01*
X199968Y-111634D01*
X199946Y-111579D01*
X199928Y-111520D01*
X199909Y-111457D01*
X199894Y-111386D01*
X199883Y-111312D01*
X199876Y-111231D01*
X199872Y-111145D01*
Y-111138D01*
Y-111123D01*
X199876Y-111097D01*
Y-111060D01*
X199880Y-111020D01*
X199887Y-110968D01*
X199894Y-110916D01*
X199909Y-110857D01*
X199924Y-110797D01*
X199942Y-110734D01*
X199965Y-110668D01*
X199994Y-110605D01*
X200024Y-110546D01*
X200065Y-110486D01*
X200105Y-110431D01*
X200157Y-110383D01*
X200161Y-110379D01*
X200168Y-110375D01*
X200183Y-110364D01*
X200202Y-110349D01*
X200224Y-110334D01*
X200254Y-110316D01*
X200283Y-110297D01*
X200320Y-110279D01*
X200361Y-110260D01*
X200405Y-110242D01*
X200505Y-110209D01*
X200620Y-110183D01*
X200679Y-110179D01*
X200742Y-110175D01*
X200779D01*
X200805Y-110179D01*
D02*
G37*
G36*
X268477Y-109472D02*
X268503D01*
X268573Y-109479D01*
X268651Y-109490D01*
X268733Y-109509D01*
X268821Y-109531D01*
X268903Y-109560D01*
X268907D01*
X268914Y-109564D01*
X268925Y-109572D01*
X268940Y-109579D01*
X268977Y-109598D01*
X269025Y-109631D01*
X269081Y-109668D01*
X269136Y-109716D01*
X269188Y-109772D01*
X269236Y-109835D01*
Y-109838D01*
X269240Y-109842D01*
X269247Y-109853D01*
X269255Y-109864D01*
X269273Y-109901D01*
X269296Y-109949D01*
X269321Y-110009D01*
X269340Y-110079D01*
X269358Y-110153D01*
X269366Y-110234D01*
X269040Y-110260D01*
Y-110257D01*
Y-110249D01*
X269036Y-110238D01*
X269033Y-110220D01*
X269021Y-110179D01*
X269007Y-110123D01*
X268984Y-110064D01*
X268951Y-110005D01*
X268910Y-109949D01*
X268859Y-109897D01*
X268851Y-109894D01*
X268833Y-109879D01*
X268796Y-109857D01*
X268747Y-109835D01*
X268684Y-109812D01*
X268610Y-109790D01*
X268518Y-109775D01*
X268414Y-109772D01*
X268362D01*
X268340Y-109775D01*
X268310Y-109779D01*
X268244Y-109786D01*
X268170Y-109801D01*
X268096Y-109820D01*
X268025Y-109849D01*
X267996Y-109868D01*
X267966Y-109886D01*
X267959Y-109890D01*
X267944Y-109905D01*
X267922Y-109931D01*
X267899Y-109960D01*
X267873Y-110001D01*
X267851Y-110046D01*
X267836Y-110097D01*
X267829Y-110157D01*
Y-110164D01*
Y-110179D01*
X267833Y-110205D01*
X267840Y-110234D01*
X267851Y-110271D01*
X267870Y-110309D01*
X267892Y-110346D01*
X267925Y-110383D01*
X267929Y-110386D01*
X267948Y-110397D01*
X267962Y-110409D01*
X267977Y-110416D01*
X267999Y-110427D01*
X268025Y-110442D01*
X268059Y-110453D01*
X268096Y-110468D01*
X268136Y-110483D01*
X268185Y-110501D01*
X268236Y-110516D01*
X268296Y-110534D01*
X268362Y-110549D01*
X268436Y-110568D01*
X268440D01*
X268455Y-110571D01*
X268477Y-110575D01*
X268503Y-110583D01*
X268536Y-110590D01*
X268577Y-110601D01*
X268618Y-110612D01*
X268662Y-110623D01*
X268759Y-110649D01*
X268851Y-110675D01*
X268896Y-110690D01*
X268936Y-110705D01*
X268973Y-110716D01*
X269003Y-110731D01*
X269007D01*
X269014Y-110734D01*
X269025Y-110742D01*
X269040Y-110749D01*
X269081Y-110771D01*
X269129Y-110801D01*
X269184Y-110842D01*
X269240Y-110886D01*
X269292Y-110938D01*
X269336Y-110994D01*
X269340Y-111001D01*
X269355Y-111020D01*
X269370Y-111053D01*
X269392Y-111097D01*
X269410Y-111149D01*
X269429Y-111212D01*
X269440Y-111283D01*
X269444Y-111357D01*
Y-111360D01*
Y-111364D01*
Y-111375D01*
Y-111390D01*
X269436Y-111431D01*
X269429Y-111482D01*
X269414Y-111542D01*
X269396Y-111605D01*
X269366Y-111671D01*
X269325Y-111742D01*
Y-111745D01*
X269321Y-111749D01*
X269303Y-111771D01*
X269277Y-111805D01*
X269240Y-111842D01*
X269192Y-111886D01*
X269133Y-111934D01*
X269066Y-111979D01*
X268988Y-112019D01*
X268984D01*
X268977Y-112023D01*
X268966Y-112027D01*
X268951Y-112034D01*
X268929Y-112042D01*
X268903Y-112053D01*
X268844Y-112068D01*
X268773Y-112086D01*
X268688Y-112105D01*
X268596Y-112116D01*
X268496Y-112119D01*
X268436D01*
X268407Y-112116D01*
X268373D01*
X268336Y-112112D01*
X268292Y-112108D01*
X268199Y-112094D01*
X268103Y-112079D01*
X268007Y-112053D01*
X267914Y-112019D01*
X267910D01*
X267903Y-112016D01*
X267892Y-112008D01*
X267877Y-112001D01*
X267833Y-111979D01*
X267781Y-111945D01*
X267722Y-111901D01*
X267659Y-111849D01*
X267599Y-111786D01*
X267544Y-111716D01*
Y-111712D01*
X267536Y-111705D01*
X267533Y-111694D01*
X267522Y-111679D01*
X267514Y-111660D01*
X267503Y-111638D01*
X267477Y-111582D01*
X267451Y-111512D01*
X267429Y-111434D01*
X267414Y-111345D01*
X267407Y-111253D01*
X267725Y-111223D01*
Y-111227D01*
Y-111231D01*
X267729Y-111242D01*
Y-111257D01*
X267736Y-111290D01*
X267748Y-111338D01*
X267762Y-111386D01*
X267777Y-111442D01*
X267803Y-111494D01*
X267829Y-111542D01*
X267833Y-111545D01*
X267844Y-111560D01*
X267862Y-111586D01*
X267892Y-111612D01*
X267929Y-111645D01*
X267970Y-111679D01*
X268025Y-111712D01*
X268085Y-111742D01*
X268088D01*
X268092Y-111745D01*
X268103Y-111749D01*
X268114Y-111753D01*
X268151Y-111764D01*
X268199Y-111779D01*
X268259Y-111794D01*
X268325Y-111805D01*
X268399Y-111812D01*
X268481Y-111816D01*
X268514D01*
X268551Y-111812D01*
X268596Y-111808D01*
X268647Y-111801D01*
X268707Y-111794D01*
X268766Y-111779D01*
X268821Y-111760D01*
X268829Y-111757D01*
X268847Y-111749D01*
X268873Y-111734D01*
X268907Y-111719D01*
X268940Y-111694D01*
X268977Y-111668D01*
X269014Y-111638D01*
X269044Y-111601D01*
X269047Y-111597D01*
X269055Y-111582D01*
X269066Y-111564D01*
X269081Y-111534D01*
X269096Y-111505D01*
X269107Y-111468D01*
X269114Y-111427D01*
X269118Y-111382D01*
Y-111379D01*
Y-111360D01*
X269114Y-111338D01*
X269110Y-111308D01*
X269099Y-111279D01*
X269088Y-111242D01*
X269070Y-111205D01*
X269044Y-111171D01*
X269040Y-111168D01*
X269029Y-111157D01*
X269014Y-111142D01*
X268988Y-111120D01*
X268958Y-111097D01*
X268918Y-111071D01*
X268870Y-111046D01*
X268814Y-111023D01*
X268810Y-111020D01*
X268792Y-111016D01*
X268762Y-111005D01*
X268744Y-111001D01*
X268718Y-110994D01*
X268692Y-110983D01*
X268659Y-110975D01*
X268621Y-110964D01*
X268577Y-110953D01*
X268533Y-110942D01*
X268481Y-110927D01*
X268422Y-110912D01*
X268359Y-110897D01*
X268355D01*
X268344Y-110894D01*
X268325Y-110890D01*
X268303Y-110883D01*
X268273Y-110875D01*
X268240Y-110868D01*
X268166Y-110846D01*
X268085Y-110820D01*
X267999Y-110794D01*
X267925Y-110768D01*
X267892Y-110753D01*
X267862Y-110738D01*
X267859D01*
X267855Y-110734D01*
X267833Y-110720D01*
X267799Y-110701D01*
X267762Y-110671D01*
X267718Y-110638D01*
X267673Y-110597D01*
X267629Y-110549D01*
X267592Y-110497D01*
X267588Y-110490D01*
X267577Y-110471D01*
X267562Y-110442D01*
X267548Y-110405D01*
X267533Y-110357D01*
X267518Y-110301D01*
X267507Y-110242D01*
X267503Y-110179D01*
Y-110175D01*
Y-110172D01*
Y-110160D01*
Y-110146D01*
X267510Y-110109D01*
X267518Y-110060D01*
X267529Y-110005D01*
X267548Y-109942D01*
X267573Y-109879D01*
X267611Y-109816D01*
Y-109812D01*
X267614Y-109809D01*
X267633Y-109786D01*
X267659Y-109757D01*
X267692Y-109720D01*
X267736Y-109679D01*
X267792Y-109635D01*
X267859Y-109594D01*
X267933Y-109557D01*
X267936D01*
X267944Y-109553D01*
X267955Y-109549D01*
X267970Y-109542D01*
X267988Y-109535D01*
X268014Y-109527D01*
X268070Y-109512D01*
X268140Y-109498D01*
X268222Y-109483D01*
X268307Y-109472D01*
X268403Y-109468D01*
X268451D01*
X268477Y-109472D01*
D02*
G37*
G36*
X263811D02*
X263841D01*
X263911Y-109479D01*
X263989Y-109490D01*
X264070Y-109509D01*
X264159Y-109531D01*
X264244Y-109560D01*
X264248D01*
X264255Y-109564D01*
X264266Y-109568D01*
X264281Y-109575D01*
X264322Y-109598D01*
X264374Y-109623D01*
X264429Y-109660D01*
X264489Y-109705D01*
X264544Y-109753D01*
X264596Y-109812D01*
X264603Y-109820D01*
X264618Y-109842D01*
X264640Y-109875D01*
X264670Y-109923D01*
X264700Y-109983D01*
X264733Y-110057D01*
X264766Y-110138D01*
X264792Y-110231D01*
X264485Y-110312D01*
Y-110309D01*
X264481Y-110305D01*
X264477Y-110294D01*
X264474Y-110279D01*
X264463Y-110246D01*
X264448Y-110201D01*
X264426Y-110149D01*
X264400Y-110101D01*
X264374Y-110049D01*
X264340Y-110005D01*
X264337Y-110001D01*
X264326Y-109986D01*
X264303Y-109968D01*
X264277Y-109942D01*
X264244Y-109912D01*
X264200Y-109883D01*
X264152Y-109853D01*
X264096Y-109827D01*
X264089Y-109823D01*
X264070Y-109816D01*
X264037Y-109805D01*
X263992Y-109790D01*
X263941Y-109779D01*
X263881Y-109768D01*
X263815Y-109760D01*
X263744Y-109757D01*
X263703D01*
X263685Y-109760D01*
X263663D01*
X263607Y-109764D01*
X263544Y-109775D01*
X263474Y-109786D01*
X263407Y-109805D01*
X263341Y-109831D01*
X263333Y-109835D01*
X263311Y-109842D01*
X263281Y-109860D01*
X263244Y-109879D01*
X263200Y-109909D01*
X263152Y-109938D01*
X263107Y-109975D01*
X263067Y-110016D01*
X263063Y-110020D01*
X263048Y-110034D01*
X263029Y-110060D01*
X263007Y-110090D01*
X262981Y-110127D01*
X262955Y-110172D01*
X262930Y-110220D01*
X262904Y-110271D01*
Y-110275D01*
X262900Y-110283D01*
X262896Y-110294D01*
X262889Y-110312D01*
X262881Y-110334D01*
X262874Y-110360D01*
X262863Y-110390D01*
X262855Y-110423D01*
X262837Y-110501D01*
X262822Y-110590D01*
X262811Y-110683D01*
X262807Y-110786D01*
Y-110790D01*
Y-110801D01*
Y-110820D01*
X262811Y-110842D01*
Y-110871D01*
X262815Y-110908D01*
X262818Y-110946D01*
X262822Y-110986D01*
X262837Y-111079D01*
X262855Y-111175D01*
X262885Y-111271D01*
X262922Y-111364D01*
Y-111368D01*
X262930Y-111375D01*
X262933Y-111386D01*
X262944Y-111401D01*
X262970Y-111442D01*
X263011Y-111494D01*
X263059Y-111549D01*
X263118Y-111605D01*
X263189Y-111657D01*
X263267Y-111705D01*
X263270D01*
X263278Y-111708D01*
X263289Y-111716D01*
X263307Y-111723D01*
X263326Y-111731D01*
X263352Y-111738D01*
X263411Y-111760D01*
X263485Y-111779D01*
X263566Y-111797D01*
X263655Y-111812D01*
X263748Y-111816D01*
X263785D01*
X263807Y-111812D01*
X263829D01*
X263885Y-111805D01*
X263952Y-111797D01*
X264022Y-111782D01*
X264100Y-111760D01*
X264178Y-111734D01*
X264181D01*
X264189Y-111731D01*
X264196Y-111727D01*
X264211Y-111719D01*
X264252Y-111701D01*
X264296Y-111679D01*
X264348Y-111653D01*
X264403Y-111623D01*
X264455Y-111590D01*
X264500Y-111553D01*
Y-111071D01*
X263744D01*
Y-110768D01*
X264833D01*
Y-111719D01*
X264829Y-111723D01*
X264822Y-111727D01*
X264807Y-111738D01*
X264789Y-111753D01*
X264766Y-111768D01*
X264740Y-111786D01*
X264707Y-111808D01*
X264674Y-111831D01*
X264596Y-111879D01*
X264507Y-111931D01*
X264415Y-111979D01*
X264315Y-112019D01*
X264311D01*
X264303Y-112023D01*
X264289Y-112027D01*
X264270Y-112034D01*
X264244Y-112042D01*
X264215Y-112053D01*
X264181Y-112060D01*
X264148Y-112068D01*
X264066Y-112086D01*
X263974Y-112105D01*
X263874Y-112116D01*
X263770Y-112119D01*
X263733D01*
X263707Y-112116D01*
X263674D01*
X263633Y-112112D01*
X263589Y-112105D01*
X263541Y-112101D01*
X263433Y-112079D01*
X263318Y-112053D01*
X263200Y-112012D01*
X263141Y-111990D01*
X263081Y-111960D01*
X263078Y-111957D01*
X263067Y-111953D01*
X263052Y-111942D01*
X263029Y-111931D01*
X263004Y-111912D01*
X262978Y-111894D01*
X262907Y-111842D01*
X262833Y-111775D01*
X262755Y-111694D01*
X262681Y-111601D01*
X262615Y-111494D01*
Y-111490D01*
X262607Y-111479D01*
X262600Y-111464D01*
X262589Y-111438D01*
X262578Y-111412D01*
X262567Y-111375D01*
X262552Y-111338D01*
X262537Y-111294D01*
X262522Y-111245D01*
X262507Y-111190D01*
X262496Y-111134D01*
X262485Y-111075D01*
X262467Y-110946D01*
X262459Y-110808D01*
Y-110805D01*
Y-110790D01*
Y-110771D01*
X262463Y-110746D01*
Y-110712D01*
X262467Y-110671D01*
X262474Y-110631D01*
X262478Y-110583D01*
X262489Y-110531D01*
X262496Y-110475D01*
X262526Y-110357D01*
X262563Y-110234D01*
X262615Y-110112D01*
X262618Y-110109D01*
X262622Y-110097D01*
X262630Y-110083D01*
X262644Y-110060D01*
X262659Y-110031D01*
X262678Y-110001D01*
X262730Y-109931D01*
X262792Y-109849D01*
X262870Y-109772D01*
X262959Y-109694D01*
X263011Y-109660D01*
X263063Y-109627D01*
X263067Y-109623D01*
X263078Y-109620D01*
X263092Y-109612D01*
X263115Y-109601D01*
X263144Y-109590D01*
X263178Y-109575D01*
X263215Y-109560D01*
X263259Y-109546D01*
X263307Y-109531D01*
X263359Y-109520D01*
X263415Y-109505D01*
X263474Y-109494D01*
X263603Y-109475D01*
X263670Y-109468D01*
X263789D01*
X263811Y-109472D01*
D02*
G37*
G36*
X267170Y-109816D02*
X266325D01*
Y-112075D01*
X265985D01*
Y-109816D01*
X265140D01*
Y-109512D01*
X267170D01*
Y-109816D01*
D02*
G37*
G36*
X261959Y-112075D02*
X261600D01*
Y-111716D01*
X261959D01*
Y-112075D01*
D02*
G37*
%LPC*%
G36*
X210845Y-110434D02*
X210827D01*
X210812Y-110438D01*
X210771Y-110442D01*
X210723Y-110457D01*
X210667Y-110475D01*
X210608Y-110509D01*
X210549Y-110549D01*
X210519Y-110579D01*
X210493Y-110608D01*
Y-110612D01*
X210486Y-110616D01*
X210482Y-110627D01*
X210471Y-110642D01*
X210460Y-110660D01*
X210449Y-110683D01*
X210438Y-110708D01*
X210423Y-110738D01*
X210408Y-110775D01*
X210397Y-110816D01*
X210386Y-110860D01*
X210375Y-110908D01*
X210367Y-110960D01*
X210360Y-111020D01*
X210353Y-111083D01*
Y-111149D01*
Y-111153D01*
Y-111164D01*
Y-111183D01*
X210356Y-111208D01*
Y-111238D01*
X210360Y-111271D01*
X210371Y-111349D01*
X210390Y-111434D01*
X210415Y-111523D01*
X210452Y-111608D01*
X210475Y-111645D01*
X210501Y-111682D01*
X210504D01*
X210508Y-111690D01*
X210527Y-111708D01*
X210560Y-111738D01*
X210601Y-111768D01*
X210652Y-111801D01*
X210715Y-111831D01*
X210782Y-111849D01*
X210819Y-111853D01*
X210856Y-111857D01*
X210875D01*
X210889Y-111853D01*
X210930Y-111849D01*
X210978Y-111834D01*
X211034Y-111816D01*
X211093Y-111786D01*
X211152Y-111745D01*
X211182Y-111719D01*
X211208Y-111690D01*
Y-111686D01*
X211215Y-111682D01*
X211223Y-111671D01*
X211230Y-111657D01*
X211241Y-111638D01*
X211256Y-111620D01*
X211267Y-111590D01*
X211282Y-111560D01*
X211297Y-111527D01*
X211308Y-111490D01*
X211323Y-111445D01*
X211334Y-111401D01*
X211341Y-111349D01*
X211349Y-111297D01*
X211356Y-111238D01*
Y-111175D01*
Y-111171D01*
Y-111157D01*
Y-111138D01*
X211352Y-111112D01*
Y-111083D01*
X211349Y-111046D01*
X211345Y-111005D01*
X211338Y-110960D01*
X211319Y-110871D01*
X211293Y-110779D01*
X211256Y-110690D01*
X211234Y-110653D01*
X211208Y-110616D01*
Y-110612D01*
X211201Y-110608D01*
X211182Y-110586D01*
X211149Y-110557D01*
X211108Y-110523D01*
X211056Y-110490D01*
X210993Y-110464D01*
X210923Y-110442D01*
X210886Y-110438D01*
X210845Y-110434D01*
D02*
G37*
G36*
X202776Y-110423D02*
X202757D01*
X202742Y-110427D01*
X202705Y-110434D01*
X202657Y-110446D01*
X202601Y-110468D01*
X202542Y-110501D01*
X202509Y-110523D01*
X202479Y-110549D01*
X202450Y-110579D01*
X202420Y-110612D01*
Y-110616D01*
X202413Y-110620D01*
X202405Y-110631D01*
X202398Y-110646D01*
X202387Y-110668D01*
X202372Y-110690D01*
X202357Y-110720D01*
X202346Y-110749D01*
X202331Y-110786D01*
X202316Y-110827D01*
X202305Y-110871D01*
X202290Y-110920D01*
X202283Y-110975D01*
X202276Y-111031D01*
X202268Y-111090D01*
Y-111157D01*
Y-111160D01*
Y-111171D01*
Y-111190D01*
X202272Y-111216D01*
Y-111245D01*
X202276Y-111279D01*
X202287Y-111357D01*
X202305Y-111445D01*
X202327Y-111531D01*
X202364Y-111616D01*
X202387Y-111653D01*
X202413Y-111686D01*
X202420Y-111694D01*
X202439Y-111712D01*
X202468Y-111742D01*
X202509Y-111771D01*
X202561Y-111801D01*
X202620Y-111831D01*
X202687Y-111849D01*
X202724Y-111853D01*
X202761Y-111857D01*
X202783D01*
X202798Y-111853D01*
X202835Y-111845D01*
X202887Y-111834D01*
X202942Y-111812D01*
X203001Y-111782D01*
X203061Y-111738D01*
X203090Y-111712D01*
X203120Y-111682D01*
Y-111679D01*
X203127Y-111675D01*
X203135Y-111664D01*
X203142Y-111649D01*
X203157Y-111631D01*
X203168Y-111605D01*
X203183Y-111579D01*
X203198Y-111545D01*
X203209Y-111512D01*
X203224Y-111468D01*
X203238Y-111423D01*
X203250Y-111375D01*
X203257Y-111320D01*
X203264Y-111260D01*
X203272Y-111197D01*
Y-111131D01*
Y-111127D01*
Y-111116D01*
Y-111097D01*
X203268Y-111071D01*
Y-111042D01*
X203264Y-111008D01*
X203253Y-110931D01*
X203235Y-110846D01*
X203209Y-110760D01*
X203172Y-110675D01*
X203150Y-110634D01*
X203124Y-110601D01*
Y-110597D01*
X203116Y-110594D01*
X203098Y-110571D01*
X203068Y-110546D01*
X203027Y-110512D01*
X202975Y-110479D01*
X202916Y-110449D01*
X202850Y-110431D01*
X202813Y-110427D01*
X202776Y-110423D01*
D02*
G37*
G36*
X212904Y-110434D02*
X212882D01*
X212867Y-110438D01*
X212826Y-110442D01*
X212778Y-110453D01*
X212719Y-110471D01*
X212656Y-110497D01*
X212597Y-110534D01*
X212537Y-110583D01*
X212530Y-110590D01*
X212515Y-110608D01*
X212489Y-110642D01*
X212463Y-110686D01*
X212434Y-110738D01*
X212408Y-110805D01*
X212386Y-110883D01*
X212375Y-110968D01*
X213415D01*
Y-110964D01*
Y-110957D01*
X213411Y-110946D01*
Y-110931D01*
X213404Y-110886D01*
X213393Y-110838D01*
X213374Y-110779D01*
X213356Y-110723D01*
X213326Y-110668D01*
X213293Y-110620D01*
Y-110616D01*
X213286Y-110612D01*
X213267Y-110590D01*
X213234Y-110560D01*
X213189Y-110527D01*
X213134Y-110494D01*
X213067Y-110464D01*
X212989Y-110442D01*
X212949Y-110438D01*
X212904Y-110434D01*
D02*
G37*
G36*
X208112D02*
X208090D01*
X208071Y-110438D01*
X208031Y-110442D01*
X207975Y-110457D01*
X207912Y-110479D01*
X207845Y-110509D01*
X207782Y-110553D01*
X207749Y-110583D01*
X207719Y-110612D01*
Y-110616D01*
X207712Y-110620D01*
X207705Y-110631D01*
X207694Y-110646D01*
X207682Y-110664D01*
X207671Y-110686D01*
X207656Y-110716D01*
X207642Y-110746D01*
X207627Y-110783D01*
X207612Y-110820D01*
X207601Y-110864D01*
X207590Y-110912D01*
X207579Y-110964D01*
X207571Y-111020D01*
X207568Y-111083D01*
X207564Y-111145D01*
Y-111149D01*
Y-111160D01*
Y-111179D01*
X207568Y-111205D01*
Y-111234D01*
X207571Y-111268D01*
X207582Y-111345D01*
X207601Y-111434D01*
X207631Y-111523D01*
X207668Y-111608D01*
X207694Y-111645D01*
X207719Y-111682D01*
X207723D01*
X207727Y-111690D01*
X207749Y-111708D01*
X207782Y-111738D01*
X207827Y-111768D01*
X207882Y-111801D01*
X207949Y-111831D01*
X208027Y-111849D01*
X208068Y-111853D01*
X208112Y-111857D01*
X208134D01*
X208153Y-111853D01*
X208193Y-111845D01*
X208249Y-111834D01*
X208308Y-111812D01*
X208375Y-111782D01*
X208438Y-111738D01*
X208471Y-111708D01*
X208501Y-111679D01*
X208505Y-111675D01*
X208508Y-111671D01*
X208516Y-111660D01*
X208527Y-111645D01*
X208538Y-111627D01*
X208553Y-111605D01*
X208568Y-111575D01*
X208582Y-111545D01*
X208597Y-111508D01*
X208608Y-111468D01*
X208623Y-111423D01*
X208634Y-111375D01*
X208645Y-111320D01*
X208653Y-111264D01*
X208660Y-111201D01*
Y-111134D01*
Y-111131D01*
Y-111120D01*
Y-111101D01*
X208656Y-111079D01*
Y-111049D01*
X208653Y-111016D01*
X208642Y-110938D01*
X208623Y-110857D01*
X208593Y-110768D01*
X208553Y-110686D01*
X208530Y-110646D01*
X208501Y-110612D01*
Y-110608D01*
X208493Y-110605D01*
X208471Y-110583D01*
X208438Y-110557D01*
X208393Y-110523D01*
X208338Y-110490D01*
X208271Y-110460D01*
X208197Y-110442D01*
X208156Y-110438D01*
X208112Y-110434D01*
D02*
G37*
G36*
X200742D02*
X200720D01*
X200702Y-110438D01*
X200661Y-110442D01*
X200605Y-110457D01*
X200542Y-110479D01*
X200476Y-110509D01*
X200413Y-110553D01*
X200379Y-110583D01*
X200350Y-110612D01*
Y-110616D01*
X200342Y-110620D01*
X200335Y-110631D01*
X200324Y-110646D01*
X200313Y-110664D01*
X200302Y-110686D01*
X200287Y-110716D01*
X200272Y-110746D01*
X200257Y-110783D01*
X200242Y-110820D01*
X200231Y-110864D01*
X200220Y-110912D01*
X200209Y-110964D01*
X200202Y-111020D01*
X200198Y-111083D01*
X200194Y-111145D01*
Y-111149D01*
Y-111160D01*
Y-111179D01*
X200198Y-111205D01*
Y-111234D01*
X200202Y-111268D01*
X200213Y-111345D01*
X200231Y-111434D01*
X200261Y-111523D01*
X200298Y-111608D01*
X200324Y-111645D01*
X200350Y-111682D01*
X200354D01*
X200357Y-111690D01*
X200379Y-111708D01*
X200413Y-111738D01*
X200457Y-111768D01*
X200513Y-111801D01*
X200579Y-111831D01*
X200657Y-111849D01*
X200698Y-111853D01*
X200742Y-111857D01*
X200765D01*
X200783Y-111853D01*
X200824Y-111845D01*
X200879Y-111834D01*
X200939Y-111812D01*
X201005Y-111782D01*
X201068Y-111738D01*
X201102Y-111708D01*
X201131Y-111679D01*
X201135Y-111675D01*
X201139Y-111671D01*
X201146Y-111660D01*
X201157Y-111645D01*
X201168Y-111627D01*
X201183Y-111605D01*
X201198Y-111575D01*
X201213Y-111545D01*
X201228Y-111508D01*
X201239Y-111468D01*
X201253Y-111423D01*
X201265Y-111375D01*
X201276Y-111320D01*
X201283Y-111264D01*
X201290Y-111201D01*
Y-111134D01*
Y-111131D01*
Y-111120D01*
Y-111101D01*
X201287Y-111079D01*
Y-111049D01*
X201283Y-111016D01*
X201272Y-110938D01*
X201253Y-110857D01*
X201224Y-110768D01*
X201183Y-110686D01*
X201161Y-110646D01*
X201131Y-110612D01*
Y-110608D01*
X201124Y-110605D01*
X201102Y-110583D01*
X201068Y-110557D01*
X201024Y-110523D01*
X200968Y-110490D01*
X200902Y-110460D01*
X200828Y-110442D01*
X200787Y-110438D01*
X200742Y-110434D01*
D02*
G37*
%LPD*%
D12*
X1000Y67250D02*
G03*
X-3000Y63250I-0J-4000D01*
G01*
X127000D02*
G03*
X123000Y67250I-4000J0D01*
G01*
Y-12750D02*
G03*
X127000Y-8750I0J4000D01*
G01*
X-3000D02*
G03*
X1000Y-12750I4000J-0D01*
G01*
X-3000Y-8750D02*
Y63250D01*
X1000Y67250D02*
X123000D01*
X127000Y-8750D02*
Y63250D01*
X1000Y-12750D02*
X123000D01*
D17*
X67750Y400D02*
D03*
X68250D02*
D03*
X70750Y5100D02*
D03*
X70250D02*
D03*
X69750D02*
D03*
X69250D02*
D03*
X68750D02*
D03*
X68250D02*
D03*
X67750D02*
D03*
X67250D02*
D03*
Y400D02*
D03*
X68750D02*
D03*
X69250D02*
D03*
X69750D02*
D03*
X70250D02*
D03*
X70750D02*
D03*
D18*
X67900Y-5850D02*
D03*
Y-5450D02*
D03*
X68300D02*
D03*
Y-5850D02*
D03*
D19*
X104650Y15500D02*
D03*
X106850D02*
D03*
D20*
X38450Y48000D02*
D03*
X40950D02*
D03*
D21*
X73175Y39130D02*
D03*
D22*
X76750Y41035D02*
D03*
Y39765D02*
D03*
Y38495D02*
D03*
Y37225D02*
D03*
X69600Y41035D02*
D03*
Y39765D02*
D03*
Y38495D02*
D03*
Y37225D02*
D03*
D23*
X106500Y-11850D02*
D03*
D24*
X101653Y-10700D02*
D03*
Y-5700D02*
D03*
X111353Y-10700D02*
D03*
Y-5700D02*
D03*
D25*
X108103Y-5750D02*
D03*
X107303D02*
D03*
X106503D02*
D03*
X105703D02*
D03*
X104903D02*
D03*
D26*
X67757Y-11517D02*
D03*
X85250Y-11450D02*
D03*
D27*
X66457Y-8318D02*
D03*
X67107D02*
D03*
X67757D02*
D03*
X68407D02*
D03*
X69057D02*
D03*
X86550Y-8250D02*
D03*
X85900D02*
D03*
X85250D02*
D03*
X84600D02*
D03*
X83950D02*
D03*
D28*
X117520Y28810D02*
D03*
X122980D02*
D03*
X117520Y26270D02*
D03*
X122980D02*
D03*
X117520Y23730D02*
D03*
X122980D02*
D03*
X117519Y21190D02*
D03*
X122981D02*
D03*
D29*
X114300Y11385D02*
D03*
Y13925D02*
D03*
D30*
X75103Y29750D02*
D03*
X77897D02*
D03*
X47647Y45500D02*
D03*
X44853D02*
D03*
X38824Y23290D02*
D03*
X36030D02*
D03*
X39647Y19250D02*
D03*
X36853D02*
D03*
X28897Y48250D02*
D03*
X26103D02*
D03*
D31*
X26500Y62310D02*
D03*
X16500D02*
D03*
X26500Y59770D02*
D03*
X16500D02*
D03*
X26500Y57230D02*
D03*
X16500Y57230D02*
D03*
X26500Y54690D02*
D03*
X16500D02*
D03*
D32*
X55950Y49150D02*
D03*
Y47850D02*
D03*
X54050D02*
D03*
Y48500D02*
D03*
Y49150D02*
D03*
X48200Y51400D02*
D03*
Y50100D02*
D03*
X46300D02*
D03*
Y50750D02*
D03*
Y51400D02*
D03*
D33*
X90425Y16450D02*
D03*
Y15500D02*
D03*
Y14550D02*
D03*
X92575D02*
D03*
Y16450D02*
D03*
X64825Y-1300D02*
D03*
Y-3200D02*
D03*
X62675D02*
D03*
Y-2250D02*
D03*
Y-1300D02*
D03*
D34*
X116900Y-2750D02*
D03*
X115100Y-3700D02*
D03*
Y-1800D02*
D03*
X78900Y-3750D02*
D03*
X77100Y-4700D02*
D03*
Y-2800D02*
D03*
D35*
X100450Y33450D02*
D03*
Y35750D02*
D03*
Y38050D02*
D03*
D36*
X94550Y35750D02*
D03*
D37*
X97607Y21250D02*
D03*
X99893D02*
D03*
X103893Y31500D02*
D03*
X101607D02*
D03*
X117893Y5000D02*
D03*
X115607D02*
D03*
X103893Y18750D02*
D03*
X101607D02*
D03*
X103893Y21250D02*
D03*
X101607D02*
D03*
D38*
X94405Y22270D02*
D03*
X93135D02*
D03*
X91865D02*
D03*
X90595D02*
D03*
Y27730D02*
D03*
X91865D02*
D03*
X93135D02*
D03*
X94405D02*
D03*
D39*
X32000Y48250D02*
D03*
X43000Y48000D02*
D03*
D40*
X37499Y-8814D02*
D03*
X54873D02*
D03*
D41*
X39607Y11099D02*
D03*
X41436D02*
D03*
X50936D02*
D03*
X52764D02*
D03*
D42*
X42630D02*
D03*
X43646D02*
D03*
X44662D02*
D03*
X45678D02*
D03*
X46694D02*
D03*
X47710D02*
D03*
X48726D02*
D03*
X49742D02*
D03*
D43*
X34875Y56725D02*
D03*
X47275D02*
D03*
D44*
X41075Y53675D02*
D03*
D45*
X109650Y7250D02*
D03*
Y1750D02*
D03*
X100850D02*
D03*
Y7250D02*
D03*
D46*
X109650Y6750D02*
D03*
Y6250D02*
D03*
Y5750D02*
D03*
Y5250D02*
D03*
Y4750D02*
D03*
Y4250D02*
D03*
Y3750D02*
D03*
Y3250D02*
D03*
Y2750D02*
D03*
Y2250D02*
D03*
X100850D02*
D03*
Y2750D02*
D03*
Y3250D02*
D03*
Y3750D02*
D03*
Y4250D02*
D03*
Y4750D02*
D03*
Y5250D02*
D03*
Y5750D02*
D03*
Y6250D02*
D03*
Y6750D02*
D03*
D47*
X108000Y100D02*
D03*
X102500Y100D02*
D03*
X102500Y8900D02*
D03*
X108000Y8900D02*
D03*
D48*
X107500Y100D02*
D03*
X107000D02*
D03*
X106500D02*
D03*
X106000D02*
D03*
X105500D02*
D03*
X105000D02*
D03*
X104500D02*
D03*
X104000D02*
D03*
X103500D02*
D03*
X103000D02*
D03*
Y8900D02*
D03*
X103500D02*
D03*
X104000D02*
D03*
X104500D02*
D03*
X105000D02*
D03*
X105500D02*
D03*
X106000D02*
D03*
X106500D02*
D03*
X107000D02*
D03*
X107500D02*
D03*
D49*
X76500Y20000D02*
D03*
D50*
X75075Y19025D02*
D03*
Y19675D02*
D03*
Y20325D02*
D03*
Y20975D02*
D03*
X77925D02*
D03*
Y20325D02*
D03*
Y19675D02*
D03*
Y19025D02*
D03*
D51*
X66650Y4500D02*
D03*
Y4000D02*
D03*
Y3500D02*
D03*
Y3000D02*
D03*
Y2500D02*
D03*
Y2000D02*
D03*
Y1500D02*
D03*
Y1000D02*
D03*
X71350D02*
D03*
Y1500D02*
D03*
Y2000D02*
D03*
Y2500D02*
D03*
Y3000D02*
D03*
Y3500D02*
D03*
Y4000D02*
D03*
Y4500D02*
D03*
D52*
X69000Y2750D02*
D03*
D53*
X48472Y19289D02*
D03*
Y19789D02*
D03*
Y20289D02*
D03*
Y20789D02*
D03*
Y21289D02*
D03*
Y21789D02*
D03*
X44672D02*
D03*
Y21289D02*
D03*
Y20789D02*
D03*
Y20289D02*
D03*
Y19789D02*
D03*
Y19289D02*
D03*
D54*
X47822Y22439D02*
D03*
X47322D02*
D03*
X46822D02*
D03*
X46322D02*
D03*
X45822D02*
D03*
X45322D02*
D03*
Y18639D02*
D03*
X45822D02*
D03*
X46322D02*
D03*
X46822D02*
D03*
X47322D02*
D03*
X47822D02*
D03*
D55*
X46572Y20539D02*
D03*
D56*
X91550Y51725D02*
D03*
X90450D02*
D03*
X89350D02*
D03*
X88250D02*
D03*
X87150D02*
D03*
X86050D02*
D03*
X84950D02*
D03*
X83850D02*
D03*
X82700D02*
D03*
D57*
X81425Y53375D02*
D03*
D58*
X96425Y53875D02*
D03*
D59*
X96525Y64875D02*
D03*
D60*
X81575D02*
D03*
D61*
X81800Y61925D02*
D03*
D62*
X14250Y-11500D02*
D03*
X7350Y-9900D02*
D03*
X18550D02*
D03*
X25450Y-11500D02*
D03*
D63*
X14250Y-8750D02*
D03*
X7350Y-6950D02*
D03*
X14250Y450D02*
D03*
X25450D02*
D03*
X18550Y-6950D02*
D03*
X25450Y-8750D02*
D03*
D64*
X10050Y4500D02*
D03*
X70940Y64750D02*
D03*
X53060D02*
D03*
X21250Y4500D02*
D03*
D65*
X34675Y48075D02*
D03*
Y46425D02*
D03*
X35925D02*
D03*
Y48075D02*
D03*
D66*
X89250Y18000D02*
D03*
X88150D02*
D03*
X96500Y5750D02*
D03*
X95400D02*
D03*
X118250Y42000D02*
D03*
X117150D02*
D03*
X20500Y52000D02*
D03*
X21600D02*
D03*
X96500Y1250D02*
D03*
X95400D02*
D03*
X103250Y54750D02*
D03*
X104350D02*
D03*
X95500Y8750D02*
D03*
X96600D02*
D03*
X96500Y2750D02*
D03*
X95400D02*
D03*
X103250Y53250D02*
D03*
X104350D02*
D03*
X95500Y7250D02*
D03*
X96600D02*
D03*
X96500Y4250D02*
D03*
X95400D02*
D03*
X103250Y51750D02*
D03*
X104350D02*
D03*
X103250Y50250D02*
D03*
X104350D02*
D03*
X95000Y20250D02*
D03*
X96100D02*
D03*
X118500Y49000D02*
D03*
X119600D02*
D03*
X104250Y12250D02*
D03*
Y11150D02*
D03*
X87000Y-4500D02*
D03*
Y-5600D02*
D03*
X67250Y20000D02*
D03*
X66150D02*
D03*
D67*
X115250Y-11250D02*
D03*
Y-8250D02*
D03*
X116750D02*
D03*
Y-11250D02*
D03*
D68*
X54750Y62175D02*
D03*
X55250D02*
D03*
X55750D02*
D03*
X56250D02*
D03*
X56750D02*
D03*
X57250D02*
D03*
X57750D02*
D03*
X58250D02*
D03*
X58750D02*
D03*
X59250D02*
D03*
X59750D02*
D03*
X60250D02*
D03*
X60750D02*
D03*
X61250D02*
D03*
X61750D02*
D03*
X62250D02*
D03*
X62750D02*
D03*
X63250D02*
D03*
X63750D02*
D03*
X64250D02*
D03*
X64750D02*
D03*
X65250D02*
D03*
X65750D02*
D03*
X66250D02*
D03*
X66750D02*
D03*
X67250D02*
D03*
X67750D02*
D03*
X68250D02*
D03*
X68750D02*
D03*
X69250D02*
D03*
D69*
X85000Y-3000D02*
D03*
X84500D02*
D03*
X84000D02*
D03*
X85000Y-2500D02*
D03*
X84500D02*
D03*
X84000D02*
D03*
X85000Y-2000D02*
D03*
X84500D02*
D03*
X84000D02*
D03*
X85000Y-1500D02*
D03*
X84500D02*
D03*
D70*
X17900Y29650D02*
D03*
X17100D02*
D03*
X16300D02*
D03*
X13100D02*
D03*
X12300D02*
D03*
X11500D02*
D03*
X17900Y30450D02*
D03*
X17100D02*
D03*
X16300D02*
D03*
X13100D02*
D03*
X12300D02*
D03*
X11500D02*
D03*
X17900Y31250D02*
D03*
X17100D02*
D03*
X16300D02*
D03*
X13100D02*
D03*
X12300D02*
D03*
X11500D02*
D03*
X17900Y33650D02*
D03*
X17100D02*
D03*
X16300D02*
D03*
X13100D02*
D03*
X12300D02*
D03*
X11500D02*
D03*
X17900Y34450D02*
D03*
X17100D02*
D03*
X16300D02*
D03*
X13100D02*
D03*
X12300D02*
D03*
X11500D02*
D03*
X17900Y35250D02*
D03*
X17100D02*
D03*
X16300D02*
D03*
X13100D02*
D03*
X12300D02*
D03*
X11500D02*
D03*
X17900Y36050D02*
D03*
X17100D02*
D03*
X16300D02*
D03*
X13100D02*
D03*
X12300D02*
D03*
X11500D02*
D03*
X17900Y36850D02*
D03*
X17100D02*
D03*
X16300D02*
D03*
X13100D02*
D03*
X12300D02*
D03*
X11500D02*
D03*
X17900Y37650D02*
D03*
X17100D02*
D03*
X16300D02*
D03*
X13100D02*
D03*
X12300D02*
D03*
X11500D02*
D03*
X17900Y40850D02*
D03*
X17100D02*
D03*
X16300D02*
D03*
X13100D02*
D03*
X12300D02*
D03*
X11500D02*
D03*
Y40050D02*
D03*
X12300D02*
D03*
X13100D02*
D03*
X16300D02*
D03*
X17100D02*
D03*
X17900D02*
D03*
X11500Y39250D02*
D03*
X12300D02*
D03*
X13100D02*
D03*
X16300D02*
D03*
X17100D02*
D03*
X17900D02*
D03*
X11500Y38450D02*
D03*
X12300D02*
D03*
X13100D02*
D03*
X16300D02*
D03*
X17100D02*
D03*
X17900D02*
D03*
X11500Y32850D02*
D03*
X12300D02*
D03*
X13100D02*
D03*
X16300D02*
D03*
X17100D02*
D03*
X17900D02*
D03*
X11500Y32050D02*
D03*
X12300D02*
D03*
X13100D02*
D03*
X16300D02*
D03*
X17100D02*
D03*
X17900D02*
D03*
D71*
X63240Y9896D02*
D03*
X60240Y12436D02*
D03*
X63240Y14976D02*
D03*
X60240Y17516D02*
D03*
X63240Y20056D02*
D03*
X60240Y22596D02*
D03*
X63240Y25136D02*
D03*
X60240Y27676D02*
D03*
X63240Y30216D02*
D03*
X60240Y32756D02*
D03*
X108500Y36820D02*
D03*
X111500Y34280D02*
D03*
X108500Y31740D02*
D03*
X111500Y29200D02*
D03*
X108500Y26660D02*
D03*
X111500Y24120D02*
D03*
X108500Y21580D02*
D03*
X111500Y19040D02*
D03*
Y41900D02*
D03*
X108500Y44440D02*
D03*
X111500Y46980D02*
D03*
X108500Y49520D02*
D03*
X111500Y52060D02*
D03*
X108500Y54600D02*
D03*
X63240Y36820D02*
D03*
X60240Y39360D02*
D03*
X63240Y41900D02*
D03*
X60240Y44440D02*
D03*
X63240Y46980D02*
D03*
X60240Y49520D02*
D03*
X63240Y52060D02*
D03*
X60240Y54600D02*
D03*
D72*
X70000Y18050D02*
D03*
D73*
Y15740D02*
D03*
D74*
X84500Y25000D02*
D03*
D75*
X85450Y23600D02*
D03*
X84500D02*
D03*
X83550D02*
D03*
Y26400D02*
D03*
X84500D02*
D03*
X85450D02*
D03*
D76*
X115450Y55500D02*
D03*
Y51000D02*
D03*
X124550D02*
D03*
Y55500D02*
D03*
Y39500D02*
D03*
Y35000D02*
D03*
X115450D02*
D03*
Y39500D02*
D03*
D77*
X17250Y13250D02*
D03*
Y13750D02*
D03*
Y14250D02*
D03*
Y14750D02*
D03*
Y15250D02*
D03*
Y15750D02*
D03*
Y16250D02*
D03*
Y16750D02*
D03*
Y17250D02*
D03*
X17750Y13250D02*
D03*
Y13750D02*
D03*
Y14250D02*
D03*
Y14750D02*
D03*
Y15250D02*
D03*
Y15750D02*
D03*
Y16250D02*
D03*
Y16750D02*
D03*
Y17250D02*
D03*
X18250Y13250D02*
D03*
Y13750D02*
D03*
Y14250D02*
D03*
Y14750D02*
D03*
Y15250D02*
D03*
Y15750D02*
D03*
Y16250D02*
D03*
Y16750D02*
D03*
Y17250D02*
D03*
X18750Y13250D02*
D03*
Y13750D02*
D03*
Y14250D02*
D03*
Y14750D02*
D03*
Y15250D02*
D03*
Y15750D02*
D03*
Y16250D02*
D03*
Y16750D02*
D03*
Y17250D02*
D03*
X19250Y13250D02*
D03*
Y13750D02*
D03*
Y14250D02*
D03*
Y14750D02*
D03*
Y15250D02*
D03*
Y15750D02*
D03*
Y16250D02*
D03*
Y16750D02*
D03*
Y17250D02*
D03*
X19750Y13250D02*
D03*
Y13750D02*
D03*
Y14250D02*
D03*
Y14750D02*
D03*
Y15250D02*
D03*
Y15750D02*
D03*
Y16250D02*
D03*
Y16750D02*
D03*
Y17250D02*
D03*
X20250Y13250D02*
D03*
Y13750D02*
D03*
Y14250D02*
D03*
Y14750D02*
D03*
Y15250D02*
D03*
Y15750D02*
D03*
Y16250D02*
D03*
Y16750D02*
D03*
Y17250D02*
D03*
X20750Y13250D02*
D03*
Y13750D02*
D03*
Y14250D02*
D03*
Y14750D02*
D03*
Y15250D02*
D03*
Y15750D02*
D03*
Y16250D02*
D03*
Y16750D02*
D03*
Y17250D02*
D03*
D78*
X66200Y-6200D02*
D03*
X65800D02*
D03*
X66200Y-5800D02*
D03*
X65800D02*
D03*
D79*
X41600Y29650D02*
D03*
Y30450D02*
D03*
Y31250D02*
D03*
Y32050D02*
D03*
Y32850D02*
D03*
Y33650D02*
D03*
Y34450D02*
D03*
Y35250D02*
D03*
Y36050D02*
D03*
Y36850D02*
D03*
Y37650D02*
D03*
Y38450D02*
D03*
Y39250D02*
D03*
Y40050D02*
D03*
Y40850D02*
D03*
X40800D02*
D03*
Y40050D02*
D03*
Y39250D02*
D03*
Y38450D02*
D03*
Y37650D02*
D03*
Y36850D02*
D03*
Y36050D02*
D03*
Y35250D02*
D03*
Y34450D02*
D03*
Y33650D02*
D03*
Y32850D02*
D03*
Y32050D02*
D03*
Y31250D02*
D03*
Y30450D02*
D03*
Y29650D02*
D03*
X40000Y40850D02*
D03*
Y40050D02*
D03*
Y39250D02*
D03*
Y38450D02*
D03*
Y37650D02*
D03*
Y36850D02*
D03*
Y36050D02*
D03*
Y35250D02*
D03*
Y34450D02*
D03*
Y33650D02*
D03*
Y32850D02*
D03*
Y32050D02*
D03*
Y31250D02*
D03*
Y30450D02*
D03*
Y29650D02*
D03*
X39200Y40850D02*
D03*
Y40050D02*
D03*
Y39250D02*
D03*
Y38450D02*
D03*
Y37650D02*
D03*
Y36850D02*
D03*
Y36050D02*
D03*
Y35250D02*
D03*
Y34450D02*
D03*
Y33650D02*
D03*
Y32850D02*
D03*
Y32050D02*
D03*
Y31250D02*
D03*
Y30450D02*
D03*
Y29650D02*
D03*
X38400Y40850D02*
D03*
Y40050D02*
D03*
Y39250D02*
D03*
Y38450D02*
D03*
Y37650D02*
D03*
Y36850D02*
D03*
Y36050D02*
D03*
Y35250D02*
D03*
Y34450D02*
D03*
Y33650D02*
D03*
Y32850D02*
D03*
Y32050D02*
D03*
Y31250D02*
D03*
Y30450D02*
D03*
Y29650D02*
D03*
X37600Y40850D02*
D03*
Y40050D02*
D03*
Y39250D02*
D03*
Y38450D02*
D03*
Y37650D02*
D03*
Y36850D02*
D03*
Y36050D02*
D03*
Y35250D02*
D03*
Y34450D02*
D03*
Y33650D02*
D03*
Y32850D02*
D03*
Y32050D02*
D03*
Y31250D02*
D03*
Y30450D02*
D03*
Y29650D02*
D03*
X36800Y40850D02*
D03*
Y40050D02*
D03*
Y39250D02*
D03*
Y38450D02*
D03*
Y37650D02*
D03*
Y36850D02*
D03*
Y33650D02*
D03*
Y32850D02*
D03*
Y32050D02*
D03*
Y31250D02*
D03*
Y30450D02*
D03*
Y29650D02*
D03*
X36000Y40850D02*
D03*
Y40050D02*
D03*
Y39250D02*
D03*
Y38450D02*
D03*
Y37650D02*
D03*
Y36850D02*
D03*
Y33650D02*
D03*
Y32850D02*
D03*
Y32050D02*
D03*
Y31250D02*
D03*
Y30450D02*
D03*
Y29650D02*
D03*
X35200Y40850D02*
D03*
Y40050D02*
D03*
Y39250D02*
D03*
Y38450D02*
D03*
Y37650D02*
D03*
Y36850D02*
D03*
Y33650D02*
D03*
Y32850D02*
D03*
Y32050D02*
D03*
Y31250D02*
D03*
Y30450D02*
D03*
Y29650D02*
D03*
X34400Y40850D02*
D03*
Y40050D02*
D03*
Y39250D02*
D03*
Y38450D02*
D03*
Y37650D02*
D03*
Y36850D02*
D03*
Y36050D02*
D03*
Y35250D02*
D03*
Y34450D02*
D03*
Y33650D02*
D03*
Y32850D02*
D03*
Y32050D02*
D03*
Y31250D02*
D03*
Y30450D02*
D03*
Y29650D02*
D03*
X33600Y40850D02*
D03*
Y40050D02*
D03*
Y39250D02*
D03*
Y38450D02*
D03*
Y37650D02*
D03*
Y36850D02*
D03*
Y36050D02*
D03*
Y35250D02*
D03*
Y34450D02*
D03*
Y33650D02*
D03*
Y32850D02*
D03*
Y32050D02*
D03*
Y31250D02*
D03*
Y30450D02*
D03*
Y29650D02*
D03*
X32800Y40850D02*
D03*
Y40050D02*
D03*
Y39250D02*
D03*
Y38450D02*
D03*
Y37650D02*
D03*
Y36850D02*
D03*
Y36050D02*
D03*
Y35250D02*
D03*
Y34450D02*
D03*
Y33650D02*
D03*
Y32850D02*
D03*
Y32050D02*
D03*
Y31250D02*
D03*
Y30450D02*
D03*
Y29650D02*
D03*
X32000Y40850D02*
D03*
Y40050D02*
D03*
Y39250D02*
D03*
Y38450D02*
D03*
Y37650D02*
D03*
Y36850D02*
D03*
Y36050D02*
D03*
Y35250D02*
D03*
Y34450D02*
D03*
Y33650D02*
D03*
Y32850D02*
D03*
Y32050D02*
D03*
Y31250D02*
D03*
Y30450D02*
D03*
Y29650D02*
D03*
X31200Y40850D02*
D03*
Y40050D02*
D03*
Y39250D02*
D03*
Y38450D02*
D03*
Y37650D02*
D03*
Y36850D02*
D03*
Y36050D02*
D03*
Y35250D02*
D03*
Y34450D02*
D03*
Y33650D02*
D03*
Y32850D02*
D03*
Y32050D02*
D03*
Y31250D02*
D03*
Y30450D02*
D03*
Y29650D02*
D03*
X30400Y40850D02*
D03*
Y40050D02*
D03*
Y39250D02*
D03*
Y38450D02*
D03*
Y37650D02*
D03*
Y36850D02*
D03*
Y36050D02*
D03*
Y35250D02*
D03*
Y34450D02*
D03*
Y33650D02*
D03*
Y32850D02*
D03*
Y32050D02*
D03*
Y31250D02*
D03*
Y30450D02*
D03*
Y29650D02*
D03*
D80*
X74976Y15750D02*
D03*
X78024D02*
D03*
D81*
X27897Y31000D02*
D03*
X25103D02*
D03*
X44603Y30000D02*
D03*
X47397D02*
D03*
D82*
X71984Y-1750D02*
D03*
X74016D02*
D03*
X79766Y23000D02*
D03*
X77734D02*
D03*
X72016Y-4250D02*
D03*
X69984D02*
D03*
D83*
X104000Y35766D02*
D03*
Y33734D02*
D03*
Y37984D02*
D03*
Y40016D02*
D03*
D84*
X49975Y44750D02*
D03*
X51525D02*
D03*
X28275Y43000D02*
D03*
X26725D02*
D03*
D85*
X90650Y-5750D02*
D03*
X92350D02*
D03*
X70650Y-6250D02*
D03*
X72350D02*
D03*
X122100Y17750D02*
D03*
X120400D02*
D03*
X33100Y7500D02*
D03*
X31400D02*
D03*
X54000Y22000D02*
D03*
X55700D02*
D03*
X26650Y45000D02*
D03*
X28350D02*
D03*
X15100Y13750D02*
D03*
X13400D02*
D03*
X52350Y18250D02*
D03*
X50650D02*
D03*
X83650Y20250D02*
D03*
X85350D02*
D03*
X13400Y17000D02*
D03*
X15100D02*
D03*
X13400Y15250D02*
D03*
X15100D02*
D03*
X37650Y21000D02*
D03*
X39350D02*
D03*
X22900Y15000D02*
D03*
X24600D02*
D03*
X72650Y10000D02*
D03*
X74350D02*
D03*
X121850Y31750D02*
D03*
X120150D02*
D03*
X74350Y12000D02*
D03*
X72650D02*
D03*
X75600Y-9250D02*
D03*
X73900D02*
D03*
X24600Y13250D02*
D03*
X22900D02*
D03*
X24600Y18000D02*
D03*
X22900D02*
D03*
X96600Y-5750D02*
D03*
X94900D02*
D03*
X28350Y15000D02*
D03*
X26650D02*
D03*
X92600Y12500D02*
D03*
X90900D02*
D03*
X88100Y14500D02*
D03*
X86400D02*
D03*
X58650Y-250D02*
D03*
X60350D02*
D03*
D86*
X88750Y24150D02*
D03*
Y25850D02*
D03*
X18260Y19640D02*
D03*
Y21340D02*
D03*
X76250Y12100D02*
D03*
Y10400D02*
D03*
X23250Y9400D02*
D03*
Y11100D02*
D03*
X78250Y12100D02*
D03*
Y10400D02*
D03*
X96500Y14650D02*
D03*
Y16350D02*
D03*
X77500Y-8900D02*
D03*
Y-10600D02*
D03*
X92500Y-8900D02*
D03*
Y-10600D02*
D03*
X21250Y19650D02*
D03*
Y21350D02*
D03*
X58000Y-8900D02*
D03*
Y-10600D02*
D03*
X60000Y-8900D02*
D03*
Y-10600D02*
D03*
X72750Y21400D02*
D03*
Y23100D02*
D03*
X19750Y11100D02*
D03*
Y9400D02*
D03*
X21500D02*
D03*
Y11100D02*
D03*
X18000Y9400D02*
D03*
Y11100D02*
D03*
X85000Y400D02*
D03*
Y2100D02*
D03*
X94750Y-8900D02*
D03*
Y-10600D02*
D03*
D87*
X113350Y2500D02*
D03*
X112150D02*
D03*
X121150Y47750D02*
D03*
X122350D02*
D03*
X40150Y50750D02*
D03*
X41350D02*
D03*
X118100Y31750D02*
D03*
X116900D02*
D03*
X54400Y23500D02*
D03*
X55600D02*
D03*
X50900Y22000D02*
D03*
X52100D02*
D03*
X49650Y53000D02*
D03*
X50850D02*
D03*
X55600Y50750D02*
D03*
X54400D02*
D03*
X54650Y46000D02*
D03*
X55850D02*
D03*
X113350Y-250D02*
D03*
X112150D02*
D03*
X12100Y28000D02*
D03*
X13300D02*
D03*
X39100Y45750D02*
D03*
X37900D02*
D03*
X40400D02*
D03*
X41600D02*
D03*
X20300Y42050D02*
D03*
X21500D02*
D03*
X88100Y16500D02*
D03*
X86900D02*
D03*
X8100Y35450D02*
D03*
X9300D02*
D03*
X9300Y38450D02*
D03*
X8100D02*
D03*
X47400Y48250D02*
D03*
X48600D02*
D03*
X44650Y43750D02*
D03*
X45850D02*
D03*
X116900Y17750D02*
D03*
X118100D02*
D03*
X45850Y42750D02*
D03*
X44650D02*
D03*
X9300Y41450D02*
D03*
X8100D02*
D03*
X13300Y21050D02*
D03*
X14500D02*
D03*
X81000Y-3550D02*
D03*
X82200D02*
D03*
X81000Y-2350D02*
D03*
X82200D02*
D03*
X21500Y34750D02*
D03*
X20300D02*
D03*
X22900Y16500D02*
D03*
X24100D02*
D03*
X74100Y1500D02*
D03*
X72900D02*
D03*
X72900Y250D02*
D03*
X74100D02*
D03*
X42575Y21289D02*
D03*
X41375D02*
D03*
X50900Y24500D02*
D03*
X52100D02*
D03*
X50900Y23250D02*
D03*
X52100D02*
D03*
X73850Y34750D02*
D03*
X72650D02*
D03*
X48400Y36500D02*
D03*
X49600D02*
D03*
X81000Y-4750D02*
D03*
X82200D02*
D03*
X52100Y20750D02*
D03*
X50900D02*
D03*
X45850Y41750D02*
D03*
X44650D02*
D03*
X48400Y38750D02*
D03*
X49600D02*
D03*
X45850Y40750D02*
D03*
X44650D02*
D03*
X45850Y39750D02*
D03*
X44650D02*
D03*
X28100Y28000D02*
D03*
X26900D02*
D03*
X28100Y26750D02*
D03*
X26900D02*
D03*
X44650Y32250D02*
D03*
X45850D02*
D03*
X9300Y36450D02*
D03*
X8100D02*
D03*
X9300Y39450D02*
D03*
X8100D02*
D03*
X65900Y15000D02*
D03*
X67100D02*
D03*
X31150Y46000D02*
D03*
X32350D02*
D03*
X13300Y18600D02*
D03*
X14500D02*
D03*
X113350Y6500D02*
D03*
X112150D02*
D03*
X121150Y49000D02*
D03*
X122350D02*
D03*
X63650Y2250D02*
D03*
X64850D02*
D03*
X20300Y37050D02*
D03*
X21500D02*
D03*
X90150Y1500D02*
D03*
X91350D02*
D03*
X90150Y-1000D02*
D03*
X91350D02*
D03*
X90150Y-2250D02*
D03*
X91350D02*
D03*
X91350Y250D02*
D03*
X90150D02*
D03*
X64850Y1000D02*
D03*
X63650D02*
D03*
X103600Y-1750D02*
D03*
X102400D02*
D03*
X20300Y38050D02*
D03*
X21500D02*
D03*
X73150Y5000D02*
D03*
X74350D02*
D03*
X23300Y37750D02*
D03*
X24500D02*
D03*
X63650Y4750D02*
D03*
X64850D02*
D03*
X112150Y-1750D02*
D03*
X113350D02*
D03*
X113350Y1250D02*
D03*
X112150D02*
D03*
X64850Y6000D02*
D03*
X63650D02*
D03*
X13300Y19850D02*
D03*
X14500D02*
D03*
X42640Y23350D02*
D03*
X41440D02*
D03*
X64850Y3500D02*
D03*
X63650D02*
D03*
X73600Y18500D02*
D03*
X72400D02*
D03*
X91900Y29500D02*
D03*
X93100D02*
D03*
X59150Y-2000D02*
D03*
X60350D02*
D03*
X112150Y5000D02*
D03*
X113350D02*
D03*
X90100Y20250D02*
D03*
X88900D02*
D03*
X63650Y7250D02*
D03*
X64850D02*
D03*
X35100Y50250D02*
D03*
X33900D02*
D03*
X20300Y41050D02*
D03*
X21500D02*
D03*
X26650Y38750D02*
D03*
X27850D02*
D03*
X112150Y3750D02*
D03*
X113350D02*
D03*
X73600Y19750D02*
D03*
X72400D02*
D03*
X60350Y-3250D02*
D03*
X59150D02*
D03*
X50900Y19500D02*
D03*
X52100D02*
D03*
X20100Y31650D02*
D03*
X21300D02*
D03*
X9300Y40450D02*
D03*
X8100D02*
D03*
X24600Y19250D02*
D03*
X23400D02*
D03*
X20300Y36050D02*
D03*
X21500D02*
D03*
X9300Y32850D02*
D03*
X8100D02*
D03*
X44650Y37250D02*
D03*
X45850D02*
D03*
X71650Y-7750D02*
D03*
X72850D02*
D03*
X44650Y33750D02*
D03*
X45850D02*
D03*
X9300Y37450D02*
D03*
X8100D02*
D03*
X13650Y12250D02*
D03*
X14850D02*
D03*
X20100Y30650D02*
D03*
X21300D02*
D03*
X69347Y34924D02*
D03*
X70547D02*
D03*
X112150Y8250D02*
D03*
X113350D02*
D03*
X74150Y-11000D02*
D03*
X75350D02*
D03*
X67100Y13750D02*
D03*
X65900D02*
D03*
X20300Y39050D02*
D03*
X21500D02*
D03*
X28100Y46500D02*
D03*
X26900D02*
D03*
X36400Y50250D02*
D03*
X37600D02*
D03*
X26900Y41250D02*
D03*
X28100D02*
D03*
X20300Y40050D02*
D03*
X21500D02*
D03*
X27850Y33000D02*
D03*
X26650D02*
D03*
X27850Y34500D02*
D03*
X26650D02*
D03*
X27850Y35750D02*
D03*
X26650D02*
D03*
X27850Y37250D02*
D03*
X26650D02*
D03*
X44650Y35000D02*
D03*
X45850D02*
D03*
X44650Y36000D02*
D03*
X45850D02*
D03*
X73150Y3750D02*
D03*
X74350D02*
D03*
X20100Y32650D02*
D03*
X21300D02*
D03*
X93100Y20250D02*
D03*
X91900D02*
D03*
X119600Y47750D02*
D03*
X118400D02*
D03*
X75150Y27750D02*
D03*
X76350D02*
D03*
X83650Y22000D02*
D03*
X84850D02*
D03*
X121650Y42000D02*
D03*
X122850D02*
D03*
D88*
X15300Y27650D02*
D03*
Y26450D02*
D03*
X51000Y50150D02*
D03*
Y51350D02*
D03*
X58650Y58500D02*
D03*
Y59700D02*
D03*
X44500Y49400D02*
D03*
Y50600D02*
D03*
X41250Y16600D02*
D03*
Y15400D02*
D03*
X52750Y16600D02*
D03*
Y15400D02*
D03*
X39500Y16600D02*
D03*
Y15400D02*
D03*
X51000Y16600D02*
D03*
Y15400D02*
D03*
X110750Y11150D02*
D03*
Y12350D02*
D03*
X107000Y11150D02*
D03*
Y12350D02*
D03*
X43000Y49400D02*
D03*
Y50600D02*
D03*
X51000Y47150D02*
D03*
Y48350D02*
D03*
X52500Y47150D02*
D03*
Y48350D02*
D03*
X108500Y-3100D02*
D03*
Y-1900D02*
D03*
X98750Y1650D02*
D03*
Y2850D02*
D03*
X47450Y24600D02*
D03*
Y25800D02*
D03*
X6400Y37950D02*
D03*
Y36750D02*
D03*
X33000Y42900D02*
D03*
Y44100D02*
D03*
X6400Y39550D02*
D03*
Y40750D02*
D03*
X11400Y43150D02*
D03*
Y44350D02*
D03*
X13500Y9650D02*
D03*
Y10850D02*
D03*
X4250Y-1150D02*
D03*
Y-2350D02*
D03*
X79250Y-10600D02*
D03*
Y-9400D02*
D03*
X99250Y12350D02*
D03*
Y11150D02*
D03*
X3100Y37150D02*
D03*
Y38350D02*
D03*
X100500Y12350D02*
D03*
Y11150D02*
D03*
X101750Y11150D02*
D03*
Y12350D02*
D03*
X75500Y-1150D02*
D03*
Y-2350D02*
D03*
Y-3900D02*
D03*
Y-5100D02*
D03*
X88250Y-4400D02*
D03*
Y-5600D02*
D03*
X45800Y15400D02*
D03*
Y16600D02*
D03*
X89250Y-4400D02*
D03*
Y-5600D02*
D03*
X43750Y15400D02*
D03*
Y16600D02*
D03*
X40000Y25900D02*
D03*
Y27100D02*
D03*
X12400Y43150D02*
D03*
Y44350D02*
D03*
X107250Y-1900D02*
D03*
Y-3100D02*
D03*
X116750Y-6600D02*
D03*
Y-5400D02*
D03*
X55800Y52550D02*
D03*
Y53750D02*
D03*
X56000Y58500D02*
D03*
Y59700D02*
D03*
X43000Y42900D02*
D03*
Y44100D02*
D03*
X57100Y58500D02*
D03*
Y59700D02*
D03*
X81250Y47150D02*
D03*
Y48350D02*
D03*
X125071Y43021D02*
D03*
Y41821D02*
D03*
X115250Y-5400D02*
D03*
Y-6600D02*
D03*
X82500Y48350D02*
D03*
Y47150D02*
D03*
X85000Y48350D02*
D03*
Y47150D02*
D03*
X48436Y24586D02*
D03*
Y25786D02*
D03*
X49436Y24586D02*
D03*
Y25786D02*
D03*
X46436Y25786D02*
D03*
Y24586D02*
D03*
X45436Y24586D02*
D03*
Y25786D02*
D03*
X42700Y24625D02*
D03*
Y25825D02*
D03*
X50000Y16600D02*
D03*
Y15400D02*
D03*
X49000Y16600D02*
D03*
Y15400D02*
D03*
X79500Y19400D02*
D03*
Y20600D02*
D03*
X91750Y48350D02*
D03*
Y47150D02*
D03*
X108250Y12350D02*
D03*
Y11150D02*
D03*
X18950Y43150D02*
D03*
Y44350D02*
D03*
X109500Y12350D02*
D03*
Y11150D02*
D03*
X38750Y25900D02*
D03*
Y27100D02*
D03*
X39250Y44100D02*
D03*
Y42900D02*
D03*
X40500Y44100D02*
D03*
Y42900D02*
D03*
X38000Y44100D02*
D03*
Y42900D02*
D03*
X83750Y48350D02*
D03*
Y47150D02*
D03*
X90500Y48350D02*
D03*
Y47150D02*
D03*
X17950Y43150D02*
D03*
Y44350D02*
D03*
X89250Y48350D02*
D03*
Y47150D02*
D03*
X96000Y24400D02*
D03*
Y25600D02*
D03*
X14950Y43150D02*
D03*
Y44350D02*
D03*
X42650Y16600D02*
D03*
Y15400D02*
D03*
X16300Y27650D02*
D03*
Y26450D02*
D03*
X14750Y9650D02*
D03*
Y10850D02*
D03*
X105750Y11150D02*
D03*
Y12350D02*
D03*
X94750Y16350D02*
D03*
Y15150D02*
D03*
X16500Y9650D02*
D03*
Y10850D02*
D03*
X1700Y37150D02*
D03*
Y38350D02*
D03*
X103000Y11150D02*
D03*
Y12350D02*
D03*
X5500Y-1150D02*
D03*
Y-2350D02*
D03*
X70250Y-2350D02*
D03*
Y-1150D02*
D03*
X69000Y-1150D02*
D03*
Y-2350D02*
D03*
X63750Y-7850D02*
D03*
Y-6650D02*
D03*
X41250Y27100D02*
D03*
Y25900D02*
D03*
X54900Y59700D02*
D03*
Y58500D02*
D03*
X19750Y21100D02*
D03*
Y19900D02*
D03*
X61750Y-10350D02*
D03*
Y-9150D02*
D03*
X16950Y43150D02*
D03*
Y44350D02*
D03*
X48000Y15400D02*
D03*
Y16600D02*
D03*
X47000Y15400D02*
D03*
Y16600D02*
D03*
X59850Y59700D02*
D03*
Y58500D02*
D03*
X75750Y3900D02*
D03*
Y5100D02*
D03*
X37500Y27100D02*
D03*
Y25900D02*
D03*
X33750Y27100D02*
D03*
Y25900D02*
D03*
X31750Y42900D02*
D03*
Y44100D02*
D03*
X36750Y42900D02*
D03*
Y44100D02*
D03*
X35000Y27100D02*
D03*
Y25900D02*
D03*
X36250Y27100D02*
D03*
Y25900D02*
D03*
X30500Y42900D02*
D03*
Y44100D02*
D03*
X34250Y42900D02*
D03*
Y44100D02*
D03*
X35500Y42900D02*
D03*
Y44100D02*
D03*
X41750Y42900D02*
D03*
Y44100D02*
D03*
X87000Y24400D02*
D03*
Y25600D02*
D03*
X15950Y43150D02*
D03*
Y44350D02*
D03*
X2700Y16150D02*
D03*
Y17350D02*
D03*
D89*
X70000Y24147D02*
D03*
Y21353D02*
D03*
X80750Y9353D02*
D03*
Y12147D02*
D03*
D90*
X94750Y-1350D02*
D03*
X95700Y-3150D02*
D03*
X93800D02*
D03*
D91*
X55775Y55175D02*
D03*
X57425D02*
D03*
Y56425D02*
D03*
X55775D02*
D03*
D92*
X52900Y59747D02*
D03*
Y56953D02*
D03*
X24750Y41353D02*
D03*
Y44147D02*
D03*
X32000Y26647D02*
D03*
Y23853D02*
D03*
D93*
X86550Y325D02*
D03*
X88450D02*
D03*
Y-1825D02*
D03*
X87500D02*
D03*
X86550D02*
D03*
D94*
X30950Y10800D02*
D03*
X33250D02*
D03*
X35550D02*
D03*
D95*
X33250Y16700D02*
D03*
D96*
X79400Y25270D02*
D03*
X44200D02*
D03*
D97*
X108700Y-8500D02*
D03*
X104306D02*
D03*
D98*
X69982Y-11493D02*
D03*
X65532D02*
D03*
X83025Y-11425D02*
D03*
X87475D02*
D03*
X21500Y61040D02*
D03*
Y55960D02*
D03*
X10800Y-7750D02*
D03*
Y-750D02*
D03*
X22000D02*
D03*
Y-7750D02*
D03*
X1000Y63250D02*
D03*
D99*
X69982Y-7993D02*
D03*
X65532D02*
D03*
X83025Y-7925D02*
D03*
X87475D02*
D03*
D100*
X71932Y-11043D02*
D03*
X63582D02*
D03*
X81075Y-10975D02*
D03*
X89425D02*
D03*
D101*
X118600Y12655D02*
D03*
D102*
X30100Y-10790D02*
D03*
X121700Y3310D02*
D03*
Y770D02*
D03*
Y-1770D02*
D03*
X33300Y-10790D02*
D03*
D103*
X30100Y-8250D02*
D03*
X121700Y5850D02*
D03*
X33300Y-8250D02*
D03*
D104*
X0Y0D02*
D03*
D105*
X39836Y-8814D02*
D03*
X52536D02*
D03*
D106*
X41075Y59875D02*
D03*
D107*
X85475Y57525D02*
D03*
D108*
X93025D02*
D03*
D109*
X1000Y-8750D02*
D03*
X123000D02*
D03*
Y63250D02*
D03*
M02*
